<svg width="0" height="0" fill="none" style="visibility: hidden; position: absolute;" aria-hidden="true">
    <symbol id="expl1" width="40.399902px" height="40.450012px" viewBox="0 0 40.399902 40.450012" xmlns="http://www.w3.org/2000/svg">
        <g id="expl1__expl1">
            <g id="Group-6__expl1">
                <g id="Layer0_98_MEMBER_0_FILL__expl1">
                    <path d="M40.3999 20.2C40.3999 17.5333 39.4832 15.1167 37.6499 12.95C37.4499 10.15 36.4166 7.81667 34.5499 5.95C32.6499 4.05 30.3 3 27.5 2.8C25.3333 0.933333 22.9167 -1.42109e-14 20.25 -1.42109e-14C17.55 -1.42109e-14 15.1333 0.933333 13 2.8C10.1667 3 7.81662 4.03333 5.94995 5.9C4.01662 7.83333 2.95 10.2 2.75 13C0.916667 15.1333 0 17.5333 0 20.2C0 22.8667 0.916667 25.25 2.75 27.35C2.95 30.2167 4.01662 32.6167 5.94995 34.55C7.81662 36.4167 10.1833 37.4667 13.0499 37.7C15.1499 39.5333 17.55 40.45 20.25 40.45C22.9167 40.45 25.3333 39.5167 27.5 37.65C30.2667 37.4167 32.6 36.35 34.5 34.45C36.3667 32.5833 37.4166 30.25 37.6499 27.45C39.4832 25.3167 40.3999 22.9 40.3999 20.2L40.3999 20.2ZM36.1499 14.25C37.6499 16.0167 38.3999 18 38.3999 20.2C38.3999 22.4 37.6499 24.3833 36.1499 26.15C35.8499 26.4833 35.6832 26.8667 35.6499 27.3C35.4499 29.5667 34.6 31.4833 33.1 33.05C31.5333 34.5833 29.6166 35.45 27.35 35.65C26.9166 35.6833 26.5333 35.85 26.2 36.15C24.4333 37.6833 22.45 38.45 20.25 38.45C18.05 38.45 16.0999 37.7 14.3999 36.2C14.0332 35.9 13.6333 35.7333 13.2 35.7C10.8666 35.5 8.93324 34.65 7.3999 33.15C5.7999 31.55 4.91667 29.5667 4.75 27.2C4.71667 26.7667 4.55 26.3833 4.25 26.05C2.75 24.3167 2 22.3667 2 20.2C2 18 2.76659 16.0333 4.29993 14.3C4.56659 13.9667 4.71667 13.5833 4.75 13.15C4.91667 10.85 5.7999 8.91667 7.3999 7.35C8.8999 5.81667 10.8166 4.96667 13.1499 4.8C13.5832 4.76667 13.9833 4.6 14.35 4.3C16.0833 2.76667 18.05 2 20.25 2C22.45 2 24.4333 2.78333 26.2 4.35C26.5333 4.61667 26.9166 4.76667 27.35 4.8C29.65 4.96667 31.5832 5.83333 33.1499 7.4C34.6499 8.9 35.4832 10.8 35.6499 13.1C35.6832 13.5333 35.8499 13.9167 36.1499 14.25L36.1499 14.25Z" id="Vector__expl1" fill="#FF5F4F" fill-rule="evenodd" stroke="none"/>
                    <path d="M38.3999 20.2C38.3999 18 37.6499 16.0167 36.1499 14.25C35.8499 13.9167 35.6832 13.5333 35.6499 13.1C35.4832 10.8 34.6499 8.9 33.1499 7.4C31.5832 5.83333 29.65 4.96667 27.35 4.8C26.9166 4.76667 26.5333 4.61667 26.2 4.35C24.4333 2.78333 22.45 2 20.25 2C18.05 2 16.0833 2.76667 14.35 4.3C13.9833 4.6 13.5832 4.76667 13.1499 4.8C10.8166 4.96667 8.8999 5.81667 7.3999 7.35C5.7999 8.91667 4.91667 10.85 4.75 13.15C4.71667 13.5833 4.56659 13.9667 4.29993 14.3C2.76659 16.0333 2 18 2 20.2C2 22.3667 2.75 24.3167 4.25 26.05C4.55 26.3833 4.71667 26.7667 4.75 27.2C4.91667 29.5667 5.7999 31.55 7.3999 33.15C8.93324 34.65 10.8666 35.5 13.2 35.7C13.6333 35.7333 14.0332 35.9 14.3999 36.2C16.0999 37.7 18.05 38.45 20.25 38.45C22.45 38.45 24.4333 37.6833 26.2 36.15C26.5333 35.85 26.9166 35.6833 27.35 35.65C29.6166 35.45 31.5333 34.5833 33.1 33.05C34.6 31.4833 35.4499 29.5667 35.6499 27.3C35.6832 26.8667 35.8499 26.4833 36.1499 26.15C37.6499 24.3833 38.3999 22.4 38.3999 20.2L38.3999 20.2Z" id="Vector__expl1" fill="#F75140" fill-rule="evenodd" stroke="none"/>
                </g>
            </g>
            <g id="Group-7__expl1" transform="translate(13 14)">
                <g id="Layer0_98_MEMBER_1_FILL__expl1">
                    <path d="M11.4501 11.5C12.7834 10.2 13.4501 8.61667 13.4501 6.75C13.4501 4.88333 12.7834 3.3 11.4501 2C10.1501 0.666667 8.56674 0 6.70007 0C4.83341 0 3.23336 0.666667 1.90002 2C0.633358 3.3 0 4.88333 0 6.75C0 8.61667 0.633358 10.2 1.90002 11.5C3.23336 12.8333 4.83341 13.5 6.70007 13.5C8.56674 13.5 10.1501 12.8333 11.4501 11.5L11.4501 11.5Z" id="Vector__expl1" fill="#FFCC00" fill-rule="evenodd" stroke="none"/>
                </g>
            </g>
        </g>
    </symbol>
    <symbol id="expl2" width="59.100098px" height="59.100006px" viewBox="0 0 59.100098 59.100006" xmlns="http://www.w3.org/2000/svg">
        <g id="expl2__expl2">
            <g id="Group-8__expl2">
                <g id="Layer0_99_MEMBER_0_FILL__expl2">
                    <path d="M41.3 5.75C40.9 5.75 40.5167 5.76667 40.15 5.8C39.6167 5.03334 39.0168 4.30001 38.3501 3.60001C35.9168 1.20001 32.9834 -1.42109e-14 29.55 -1.42109e-14C26.1167 -1.42109e-14 23.2 1.20001 20.8 3.60001C20.1 4.30001 19.5167 5.03334 19.05 5.8C18.65 5.76667 18.2334 5.75 17.8 5.75C14.4667 5.75 11.6334 6.91667 9.30005 9.25C6.96672 11.6167 5.80005 14.45 5.80005 17.75C5.80005 18.1833 5.81676 18.6 5.8501 19C5.0501 19.4667 4.31669 20.05 3.65002 20.75C1.21669 23.1833 0 26.1167 0 29.55C0 32.9833 1.21669 35.9 3.65002 38.3C4.31669 39 5.0501 39.5833 5.8501 40.05C5.81676 40.45 5.80005 40.8667 5.80005 41.3C5.80005 44.6333 6.96672 47.4667 9.30005 49.8C11.6334 52.1667 14.4667 53.35 17.8 53.35C18.2334 53.35 18.65 53.3167 19.05 53.25C19.55 54.0167 20.1334 54.75 20.8 55.45C23.2 57.8833 26.1167 59.1 29.55 59.1C32.9834 59.1 35.9168 57.8833 38.3501 55.45C39.0168 54.75 39.6001 54.0167 40.1001 53.25C40.5001 53.3167 40.9 53.35 41.3 53.35C44.6334 53.35 47.4667 52.1667 49.8 49.8C52.1667 47.4667 53.3501 44.6333 53.3501 41.3C53.3501 40.8667 53.3334 40.45 53.3 40.05C54.0667 39.5833 54.8 39 55.5 38.3C57.9 35.9 59.1001 32.9833 59.1001 29.55C59.1001 26.1167 57.9 23.1833 55.5 20.75C54.8 20.05 54.0667 19.4667 53.3 19C53.3334 18.6 53.3501 18.1833 53.3501 17.75C53.3501 14.45 52.1667 11.6167 49.8 9.25C47.4667 6.91667 44.6334 5.75 41.3 5.75L41.3 5.75ZM40.3501 7.8C40.6501 7.76667 40.9667 7.75 41.3 7.75C44.0667 7.75 46.4334 8.73334 48.4 10.7C50.3667 12.6667 51.3501 15.0167 51.3501 17.75C51.3501 18.1167 51.3334 18.4833 51.3 18.85C51.2667 19.2167 51.35 19.5667 51.55 19.9C51.7167 20.2333 51.95 20.5 52.25 20.7C52.8833 21.1 53.5001 21.6 54.1001 22.2L54.1001 22.15C56.1001 24.1833 57.1001 26.65 57.1001 29.55C57.1001 32.4167 56.1001 34.8667 54.1001 36.9C53.5001 37.4667 52.8833 37.95 52.25 38.35C51.95 38.55 51.7167 38.8167 51.55 39.15C51.35 39.4833 51.2667 39.85 51.3 40.25C51.3334 40.5833 51.3501 40.9333 51.3501 41.3C51.3501 44.0667 50.3667 46.4333 48.4 48.4C46.4334 50.3667 44.0667 51.35 41.3 51.35C41 51.35 40.7167 51.3333 40.4501 51.3C40.0501 51.2333 39.6667 51.2833 39.3 51.45C38.9334 51.5833 38.6501 51.8167 38.4501 52.15C37.9834 52.7833 37.4834 53.4167 36.9501 54.05C36.9167 54.05 36.9 54.0667 36.9 54.1C34.8334 56.1 32.3834 57.1 29.55 57.1C26.6834 57.1 24.25 56.1 22.25 54.1L22.25 54.05C21.65 53.45 21.15 52.8167 20.75 52.15C20.5167 51.8167 20.2168 51.5833 19.8501 51.45C19.4834 51.2833 19.1167 51.2333 18.75 51.3C18.45 51.3333 18.1334 51.35 17.8 51.35C15.0334 51.35 12.6833 50.3667 10.75 48.4C8.78333 46.4333 7.80005 44.0667 7.80005 41.3C7.80005 40.9333 7.81676 40.5833 7.8501 40.25C7.88343 39.85 7.81669 39.4833 7.65002 39.15C7.45002 38.7833 7.18343 38.5167 6.8501 38.35C6.21676 37.95 5.63343 37.4833 5.1001 36.95C5.1001 36.9167 5.08338 36.9 5.05005 36.9C3.01672 34.8667 2 32.4167 2 29.55C2 26.6833 3.03343 24.2333 5.1001 22.2L5.1001 22.15C5.63343 21.5833 6.21676 21.1167 6.8501 20.75C7.18343 20.55 7.45002 20.2833 7.65002 19.95C7.81669 19.5833 7.88343 19.2167 7.8501 18.85C7.81676 18.4833 7.80005 18.1167 7.80005 17.75C7.80005 14.9833 8.78333 12.6167 10.75 10.65L10.75 10.7C12.6833 8.73334 15.0334 7.75 17.8 7.75C18.1667 7.75 18.5334 7.76667 18.9 7.8C19.2667 7.83334 19.6167 7.76667 19.9501 7.60001C20.2834 7.40001 20.55 7.15001 20.75 6.85001C21.15 6.21667 21.65 5.61667 22.25 5.05C24.25 3.01667 26.6834 2 29.55 2C32.4167 2 34.8667 3 36.9 5L36.9501 5.05C37.5167 5.65 38.0333 6.28334 38.5 6.95C38.7 7.25 38.9667 7.46667 39.3 7.60001C39.6334 7.76667 39.9834 7.83334 40.3501 7.8L40.3501 7.8Z" id="Vector__expl2" fill="#FF5F4F" fill-rule="evenodd" stroke="none"/>
                    <path d="M41.3 7.75C40.9667 7.75 40.6501 7.76667 40.3501 7.8C39.9834 7.83334 39.6334 7.76667 39.3 7.60001C38.9667 7.46667 38.7 7.25 38.5 6.95C38.0333 6.28334 37.5167 5.65 36.9501 5.05L36.9 5C34.8667 3 32.4167 2 29.55 2C26.6834 2 24.25 3.01667 22.25 5.05C21.65 5.61667 21.15 6.21667 20.75 6.85001C20.55 7.15001 20.2834 7.40001 19.9501 7.60001C19.6167 7.76667 19.2667 7.83334 18.9 7.8C18.5334 7.76667 18.1667 7.75 17.8 7.75C15.0334 7.75 12.6833 8.73334 10.75 10.7L10.75 10.65C8.78333 12.6167 7.80005 14.9833 7.80005 17.75C7.80005 18.1167 7.81676 18.4833 7.8501 18.85C7.88343 19.2167 7.81669 19.5833 7.65002 19.95C7.45002 20.2833 7.18343 20.55 6.8501 20.75C6.21676 21.1167 5.63343 21.5833 5.1001 22.15L5.1001 22.2C3.03343 24.2333 2 26.6833 2 29.55C2 32.4167 3.01672 34.8667 5.05005 36.9C5.08338 36.9 5.1001 36.9167 5.1001 36.95C5.63343 37.4833 6.21676 37.95 6.8501 38.35C7.18343 38.5167 7.45002 38.7833 7.65002 39.15C7.81669 39.4833 7.88343 39.85 7.8501 40.25C7.81676 40.5833 7.80005 40.9333 7.80005 41.3C7.80005 44.0667 8.78333 46.4333 10.75 48.4C12.6833 50.3667 15.0334 51.35 17.8 51.35C18.1334 51.35 18.45 51.3333 18.75 51.3C19.1167 51.2333 19.4834 51.2833 19.8501 51.45C20.2168 51.5833 20.5167 51.8167 20.75 52.15C21.15 52.8167 21.65 53.45 22.25 54.05L22.25 54.1C24.25 56.1 26.6834 57.1 29.55 57.1C32.3834 57.1 34.8334 56.1 36.9 54.1C36.9 54.0667 36.9167 54.05 36.9501 54.05C37.4834 53.4167 37.9834 52.7833 38.4501 52.15C38.6501 51.8167 38.9334 51.5833 39.3 51.45C39.6667 51.2833 40.0501 51.2333 40.4501 51.3C40.7167 51.3333 41 51.35 41.3 51.35C44.0667 51.35 46.4334 50.3667 48.4 48.4C50.3667 46.4333 51.3501 44.0667 51.3501 41.3C51.3501 40.9333 51.3334 40.5833 51.3 40.25C51.2667 39.85 51.35 39.4833 51.55 39.15C51.7167 38.8167 51.95 38.55 52.25 38.35C52.8833 37.95 53.5001 37.4667 54.1001 36.9C56.1001 34.8667 57.1001 32.4167 57.1001 29.55C57.1001 26.65 56.1001 24.1833 54.1001 22.15L54.1001 22.2C53.5001 21.6 52.8833 21.1 52.25 20.7C51.95 20.5 51.7167 20.2333 51.55 19.9C51.35 19.5667 51.2667 19.2167 51.3 18.85C51.3334 18.4833 51.3501 18.1167 51.3501 17.75C51.3501 15.0167 50.3667 12.6667 48.4 10.7C46.4334 8.73334 44.0667 7.75 41.3 7.75L41.3 7.75Z" id="Vector__expl2" fill="#F75140" fill-rule="evenodd" stroke="none"/>
                </g>
            </g>
            <g id="Group-9__expl2" transform="translate(13 13)">
                <g id="Layer0_99_MEMBER_1_FILL__expl2">
                    <path d="M13.4324 0.285148C9.03237 -0.481518 5.54908 0.401817 2.98242 2.93515C0.415749 5.50182 -0.467609 8.98515 0.332392 13.3851C0.465725 14.3185 0.682416 15.2351 0.982416 16.1351C0.682416 17.0351 0.449009 17.9852 0.282343 18.9852C-0.517657 23.3518 0.382416 26.8185 2.98242 29.3851C5.51575 31.9518 8.99903 32.8685 13.4324 32.1351C14.399 31.9018 15.3157 31.6351 16.1824 31.3351C17.1157 31.7018 18.0657 31.9352 19.0323 32.0352C23.399 32.8018 26.8657 31.9018 29.4324 29.3351C31.999 26.8018 32.899 23.3351 32.1323 18.9352C31.9657 18.0018 31.7157 17.0685 31.3823 16.1351C31.7157 15.2351 31.9491 14.3351 32.0824 13.4352C32.8491 9.00182 31.9657 5.50182 29.4324 2.93515C26.8324 0.368483 23.3324 -0.514851 18.9324 0.285148C17.999 0.418482 17.0824 0.63515 16.1824 0.93515C15.2824 0.63515 14.3657 0.418482 13.4324 0.285148L13.4324 0.285148Z" id="Vector__expl2" fill="#FF9900" fill-rule="evenodd" stroke="none"/>
                </g>
            </g>
            <g id="Group-10__expl2" transform="translate(7 8)">
                <g id="Layer0_99_MEMBER_2_MEMBER_0_FILL__expl2">
                    <path d="M35.1388 4.78779C30.4722 8.55445 25.1722 13.4045 19.2388 19.3378C13.3055 25.2711 8.47216 30.5545 4.73882 35.1878C1.03882 39.8545 -0.494486 42.5045 0.138848 43.1378C0.772181 43.8045 3.40542 42.2545 8.03875 38.4878C12.6721 34.7545 17.9555 29.9211 23.8888 23.9878C29.8222 18.0545 34.6721 12.7544 38.4388 8.08778C42.1721 3.45445 43.7221 0.804453 43.0888 0.137786C42.4555 -0.495547 39.8055 1.05445 35.1388 4.78779L35.1388 4.78779Z" id="Vector__expl2" fill="#FF9900" fill-rule="evenodd" stroke="none"/>
                </g>
            </g>
            <g id="Group-11__expl2" transform="translate(7 8)">
                <g id="Layer0_99_MEMBER_2_MEMBER_1_FILL__expl2">
                    <path d="M4.78781 8.03884C8.55448 12.6722 13.4044 17.9555 19.3377 23.8888C25.2711 29.8222 30.5545 34.6722 35.1878 38.4389C39.8545 42.1722 42.5044 43.7222 43.1378 43.0888C43.8045 42.4555 42.2544 39.8055 38.4878 35.1388C34.7544 30.4722 29.9211 25.1722 23.9878 19.2388C18.0544 13.3055 12.7544 8.47218 8.08774 4.73884C3.4544 1.03884 0.804452 -0.494487 0.137785 0.138846C-0.495548 0.77218 1.05448 3.40551 4.78781 8.03884L4.78781 8.03884Z" id="Vector__expl2" fill="#FF9900" fill-rule="evenodd" stroke="none"/>
                </g>
            </g>
            <g id="Group-12__expl2" transform="translate(19 20)">
                <g id="Layer0_99_MEMBER_3_FILL__expl2">
                    <path d="M0 9.75C0 12.4833 0.933382 14.7833 2.80005 16.65C4.73338 18.55 7.05 19.5 9.75 19.5C12.4167 19.5 14.7167 18.55 16.65 16.65C18.55 14.7833 19.5 12.4833 19.5 9.75C19.5 7.08333 18.55 4.79999 16.65 2.89999C14.7167 0.966663 12.4167 0 9.75 0C7.05 0 4.73338 0.966661 2.80005 2.89999C0.933382 4.79999 0 7.08333 0 9.75L0 9.75ZM4.25 4.3L4.25 4.35001C5.78333 2.78334 7.61667 2 9.75 2C11.85 2 13.6833 2.78334 15.25 4.35001C16.75 5.85001 17.5 7.65 17.5 9.75C17.5 11.9167 16.75 13.75 15.25 15.25C13.7167 16.75 11.8833 17.5 9.75 17.5C7.58333 17.5 5.73328 16.75 4.19995 15.25L4.25 15.25C2.75 13.75 2 11.9167 2 9.75C2 7.61667 2.75 5.8 4.25 4.3L4.25 4.3Z" id="Vector__expl2" fill="#FFD323" fill-rule="evenodd" stroke="none"/>
                    <path d="M4.25 4.35001L4.25 4.3C2.75 5.8 2 7.61667 2 9.75C2 11.9167 2.75 13.75 4.25 15.25L4.19995 15.25C5.73328 16.75 7.58333 17.5 9.75 17.5C11.8833 17.5 13.7167 16.75 15.25 15.25C16.75 13.75 17.5 11.9167 17.5 9.75C17.5 7.65 16.75 5.85001 15.25 4.35001C13.6833 2.78334 11.85 2 9.75 2C7.61667 2 5.78333 2.78334 4.25 4.35001L4.25 4.35001Z" id="Vector__expl2" fill="#FFCC00" fill-rule="evenodd" stroke="none"/>
                </g>
            </g>
        </g>
    </symbol>
    <symbol id="expl3" width="74.1001px" height="74.100006px" viewBox="0 0 74.1001 74.100006" xmlns="http://www.w3.org/2000/svg">
        <g id="expl3__expl3">
            <g id="Group__expl3">
                <g id="Layer0_97_MEMBER_0_FILL__expl3">
                    <path d="M26.05 4.55C25.1834 5.41667 24.4501 6.33334 23.8501 7.3C23.3501 7.26667 22.8334 7.25 22.3 7.25C18.1334 7.25 14.5834 8.71666 11.65 11.65C8.71669 14.5833 7.25 18.1333 7.25 22.3C7.25 22.8333 7.26672 23.35 7.30005 23.85C6.33338 24.45 5.41672 25.1833 4.55005 26.05C1.51672 29.0833 0 32.75 0 37.05C0 41.35 1.51672 45.0167 4.55005 48.05C5.41672 48.9167 6.33338 49.65 7.30005 50.25C7.26672 50.75 7.25 51.2667 7.25 51.8C7.25 55.9667 8.71669 59.5167 11.65 62.45C14.5834 65.4167 18.1334 66.9 22.3 66.9C22.8334 66.9 23.3501 66.8667 23.8501 66.8C24.4834 67.7667 25.2167 68.6833 26.05 69.55C29.0834 72.5833 32.75 74.1 37.05 74.1C41.35 74.1 45.0167 72.5833 48.05 69.55C48.9167 68.6833 49.65 67.7667 50.25 66.8C50.75 66.8667 51.2667 66.9 51.8 66.9C55.9667 66.9 59.5167 65.4167 62.4501 62.45C65.4167 59.5167 66.9 55.9667 66.9 51.8C66.9 51.2667 66.8667 50.75 66.8 50.25C67.7667 49.65 68.6834 48.9167 69.55 48.05C72.5834 45.0167 74.1001 41.35 74.1001 37.05C74.1001 32.75 72.5834 29.0833 69.55 26.05C68.6834 25.1833 67.7667 24.45 66.8 23.85C66.8667 23.35 66.9 22.8333 66.9 22.3C66.9 18.1333 65.4167 14.5833 62.4501 11.65C59.5167 8.71666 55.9667 7.25 51.8 7.25C51.3 7.25 50.8 7.26667 50.3 7.3C49.6667 6.33334 48.9167 5.41667 48.05 4.55C45.0167 1.51667 41.35 0 37.05 0C32.75 0 29.0834 1.51667 26.05 4.55L26.05 4.55ZM23.75 9.3C24.0833 9.33334 24.4167 9.26667 24.75 9.10001C25.0833 8.90001 25.35 8.65001 25.55 8.35001C26.0834 7.51667 26.7333 6.73333 27.5 6C30.1333 3.33333 33.3167 2 37.05 2C40.7834 2 43.9834 3.33333 46.65 6C47.4167 6.73333 48.0834 7.53333 48.65 8.39999C48.8167 8.69999 49.0667 8.93334 49.4 9.10001C49.7334 9.26667 50.0834 9.33334 50.4501 9.3C50.8834 9.26667 51.3334 9.25 51.8 9.25C55.4 9.25 58.4834 10.5333 61.05 13.1C63.6167 15.6333 64.9 18.7 64.9 22.3C64.9 22.7333 64.8834 23.1667 64.8501 23.6C64.7834 23.9667 64.8333 24.3333 65 24.7C65.1667 25.0667 65.4167 25.35 65.75 25.55C66.5833 26.0833 67.3834 26.7333 68.15 27.5C70.7834 30.1333 72.1001 33.3167 72.1001 37.05C72.1001 40.7833 70.7834 43.9833 68.15 46.65C67.3834 47.3833 66.5833 48.0167 65.75 48.55C65.4167 48.75 65.1667 49.0333 65 49.4C64.8333 49.7667 64.7834 50.15 64.8501 50.55C64.8834 50.95 64.9 51.3667 64.9 51.8C64.9 55.4 63.6167 58.4833 61.05 61.05C58.4834 63.6167 55.4 64.9 51.8 64.9C51.3667 64.9 50.9501 64.8833 50.55 64.85C50.15 64.7833 49.7667 64.8333 49.4 65C49.0334 65.1667 48.75 65.4167 48.55 65.75C48.0167 66.5833 47.3834 67.3833 46.65 68.15C43.9834 70.7833 40.7834 72.1 37.05 72.1C33.3167 72.1 30.1333 70.7833 27.5 68.15L27.5 68.2C26.7667 67.4 26.1167 66.5667 25.55 65.7C25.3167 65.3667 25.0334 65.1333 24.7001 65C24.3334 64.8333 23.9668 64.7833 23.6001 64.85C23.1668 64.8833 22.7334 64.9 22.3 64.9C18.7 64.9 15.6334 63.6167 13.1001 61.05C10.5334 58.4833 9.25 55.4 9.25 51.8C9.25 51.3 9.26672 50.8333 9.30005 50.4C9.33338 50.0333 9.26676 49.6833 9.1001 49.35C8.9001 49.0167 8.6501 48.75 8.3501 48.55C7.51676 48.0167 6.73333 47.3833 6 46.65C3.33333 43.9833 2 40.7833 2 37.05C2 33.3167 3.33333 30.1333 6 27.5C6.73333 26.7333 7.51676 26.0833 8.3501 25.55C8.6501 25.35 8.9001 25.0833 9.1001 24.75C9.26676 24.4167 9.33338 24.0833 9.30005 23.75C9.26672 23.2833 9.25 22.8 9.25 22.3C9.25 18.7 10.5334 15.6333 13.1001 13.1C15.6334 10.5333 18.7 9.25 22.3 9.25C22.8 9.25 23.2833 9.26667 23.75 9.3L23.75 9.3Z" id="Vector__expl3" fill="#FF5F4F" fill-rule="evenodd" stroke="none"/>
                    <path d="M24.75 9.10001C24.4167 9.26667 24.0833 9.33334 23.75 9.3C23.2833 9.26667 22.8 9.25 22.3 9.25C18.7 9.25 15.6334 10.5333 13.1001 13.1C10.5334 15.6333 9.25 18.7 9.25 22.3C9.25 22.8 9.26672 23.2833 9.30005 23.75C9.33338 24.0833 9.26676 24.4167 9.1001 24.75C8.9001 25.0833 8.6501 25.35 8.3501 25.55C7.51676 26.0833 6.73333 26.7333 6 27.5C3.33333 30.1333 2 33.3167 2 37.05C2 40.7833 3.33333 43.9833 6 46.65C6.73333 47.3833 7.51676 48.0167 8.3501 48.55C8.6501 48.75 8.9001 49.0167 9.1001 49.35C9.26676 49.6833 9.33338 50.0333 9.30005 50.4C9.26672 50.8333 9.25 51.3 9.25 51.8C9.25 55.4 10.5334 58.4833 13.1001 61.05C15.6334 63.6167 18.7 64.9 22.3 64.9C22.7334 64.9 23.1668 64.8833 23.6001 64.85C23.9668 64.7833 24.3334 64.8333 24.7001 65C25.0334 65.1333 25.3167 65.3667 25.55 65.7C26.1167 66.5667 26.7667 67.4 27.5 68.2L27.5 68.15C30.1333 70.7833 33.3167 72.1 37.05 72.1C40.7834 72.1 43.9834 70.7833 46.65 68.15C47.3834 67.3833 48.0167 66.5833 48.55 65.75C48.75 65.4167 49.0334 65.1667 49.4 65C49.7667 64.8333 50.15 64.7833 50.55 64.85C50.9501 64.8833 51.3667 64.9 51.8 64.9C55.4 64.9 58.4834 63.6167 61.05 61.05C63.6167 58.4833 64.9 55.4 64.9 51.8C64.9 51.3667 64.8834 50.95 64.8501 50.55C64.7834 50.15 64.8333 49.7667 65 49.4C65.1667 49.0333 65.4167 48.75 65.75 48.55C66.5833 48.0167 67.3834 47.3833 68.15 46.65C70.7834 43.9833 72.1001 40.7833 72.1001 37.05C72.1001 33.3167 70.7834 30.1333 68.15 27.5C67.3834 26.7333 66.5833 26.0833 65.75 25.55C65.4167 25.35 65.1667 25.0667 65 24.7C64.8333 24.3333 64.7834 23.9667 64.8501 23.6C64.8834 23.1667 64.9 22.7333 64.9 22.3C64.9 18.7 63.6167 15.6333 61.05 13.1C58.4834 10.5333 55.4 9.25 51.8 9.25C51.3334 9.25 50.8834 9.26667 50.4501 9.3C50.0834 9.33334 49.7334 9.26667 49.4 9.10001C49.0667 8.93334 48.8167 8.69999 48.65 8.39999C48.0834 7.53333 47.4167 6.73333 46.65 6C43.9834 3.33333 40.7834 2 37.05 2C33.3167 2 30.1333 3.33333 27.5 6C26.7333 6.73333 26.0834 7.51667 25.55 8.35001C25.35 8.65001 25.0833 8.90001 24.75 9.10001L24.75 9.10001Z" id="Vector__expl3" fill="#F75140" fill-rule="evenodd" stroke="none"/>
                </g>
            </g>
            <g id="Group-2__expl3" transform="translate(14 13)">
                <g id="Layer0_97_MEMBER_1_FILL__expl3">
                    <path d="M46.7 23.35C46.7 18.8167 44.4166 14.95 39.85 11.75C38.8833 11.05 37.8666 10.4333 36.7999 9.90001C36.2333 8.83334 35.6166 7.81667 34.95 6.85001C31.75 2.28334 27.8833 0 23.35 0C18.8166 0 14.95 2.28334 11.75 6.85001C11.05 7.81667 10.4334 8.83334 9.90002 9.90001C8.83336 10.4333 7.79993 11.05 6.79993 11.75C2.26659 14.95 0 18.8167 0 23.35C0 27.8833 2.26659 31.75 6.79993 34.95C7.79993 35.6167 8.83336 36.2333 9.90002 36.8C10.4334 37.8667 11.05 38.9 11.75 39.9C14.95 44.4333 18.8166 46.7 23.35 46.7C27.8833 46.7 31.75 44.4333 34.95 39.9C35.65 38.9 36.2666 37.8667 36.7999 36.8C37.8666 36.2667 38.8833 35.65 39.85 34.95C44.4166 31.75 46.7 27.8833 46.7 23.35L46.7 23.35Z" id="Vector__expl3" fill="#FF9900" fill-rule="evenodd" stroke="none"/>
                </g>
            </g>
            <g id="Group-3__expl3" transform="translate(33 2)">
                <g id="Layer0_97_MEMBER_2_MEMBER_0_FILL__expl3">
                    <path d="M1.09998 10.15C0.366642 16.9167 0 25.0833 0 34.65C0 44.2167 0.366642 52.3833 1.09998 59.15C1.83331 65.9167 2.71667 69.3 3.75 69.3C4.78333 69.3 5.66669 65.9167 6.40002 59.15C7.13336 52.3833 7.5 44.2167 7.5 34.65C7.5 25.0833 7.13336 16.9167 6.40002 10.15C5.66669 3.38334 4.78333 0 3.75 0C2.71667 0 1.83331 3.38334 1.09998 10.15L1.09998 10.15Z" id="Vector__expl3" fill="#FF9900" fill-rule="evenodd" stroke="none"/>
                </g>
            </g>
            <g id="Group-4__expl3" transform="translate(2 33)">
                <g id="Layer0_97_MEMBER_2_MEMBER_1_FILL__expl3">
                    <path d="M69.3 3.75C69.3 2.71667 65.9167 1.83332 59.15 1.09999C52.3834 0.366657 44.2167 0 34.65 0C25.0834 0 16.9167 0.366657 10.15 1.09999C3.38336 1.83332 0 2.71667 0 3.75C0 4.78333 3.38336 5.66666 10.15 6.39999C16.9167 7.13333 25.0834 7.5 34.65 7.5C44.2167 7.5 52.3834 7.13333 59.15 6.39999C65.9167 5.66666 69.3 4.78333 69.3 3.75L69.3 3.75Z" id="Vector__expl3" fill="#FF9900" fill-rule="evenodd" stroke="none"/>
                </g>
            </g>
            <g id="Group-5__expl3" transform="translate(24 23)">
                <g id="Layer0_97_MEMBER_3_FILL__expl3">
                    <path d="M26.65 13.35C26.65 9.65001 25.35 6.49999 22.75 3.89999C20.15 1.29999 17.0168 0 13.3501 0C9.6501 0 6.50002 1.29999 3.90002 3.89999C1.30002 6.49999 0 9.65001 0 13.35C0 17.0167 1.30002 20.15 3.90002 22.75C6.50002 25.35 9.6501 26.65 13.3501 26.65C17.0168 26.65 20.15 25.35 22.75 22.75C25.35 20.15 26.65 17.0167 26.65 13.35L26.65 13.35ZM21.3501 5.35001C23.5501 7.55001 24.65 10.2167 24.65 13.35C24.65 16.45 23.5501 19.1167 21.3501 21.35C19.1168 23.55 16.4501 24.65 13.3501 24.65C10.2168 24.65 7.5501 23.55 5.3501 21.35C3.11676 19.1167 2 16.45 2 13.35C2 10.2167 3.11676 7.55001 5.3501 5.35001C7.5501 3.11667 10.2168 2 13.3501 2C16.4501 2 19.1168 3.11667 21.3501 5.35001L21.3501 5.35001Z" id="Vector__expl3" fill="#FFD323" fill-rule="evenodd" stroke="none"/>
                    <path d="M24.65 13.35C24.65 10.2167 23.5501 7.55001 21.3501 5.35001C19.1168 3.11667 16.4501 2 13.3501 2C10.2168 2 7.5501 3.11667 5.3501 5.35001C3.11676 7.55001 2 10.2167 2 13.35C2 16.45 3.11676 19.1167 5.3501 21.35C7.5501 23.55 10.2168 24.65 13.3501 24.65C16.4501 24.65 19.1168 23.55 21.3501 21.35C23.5501 19.1167 24.65 16.45 24.65 13.35L24.65 13.35Z" id="Vector__expl3" fill="#FFCC00" fill-rule="evenodd" stroke="none"/>
                </g>
            </g>
        </g>
    </symbol>
</svg>