<?xml version="1.0" encoding="utf-8"?>
<svg width="74.1001px" height="74.100006px" viewBox="0 0 74.1001 74.100006" version="1.1" xmlns:xlink="http://www.w3.org/1999/xlink" xmlns="http://www.w3.org/2000/svg">
  <g id="expl3">
    <g id="Group">
      <g id="Layer0_97_MEMBER_0_FILL">
        <path d="M26.05 4.55C25.1834 5.41667 24.4501 6.33334 23.8501 7.3C23.3501 7.26667 22.8334 7.25 22.3 7.25C18.1334 7.25 14.5834 8.71666 11.65 11.65C8.71669 14.5833 7.25 18.1333 7.25 22.3C7.25 22.8333 7.26672 23.35 7.30005 23.85C6.33338 24.45 5.41672 25.1833 4.55005 26.05C1.51672 29.0833 0 32.75 0 37.05C0 41.35 1.51672 45.0167 4.55005 48.05C5.41672 48.9167 6.33338 49.65 7.30005 50.25C7.26672 50.75 7.25 51.2667 7.25 51.8C7.25 55.9667 8.71669 59.5167 11.65 62.45C14.5834 65.4167 18.1334 66.9 22.3 66.9C22.8334 66.9 23.3501 66.8667 23.8501 66.8C24.4834 67.7667 25.2167 68.6833 26.05 69.55C29.0834 72.5833 32.75 74.1 37.05 74.1C41.35 74.1 45.0167 72.5833 48.05 69.55C48.9167 68.6833 49.65 67.7667 50.25 66.8C50.75 66.8667 51.2667 66.9 51.8 66.9C55.9667 66.9 59.5167 65.4167 62.4501 62.45C65.4167 59.5167 66.9 55.9667 66.9 51.8C66.9 51.2667 66.8667 50.75 66.8 50.25C67.7667 49.65 68.6834 48.9167 69.55 48.05C72.5834 45.0167 74.1001 41.35 74.1001 37.05C74.1001 32.75 72.5834 29.0833 69.55 26.05C68.6834 25.1833 67.7667 24.45 66.8 23.85C66.8667 23.35 66.9 22.8333 66.9 22.3C66.9 18.1333 65.4167 14.5833 62.4501 11.65C59.5167 8.71666 55.9667 7.25 51.8 7.25C51.3 7.25 50.8 7.26667 50.3 7.3C49.6667 6.33334 48.9167 5.41667 48.05 4.55C45.0167 1.51667 41.35 0 37.05 0C32.75 0 29.0834 1.51667 26.05 4.55L26.05 4.55ZM23.75 9.3C24.0833 9.33334 24.4167 9.26667 24.75 9.10001C25.0833 8.90001 25.35 8.65001 25.55 8.35001C26.0834 7.51667 26.7333 6.73333 27.5 6C30.1333 3.33333 33.3167 2 37.05 2C40.7834 2 43.9834 3.33333 46.65 6C47.4167 6.73333 48.0834 7.53333 48.65 8.39999C48.8167 8.69999 49.0667 8.93334 49.4 9.10001C49.7334 9.26667 50.0834 9.33334 50.4501 9.3C50.8834 9.26667 51.3334 9.25 51.8 9.25C55.4 9.25 58.4834 10.5333 61.05 13.1C63.6167 15.6333 64.9 18.7 64.9 22.3C64.9 22.7333 64.8834 23.1667 64.8501 23.6C64.7834 23.9667 64.8333 24.3333 65 24.7C65.1667 25.0667 65.4167 25.35 65.75 25.55C66.5833 26.0833 67.3834 26.7333 68.15 27.5C70.7834 30.1333 72.1001 33.3167 72.1001 37.05C72.1001 40.7833 70.7834 43.9833 68.15 46.65C67.3834 47.3833 66.5833 48.0167 65.75 48.55C65.4167 48.75 65.1667 49.0333 65 49.4C64.8333 49.7667 64.7834 50.15 64.8501 50.55C64.8834 50.95 64.9 51.3667 64.9 51.8C64.9 55.4 63.6167 58.4833 61.05 61.05C58.4834 63.6167 55.4 64.9 51.8 64.9C51.3667 64.9 50.9501 64.8833 50.55 64.85C50.15 64.7833 49.7667 64.8333 49.4 65C49.0334 65.1667 48.75 65.4167 48.55 65.75C48.0167 66.5833 47.3834 67.3833 46.65 68.15C43.9834 70.7833 40.7834 72.1 37.05 72.1C33.3167 72.1 30.1333 70.7833 27.5 68.15L27.5 68.2C26.7667 67.4 26.1167 66.5667 25.55 65.7C25.3167 65.3667 25.0334 65.1333 24.7001 65C24.3334 64.8333 23.9668 64.7833 23.6001 64.85C23.1668 64.8833 22.7334 64.9 22.3 64.9C18.7 64.9 15.6334 63.6167 13.1001 61.05C10.5334 58.4833 9.25 55.4 9.25 51.8C9.25 51.3 9.26672 50.8333 9.30005 50.4C9.33338 50.0333 9.26676 49.6833 9.1001 49.35C8.9001 49.0167 8.6501 48.75 8.3501 48.55C7.51676 48.0167 6.73333 47.3833 6 46.65C3.33333 43.9833 2 40.7833 2 37.05C2 33.3167 3.33333 30.1333 6 27.5C6.73333 26.7333 7.51676 26.0833 8.3501 25.55C8.6501 25.35 8.9001 25.0833 9.1001 24.75C9.26676 24.4167 9.33338 24.0833 9.30005 23.75C9.26672 23.2833 9.25 22.8 9.25 22.3C9.25 18.7 10.5334 15.6333 13.1001 13.1C15.6334 10.5333 18.7 9.25 22.3 9.25C22.8 9.25 23.2833 9.26667 23.75 9.3L23.75 9.3Z" id="Vector" fill="#FF5F4F" fill-rule="evenodd" stroke="none" />
        <path d="M24.75 9.10001C24.4167 9.26667 24.0833 9.33334 23.75 9.3C23.2833 9.26667 22.8 9.25 22.3 9.25C18.7 9.25 15.6334 10.5333 13.1001 13.1C10.5334 15.6333 9.25 18.7 9.25 22.3C9.25 22.8 9.26672 23.2833 9.30005 23.75C9.33338 24.0833 9.26676 24.4167 9.1001 24.75C8.9001 25.0833 8.6501 25.35 8.3501 25.55C7.51676 26.0833 6.73333 26.7333 6 27.5C3.33333 30.1333 2 33.3167 2 37.05C2 40.7833 3.33333 43.9833 6 46.65C6.73333 47.3833 7.51676 48.0167 8.3501 48.55C8.6501 48.75 8.9001 49.0167 9.1001 49.35C9.26676 49.6833 9.33338 50.0333 9.30005 50.4C9.26672 50.8333 9.25 51.3 9.25 51.8C9.25 55.4 10.5334 58.4833 13.1001 61.05C15.6334 63.6167 18.7 64.9 22.3 64.9C22.7334 64.9 23.1668 64.8833 23.6001 64.85C23.9668 64.7833 24.3334 64.8333 24.7001 65C25.0334 65.1333 25.3167 65.3667 25.55 65.7C26.1167 66.5667 26.7667 67.4 27.5 68.2L27.5 68.15C30.1333 70.7833 33.3167 72.1 37.05 72.1C40.7834 72.1 43.9834 70.7833 46.65 68.15C47.3834 67.3833 48.0167 66.5833 48.55 65.75C48.75 65.4167 49.0334 65.1667 49.4 65C49.7667 64.8333 50.15 64.7833 50.55 64.85C50.9501 64.8833 51.3667 64.9 51.8 64.9C55.4 64.9 58.4834 63.6167 61.05 61.05C63.6167 58.4833 64.9 55.4 64.9 51.8C64.9 51.3667 64.8834 50.95 64.8501 50.55C64.7834 50.15 64.8333 49.7667 65 49.4C65.1667 49.0333 65.4167 48.75 65.75 48.55C66.5833 48.0167 67.3834 47.3833 68.15 46.65C70.7834 43.9833 72.1001 40.7833 72.1001 37.05C72.1001 33.3167 70.7834 30.1333 68.15 27.5C67.3834 26.7333 66.5833 26.0833 65.75 25.55C65.4167 25.35 65.1667 25.0667 65 24.7C64.8333 24.3333 64.7834 23.9667 64.8501 23.6C64.8834 23.1667 64.9 22.7333 64.9 22.3C64.9 18.7 63.6167 15.6333 61.05 13.1C58.4834 10.5333 55.4 9.25 51.8 9.25C51.3334 9.25 50.8834 9.26667 50.4501 9.3C50.0834 9.33334 49.7334 9.26667 49.4 9.10001C49.0667 8.93334 48.8167 8.69999 48.65 8.39999C48.0834 7.53333 47.4167 6.73333 46.65 6C43.9834 3.33333 40.7834 2 37.05 2C33.3167 2 30.1333 3.33333 27.5 6C26.7333 6.73333 26.0834 7.51667 25.55 8.35001C25.35 8.65001 25.0833 8.90001 24.75 9.10001L24.75 9.10001Z" id="Vector" fill="#F75140" fill-rule="evenodd" stroke="none" />
      </g>
    </g>
    <g id="Group-2" transform="translate(14 13)">
      <g id="Layer0_97_MEMBER_1_FILL">
        <path d="M46.7 23.35C46.7 18.8167 44.4166 14.95 39.85 11.75C38.8833 11.05 37.8666 10.4333 36.7999 9.90001C36.2333 8.83334 35.6166 7.81667 34.95 6.85001C31.75 2.28334 27.8833 0 23.35 0C18.8166 0 14.95 2.28334 11.75 6.85001C11.05 7.81667 10.4334 8.83334 9.90002 9.90001C8.83336 10.4333 7.79993 11.05 6.79993 11.75C2.26659 14.95 0 18.8167 0 23.35C0 27.8833 2.26659 31.75 6.79993 34.95C7.79993 35.6167 8.83336 36.2333 9.90002 36.8C10.4334 37.8667 11.05 38.9 11.75 39.9C14.95 44.4333 18.8166 46.7 23.35 46.7C27.8833 46.7 31.75 44.4333 34.95 39.9C35.65 38.9 36.2666 37.8667 36.7999 36.8C37.8666 36.2667 38.8833 35.65 39.85 34.95C44.4166 31.75 46.7 27.8833 46.7 23.35L46.7 23.35Z" id="Vector" fill="#FF9900" fill-rule="evenodd" stroke="none" />
      </g>
    </g>
    <g id="Group-3" transform="translate(33 2)">
      <g id="Layer0_97_MEMBER_2_MEMBER_0_FILL">
        <path d="M1.09998 10.15C0.366642 16.9167 0 25.0833 0 34.65C0 44.2167 0.366642 52.3833 1.09998 59.15C1.83331 65.9167 2.71667 69.3 3.75 69.3C4.78333 69.3 5.66669 65.9167 6.40002 59.15C7.13336 52.3833 7.5 44.2167 7.5 34.65C7.5 25.0833 7.13336 16.9167 6.40002 10.15C5.66669 3.38334 4.78333 0 3.75 0C2.71667 0 1.83331 3.38334 1.09998 10.15L1.09998 10.15Z" id="Vector" fill="#FF9900" fill-rule="evenodd" stroke="none" />
      </g>
    </g>
    <g id="Group-4" transform="translate(2 33)">
      <g id="Layer0_97_MEMBER_2_MEMBER_1_FILL">
        <path d="M69.3 3.75C69.3 2.71667 65.9167 1.83332 59.15 1.09999C52.3834 0.366657 44.2167 0 34.65 0C25.0834 0 16.9167 0.366657 10.15 1.09999C3.38336 1.83332 0 2.71667 0 3.75C0 4.78333 3.38336 5.66666 10.15 6.39999C16.9167 7.13333 25.0834 7.5 34.65 7.5C44.2167 7.5 52.3834 7.13333 59.15 6.39999C65.9167 5.66666 69.3 4.78333 69.3 3.75L69.3 3.75Z" id="Vector" fill="#FF9900" fill-rule="evenodd" stroke="none" />
      </g>
    </g>
    <g id="Group-5" transform="translate(24 23)">
      <g id="Layer0_97_MEMBER_3_FILL">
        <path d="M26.65 13.35C26.65 9.65001 25.35 6.49999 22.75 3.89999C20.15 1.29999 17.0168 0 13.3501 0C9.6501 0 6.50002 1.29999 3.90002 3.89999C1.30002 6.49999 0 9.65001 0 13.35C0 17.0167 1.30002 20.15 3.90002 22.75C6.50002 25.35 9.6501 26.65 13.3501 26.65C17.0168 26.65 20.15 25.35 22.75 22.75C25.35 20.15 26.65 17.0167 26.65 13.35L26.65 13.35ZM21.3501 5.35001C23.5501 7.55001 24.65 10.2167 24.65 13.35C24.65 16.45 23.5501 19.1167 21.3501 21.35C19.1168 23.55 16.4501 24.65 13.3501 24.65C10.2168 24.65 7.5501 23.55 5.3501 21.35C3.11676 19.1167 2 16.45 2 13.35C2 10.2167 3.11676 7.55001 5.3501 5.35001C7.5501 3.11667 10.2168 2 13.3501 2C16.4501 2 19.1168 3.11667 21.3501 5.35001L21.3501 5.35001Z" id="Vector" fill="#FFD323" fill-rule="evenodd" stroke="none" />
        <path d="M24.65 13.35C24.65 10.2167 23.5501 7.55001 21.3501 5.35001C19.1168 3.11667 16.4501 2 13.3501 2C10.2168 2 7.5501 3.11667 5.3501 5.35001C3.11676 7.55001 2 10.2167 2 13.35C2 16.45 3.11676 19.1167 5.3501 21.35C7.5501 23.55 10.2168 24.65 13.3501 24.65C16.4501 24.65 19.1168 23.55 21.3501 21.35C23.5501 19.1167 24.65 16.45 24.65 13.35L24.65 13.35Z" id="Vector" fill="#FFCC00" fill-rule="evenodd" stroke="none" />
      </g>
    </g>
  </g>
</svg>