<?xml version="1.0" encoding="utf-8"?>
<svg width="59.100098px" height="59.100006px" viewBox="0 0 59.100098 59.100006" version="1.1" xmlns:xlink="http://www.w3.org/1999/xlink" xmlns="http://www.w3.org/2000/svg">
  <g id="expl2">
    <g id="Group-8">
      <g id="Layer0_99_MEMBER_0_FILL">
        <path d="M41.3 5.75C40.9 5.75 40.5167 5.76667 40.15 5.8C39.6167 5.03334 39.0168 4.30001 38.3501 3.60001C35.9168 1.20001 32.9834 -1.42109e-14 29.55 -1.42109e-14C26.1167 -1.42109e-14 23.2 1.20001 20.8 3.60001C20.1 4.30001 19.5167 5.03334 19.05 5.8C18.65 5.76667 18.2334 5.75 17.8 5.75C14.4667 5.75 11.6334 6.91667 9.30005 9.25C6.96672 11.6167 5.80005 14.45 5.80005 17.75C5.80005 18.1833 5.81676 18.6 5.8501 19C5.0501 19.4667 4.31669 20.05 3.65002 20.75C1.21669 23.1833 0 26.1167 0 29.55C0 32.9833 1.21669 35.9 3.65002 38.3C4.31669 39 5.0501 39.5833 5.8501 40.05C5.81676 40.45 5.80005 40.8667 5.80005 41.3C5.80005 44.6333 6.96672 47.4667 9.30005 49.8C11.6334 52.1667 14.4667 53.35 17.8 53.35C18.2334 53.35 18.65 53.3167 19.05 53.25C19.55 54.0167 20.1334 54.75 20.8 55.45C23.2 57.8833 26.1167 59.1 29.55 59.1C32.9834 59.1 35.9168 57.8833 38.3501 55.45C39.0168 54.75 39.6001 54.0167 40.1001 53.25C40.5001 53.3167 40.9 53.35 41.3 53.35C44.6334 53.35 47.4667 52.1667 49.8 49.8C52.1667 47.4667 53.3501 44.6333 53.3501 41.3C53.3501 40.8667 53.3334 40.45 53.3 40.05C54.0667 39.5833 54.8 39 55.5 38.3C57.9 35.9 59.1001 32.9833 59.1001 29.55C59.1001 26.1167 57.9 23.1833 55.5 20.75C54.8 20.05 54.0667 19.4667 53.3 19C53.3334 18.6 53.3501 18.1833 53.3501 17.75C53.3501 14.45 52.1667 11.6167 49.8 9.25C47.4667 6.91667 44.6334 5.75 41.3 5.75L41.3 5.75ZM40.3501 7.8C40.6501 7.76667 40.9667 7.75 41.3 7.75C44.0667 7.75 46.4334 8.73334 48.4 10.7C50.3667 12.6667 51.3501 15.0167 51.3501 17.75C51.3501 18.1167 51.3334 18.4833 51.3 18.85C51.2667 19.2167 51.35 19.5667 51.55 19.9C51.7167 20.2333 51.95 20.5 52.25 20.7C52.8833 21.1 53.5001 21.6 54.1001 22.2L54.1001 22.15C56.1001 24.1833 57.1001 26.65 57.1001 29.55C57.1001 32.4167 56.1001 34.8667 54.1001 36.9C53.5001 37.4667 52.8833 37.95 52.25 38.35C51.95 38.55 51.7167 38.8167 51.55 39.15C51.35 39.4833 51.2667 39.85 51.3 40.25C51.3334 40.5833 51.3501 40.9333 51.3501 41.3C51.3501 44.0667 50.3667 46.4333 48.4 48.4C46.4334 50.3667 44.0667 51.35 41.3 51.35C41 51.35 40.7167 51.3333 40.4501 51.3C40.0501 51.2333 39.6667 51.2833 39.3 51.45C38.9334 51.5833 38.6501 51.8167 38.4501 52.15C37.9834 52.7833 37.4834 53.4167 36.9501 54.05C36.9167 54.05 36.9 54.0667 36.9 54.1C34.8334 56.1 32.3834 57.1 29.55 57.1C26.6834 57.1 24.25 56.1 22.25 54.1L22.25 54.05C21.65 53.45 21.15 52.8167 20.75 52.15C20.5167 51.8167 20.2168 51.5833 19.8501 51.45C19.4834 51.2833 19.1167 51.2333 18.75 51.3C18.45 51.3333 18.1334 51.35 17.8 51.35C15.0334 51.35 12.6833 50.3667 10.75 48.4C8.78333 46.4333 7.80005 44.0667 7.80005 41.3C7.80005 40.9333 7.81676 40.5833 7.8501 40.25C7.88343 39.85 7.81669 39.4833 7.65002 39.15C7.45002 38.7833 7.18343 38.5167 6.8501 38.35C6.21676 37.95 5.63343 37.4833 5.1001 36.95C5.1001 36.9167 5.08338 36.9 5.05005 36.9C3.01672 34.8667 2 32.4167 2 29.55C2 26.6833 3.03343 24.2333 5.1001 22.2L5.1001 22.15C5.63343 21.5833 6.21676 21.1167 6.8501 20.75C7.18343 20.55 7.45002 20.2833 7.65002 19.95C7.81669 19.5833 7.88343 19.2167 7.8501 18.85C7.81676 18.4833 7.80005 18.1167 7.80005 17.75C7.80005 14.9833 8.78333 12.6167 10.75 10.65L10.75 10.7C12.6833 8.73334 15.0334 7.75 17.8 7.75C18.1667 7.75 18.5334 7.76667 18.9 7.8C19.2667 7.83334 19.6167 7.76667 19.9501 7.60001C20.2834 7.40001 20.55 7.15001 20.75 6.85001C21.15 6.21667 21.65 5.61667 22.25 5.05C24.25 3.01667 26.6834 2 29.55 2C32.4167 2 34.8667 3 36.9 5L36.9501 5.05C37.5167 5.65 38.0333 6.28334 38.5 6.95C38.7 7.25 38.9667 7.46667 39.3 7.60001C39.6334 7.76667 39.9834 7.83334 40.3501 7.8L40.3501 7.8Z" id="Vector" fill="#FF5F4F" fill-rule="evenodd" stroke="none" />
        <path d="M41.3 7.75C40.9667 7.75 40.6501 7.76667 40.3501 7.8C39.9834 7.83334 39.6334 7.76667 39.3 7.60001C38.9667 7.46667 38.7 7.25 38.5 6.95C38.0333 6.28334 37.5167 5.65 36.9501 5.05L36.9 5C34.8667 3 32.4167 2 29.55 2C26.6834 2 24.25 3.01667 22.25 5.05C21.65 5.61667 21.15 6.21667 20.75 6.85001C20.55 7.15001 20.2834 7.40001 19.9501 7.60001C19.6167 7.76667 19.2667 7.83334 18.9 7.8C18.5334 7.76667 18.1667 7.75 17.8 7.75C15.0334 7.75 12.6833 8.73334 10.75 10.7L10.75 10.65C8.78333 12.6167 7.80005 14.9833 7.80005 17.75C7.80005 18.1167 7.81676 18.4833 7.8501 18.85C7.88343 19.2167 7.81669 19.5833 7.65002 19.95C7.45002 20.2833 7.18343 20.55 6.8501 20.75C6.21676 21.1167 5.63343 21.5833 5.1001 22.15L5.1001 22.2C3.03343 24.2333 2 26.6833 2 29.55C2 32.4167 3.01672 34.8667 5.05005 36.9C5.08338 36.9 5.1001 36.9167 5.1001 36.95C5.63343 37.4833 6.21676 37.95 6.8501 38.35C7.18343 38.5167 7.45002 38.7833 7.65002 39.15C7.81669 39.4833 7.88343 39.85 7.8501 40.25C7.81676 40.5833 7.80005 40.9333 7.80005 41.3C7.80005 44.0667 8.78333 46.4333 10.75 48.4C12.6833 50.3667 15.0334 51.35 17.8 51.35C18.1334 51.35 18.45 51.3333 18.75 51.3C19.1167 51.2333 19.4834 51.2833 19.8501 51.45C20.2168 51.5833 20.5167 51.8167 20.75 52.15C21.15 52.8167 21.65 53.45 22.25 54.05L22.25 54.1C24.25 56.1 26.6834 57.1 29.55 57.1C32.3834 57.1 34.8334 56.1 36.9 54.1C36.9 54.0667 36.9167 54.05 36.9501 54.05C37.4834 53.4167 37.9834 52.7833 38.4501 52.15C38.6501 51.8167 38.9334 51.5833 39.3 51.45C39.6667 51.2833 40.0501 51.2333 40.4501 51.3C40.7167 51.3333 41 51.35 41.3 51.35C44.0667 51.35 46.4334 50.3667 48.4 48.4C50.3667 46.4333 51.3501 44.0667 51.3501 41.3C51.3501 40.9333 51.3334 40.5833 51.3 40.25C51.2667 39.85 51.35 39.4833 51.55 39.15C51.7167 38.8167 51.95 38.55 52.25 38.35C52.8833 37.95 53.5001 37.4667 54.1001 36.9C56.1001 34.8667 57.1001 32.4167 57.1001 29.55C57.1001 26.65 56.1001 24.1833 54.1001 22.15L54.1001 22.2C53.5001 21.6 52.8833 21.1 52.25 20.7C51.95 20.5 51.7167 20.2333 51.55 19.9C51.35 19.5667 51.2667 19.2167 51.3 18.85C51.3334 18.4833 51.3501 18.1167 51.3501 17.75C51.3501 15.0167 50.3667 12.6667 48.4 10.7C46.4334 8.73334 44.0667 7.75 41.3 7.75L41.3 7.75Z" id="Vector" fill="#F75140" fill-rule="evenodd" stroke="none" />
      </g>
    </g>
    <g id="Group-9" transform="translate(13 13)">
      <g id="Layer0_99_MEMBER_1_FILL">
        <path d="M13.4324 0.285148C9.03237 -0.481518 5.54908 0.401817 2.98242 2.93515C0.415749 5.50182 -0.467609 8.98515 0.332392 13.3851C0.465725 14.3185 0.682416 15.2351 0.982416 16.1351C0.682416 17.0351 0.449009 17.9852 0.282343 18.9852C-0.517657 23.3518 0.382416 26.8185 2.98242 29.3851C5.51575 31.9518 8.99903 32.8685 13.4324 32.1351C14.399 31.9018 15.3157 31.6351 16.1824 31.3351C17.1157 31.7018 18.0657 31.9352 19.0323 32.0352C23.399 32.8018 26.8657 31.9018 29.4324 29.3351C31.999 26.8018 32.899 23.3351 32.1323 18.9352C31.9657 18.0018 31.7157 17.0685 31.3823 16.1351C31.7157 15.2351 31.9491 14.3351 32.0824 13.4352C32.8491 9.00182 31.9657 5.50182 29.4324 2.93515C26.8324 0.368483 23.3324 -0.514851 18.9324 0.285148C17.999 0.418482 17.0824 0.63515 16.1824 0.93515C15.2824 0.63515 14.3657 0.418482 13.4324 0.285148L13.4324 0.285148Z" id="Vector" fill="#FF9900" fill-rule="evenodd" stroke="none" />
      </g>
    </g>
    <g id="Group-10" transform="translate(7 8)">
      <g id="Layer0_99_MEMBER_2_MEMBER_0_FILL">
        <path d="M35.1388 4.78779C30.4722 8.55445 25.1722 13.4045 19.2388 19.3378C13.3055 25.2711 8.47216 30.5545 4.73882 35.1878C1.03882 39.8545 -0.494486 42.5045 0.138848 43.1378C0.772181 43.8045 3.40542 42.2545 8.03875 38.4878C12.6721 34.7545 17.9555 29.9211 23.8888 23.9878C29.8222 18.0545 34.6721 12.7544 38.4388 8.08778C42.1721 3.45445 43.7221 0.804453 43.0888 0.137786C42.4555 -0.495547 39.8055 1.05445 35.1388 4.78779L35.1388 4.78779Z" id="Vector" fill="#FF9900" fill-rule="evenodd" stroke="none" />
      </g>
    </g>
    <g id="Group-11" transform="translate(7 8)">
      <g id="Layer0_99_MEMBER_2_MEMBER_1_FILL">
        <path d="M4.78781 8.03884C8.55448 12.6722 13.4044 17.9555 19.3377 23.8888C25.2711 29.8222 30.5545 34.6722 35.1878 38.4389C39.8545 42.1722 42.5044 43.7222 43.1378 43.0888C43.8045 42.4555 42.2544 39.8055 38.4878 35.1388C34.7544 30.4722 29.9211 25.1722 23.9878 19.2388C18.0544 13.3055 12.7544 8.47218 8.08774 4.73884C3.4544 1.03884 0.804452 -0.494487 0.137785 0.138846C-0.495548 0.77218 1.05448 3.40551 4.78781 8.03884L4.78781 8.03884Z" id="Vector" fill="#FF9900" fill-rule="evenodd" stroke="none" />
      </g>
    </g>
    <g id="Group-12" transform="translate(19 20)">
      <g id="Layer0_99_MEMBER_3_FILL">
        <path d="M0 9.75C0 12.4833 0.933382 14.7833 2.80005 16.65C4.73338 18.55 7.05 19.5 9.75 19.5C12.4167 19.5 14.7167 18.55 16.65 16.65C18.55 14.7833 19.5 12.4833 19.5 9.75C19.5 7.08333 18.55 4.79999 16.65 2.89999C14.7167 0.966663 12.4167 0 9.75 0C7.05 0 4.73338 0.966661 2.80005 2.89999C0.933382 4.79999 0 7.08333 0 9.75L0 9.75ZM4.25 4.3L4.25 4.35001C5.78333 2.78334 7.61667 2 9.75 2C11.85 2 13.6833 2.78334 15.25 4.35001C16.75 5.85001 17.5 7.65 17.5 9.75C17.5 11.9167 16.75 13.75 15.25 15.25C13.7167 16.75 11.8833 17.5 9.75 17.5C7.58333 17.5 5.73328 16.75 4.19995 15.25L4.25 15.25C2.75 13.75 2 11.9167 2 9.75C2 7.61667 2.75 5.8 4.25 4.3L4.25 4.3Z" id="Vector" fill="#FFD323" fill-rule="evenodd" stroke="none" />
        <path d="M4.25 4.35001L4.25 4.3C2.75 5.8 2 7.61667 2 9.75C2 11.9167 2.75 13.75 4.25 15.25L4.19995 15.25C5.73328 16.75 7.58333 17.5 9.75 17.5C11.8833 17.5 13.7167 16.75 15.25 15.25C16.75 13.75 17.5 11.9167 17.5 9.75C17.5 7.65 16.75 5.85001 15.25 4.35001C13.6833 2.78334 11.85 2 9.75 2C7.61667 2 5.78333 2.78334 4.25 4.35001L4.25 4.35001Z" id="Vector" fill="#FFCC00" fill-rule="evenodd" stroke="none" />
      </g>
    </g>
  </g>
</svg>