<?xml version="1.0" encoding="utf-8"?>
<svg width="40.399902px" height="40.450012px" viewBox="0 0 40.399902 40.450012" version="1.1" xmlns:xlink="http://www.w3.org/1999/xlink" xmlns="http://www.w3.org/2000/svg">
  <g id="expl1">
    <g id="Group-6">
      <g id="Layer0_98_MEMBER_0_FILL">
        <path d="M40.3999 20.2C40.3999 17.5333 39.4832 15.1167 37.6499 12.95C37.4499 10.15 36.4166 7.81667 34.5499 5.95C32.6499 4.05 30.3 3 27.5 2.8C25.3333 0.933333 22.9167 -1.42109e-14 20.25 -1.42109e-14C17.55 -1.42109e-14 15.1333 0.933333 13 2.8C10.1667 3 7.81662 4.03333 5.94995 5.9C4.01662 7.83333 2.95 10.2 2.75 13C0.916667 15.1333 0 17.5333 0 20.2C0 22.8667 0.916667 25.25 2.75 27.35C2.95 30.2167 4.01662 32.6167 5.94995 34.55C7.81662 36.4167 10.1833 37.4667 13.0499 37.7C15.1499 39.5333 17.55 40.45 20.25 40.45C22.9167 40.45 25.3333 39.5167 27.5 37.65C30.2667 37.4167 32.6 36.35 34.5 34.45C36.3667 32.5833 37.4166 30.25 37.6499 27.45C39.4832 25.3167 40.3999 22.9 40.3999 20.2L40.3999 20.2ZM36.1499 14.25C37.6499 16.0167 38.3999 18 38.3999 20.2C38.3999 22.4 37.6499 24.3833 36.1499 26.15C35.8499 26.4833 35.6832 26.8667 35.6499 27.3C35.4499 29.5667 34.6 31.4833 33.1 33.05C31.5333 34.5833 29.6166 35.45 27.35 35.65C26.9166 35.6833 26.5333 35.85 26.2 36.15C24.4333 37.6833 22.45 38.45 20.25 38.45C18.05 38.45 16.0999 37.7 14.3999 36.2C14.0332 35.9 13.6333 35.7333 13.2 35.7C10.8666 35.5 8.93324 34.65 7.3999 33.15C5.7999 31.55 4.91667 29.5667 4.75 27.2C4.71667 26.7667 4.55 26.3833 4.25 26.05C2.75 24.3167 2 22.3667 2 20.2C2 18 2.76659 16.0333 4.29993 14.3C4.56659 13.9667 4.71667 13.5833 4.75 13.15C4.91667 10.85 5.7999 8.91667 7.3999 7.35C8.8999 5.81667 10.8166 4.96667 13.1499 4.8C13.5832 4.76667 13.9833 4.6 14.35 4.3C16.0833 2.76667 18.05 2 20.25 2C22.45 2 24.4333 2.78333 26.2 4.35C26.5333 4.61667 26.9166 4.76667 27.35 4.8C29.65 4.96667 31.5832 5.83333 33.1499 7.4C34.6499 8.9 35.4832 10.8 35.6499 13.1C35.6832 13.5333 35.8499 13.9167 36.1499 14.25L36.1499 14.25Z" id="Vector" fill="#FF5F4F" fill-rule="evenodd" stroke="none" />
        <path d="M38.3999 20.2C38.3999 18 37.6499 16.0167 36.1499 14.25C35.8499 13.9167 35.6832 13.5333 35.6499 13.1C35.4832 10.8 34.6499 8.9 33.1499 7.4C31.5832 5.83333 29.65 4.96667 27.35 4.8C26.9166 4.76667 26.5333 4.61667 26.2 4.35C24.4333 2.78333 22.45 2 20.25 2C18.05 2 16.0833 2.76667 14.35 4.3C13.9833 4.6 13.5832 4.76667 13.1499 4.8C10.8166 4.96667 8.8999 5.81667 7.3999 7.35C5.7999 8.91667 4.91667 10.85 4.75 13.15C4.71667 13.5833 4.56659 13.9667 4.29993 14.3C2.76659 16.0333 2 18 2 20.2C2 22.3667 2.75 24.3167 4.25 26.05C4.55 26.3833 4.71667 26.7667 4.75 27.2C4.91667 29.5667 5.7999 31.55 7.3999 33.15C8.93324 34.65 10.8666 35.5 13.2 35.7C13.6333 35.7333 14.0332 35.9 14.3999 36.2C16.0999 37.7 18.05 38.45 20.25 38.45C22.45 38.45 24.4333 37.6833 26.2 36.15C26.5333 35.85 26.9166 35.6833 27.35 35.65C29.6166 35.45 31.5333 34.5833 33.1 33.05C34.6 31.4833 35.4499 29.5667 35.6499 27.3C35.6832 26.8667 35.8499 26.4833 36.1499 26.15C37.6499 24.3833 38.3999 22.4 38.3999 20.2L38.3999 20.2Z" id="Vector" fill="#F75140" fill-rule="evenodd" stroke="none" />
      </g>
    </g>
    <g id="Group-7" transform="translate(13 14)">
      <g id="Layer0_98_MEMBER_1_FILL">
        <path d="M11.4501 11.5C12.7834 10.2 13.4501 8.61667 13.4501 6.75C13.4501 4.88333 12.7834 3.3 11.4501 2C10.1501 0.666667 8.56674 0 6.70007 0C4.83341 0 3.23336 0.666667 1.90002 2C0.633358 3.3 0 4.88333 0 6.75C0 8.61667 0.633358 10.2 1.90002 11.5C3.23336 12.8333 4.83341 13.5 6.70007 13.5C8.56674 13.5 10.1501 12.8333 11.4501 11.5L11.4501 11.5Z" id="Vector" fill="#FFCC00" fill-rule="evenodd" stroke="none" />
      </g>
    </g>
  </g>
</svg>