<svg width="0" height="0" fill="none" style="visibility: hidden; position: absolute;" aria-hidden="true">
    <symbol id="ava0" width="200px" height="200px" viewBox="0 0 200 200" xmlns="http://www.w3.org/2000/svg">
        <defs>
            <linearGradient gradientUnits="objectBoundingBox" x1="0.5" y1="1" x2="0.5" y2="0" id="gradient_1__ava0">
                <stop offset="0%" stop-color="#E6864E"/>
                <stop offset="100%" stop-color="#E67240"/>
            </linearGradient>
            <linearGradient gradientUnits="objectBoundingBox" x1="0.5" y1="1" x2="0.5" y2="0" id="gradient_2__ava0">
                <stop offset="0%" stop-color="#FFC9B3"/>
                <stop offset="100%" stop-color="#FFD2C2"/>
            </linearGradient>
            <linearGradient gradientUnits="objectBoundingBox" x1="0.5" y1="0" x2="0.5" y2="1" id="gradient_3__ava0">
                <stop offset="0%" stop-color="#FFD4B3"/>
                <stop offset="100%" stop-color="#FFDCC2"/>
            </linearGradient>
            <path d="M200 0L200 0L200 200L0 200L0 0L200 0Z" id="path_1__ava0"/>
            <clipPath id="clip_1__ava0">
                <use xlink:href="#path_1__ava0" clip-rule="evenodd" fill-rule="evenodd"/>
            </clipPath>
        </defs>
        <g id="User 01a__ava0" clip-path="url(#clip_1__ava0)">
            <path d="M200 0L200 0L200 200L0 200L0 0L200 0Z" id="User-01a__ava0" fill="none" stroke="none"/>
            <g id="User-01a__ava0" transform="translate(30.217817 25.725586)">
                <path d="M118.115 80.6078C123.523 62.6471 126.857 31.9411 104.115 10.9411C86.7355 -5.10825 39.7821 -6.72558 23.4488 28.2744C20.7221 34.1171 24.4488 43.2744 31.7821 42.9411C34.1321 42.8324 35.7525 48.8848 37.1742 54.1952C37.4961 55.3975 37.8078 56.5617 38.1155 57.6078C35.7821 80.6078 14.9942 81.0324 4.44882 98.6077C-8.55118 120.274 7.44882 152.274 45.7821 152.274C84.1155 152.274 106.09 120.544 118.115 80.6078L118.115 80.6078Z" id="Combined-Shape__ava0" fill="url(#gradient_1__ava0)" fill-rule="evenodd" stroke="none"/>
                <path d="M131.115 132.941C136.005 142.274 138.448 176.274 138.448 176.274L1.11549 176.274C1.11549 176.274 3.56016 142.274 8.44882 132.941C15.7822 118.941 69.7822 100.941 69.7822 100.941C69.7822 100.941 123.783 118.941 131.115 132.941L131.115 132.941Z" id="Rectangle__ava0" fill="url(#gradient_2__ava0)" fill-rule="evenodd" stroke="none"/>
                <path d="M85.7822 108.941C85.7822 108.941 77.2715 113.608 69.4422 113.608C61.6129 113.608 53.7822 108.941 53.7822 108.941L53.7822 94.2744C52.0979 94.5406 50.3916 94.642 48.6875 94.577C32.6955 94.5757 26.6655 71.2818 29.7822 42.9411C31.7822 42.9411 36.4488 42.9411 43.1155 33.6077C41.4489 46.6077 60.7822 44.6077 68.1155 34.2744C64.4489 46.6077 74.1155 54.9411 82.4489 49.941C98.7895 40.1364 102.463 70.0251 85.7822 70.2744L85.7822 108.941L85.7822 108.941Z" id="Mask__ava0" fill="url(#gradient_3__ava0)" fill-rule="evenodd" stroke="none"/>
                <path d="M53.7822 94.2744C62.0521 92.7519 69.9653 89.6996 77.1155 85.2744C77.1155 85.2744 68.7822 99.6077 53.7822 99.6077L53.7822 94.2744L53.7822 94.2744Z" id="Path-2__ava0" fill="#FFB597" fill-rule="evenodd" stroke="none"/>
                <path d="M69.8041 112.924C74.6221 112.706 85.7821 110.346 85.7821 105.248L85.7821 100.941C87.0048 100.941 90.5055 103.829 92.3061 106.274C99.4235 115.941 91.5288 124.608 85.0901 124.608C76.9661 124.608 71.5821 117.82 69.7821 114.554C67.9821 117.821 62.5981 124.608 54.4741 124.608C48.0355 124.608 40.1408 115.941 47.2581 106.274C49.0588 103.829 52.5594 100.941 53.7821 100.941L53.7821 105.248C53.7821 110.346 65.2435 112.706 69.8041 112.924L69.8041 112.924Z" id="Combined-Shape__ava0" fill="#FFFFFF" fill-rule="evenodd" stroke="none"/>
            </g>
        </g>
    </symbol>
    <symbol id="ava1" width="200px" height="200px" viewBox="0 0 200 200" xmlns="http://www.w3.org/2000/svg">
        <defs>
            <linearGradient gradientUnits="objectBoundingBox" x1="0.51753694" y1="0.00030764937" x2="0.48246303" y2="0.9996923" id="gradient_1__ava1">
                <stop offset="0%" stop-color="#1D0024"/>
                <stop offset="100%" stop-color="#100014"/>
            </linearGradient>
            <linearGradient gradientUnits="objectBoundingBox" x1="0.5" y1="0" x2="0.5" y2="1" id="gradient_2__ava1">
                <stop offset="0%" stop-color="#E6864E"/>
                <stop offset="100%" stop-color="#EB965E"/>
            </linearGradient>
            <linearGradient gradientUnits="objectBoundingBox" x1="0.20013443" y1="0.17728397" x2="0.5153192" y2="1.0899003" id="gradient_3__ava1">
                <stop offset="0%" stop-color="#E68349"/>
                <stop offset="100%" stop-color="#F09960"/>
            </linearGradient>
            <linearGradient gradientUnits="objectBoundingBox" x1="0.5" y1="1" x2="0.5" y2="0" id="gradient_4__ava1">
                <stop offset="0%" stop-color="#FFC9B3"/>
                <stop offset="100%" stop-color="#FFD2C2"/>
            </linearGradient>
            <linearGradient gradientUnits="objectBoundingBox" x1="0.5" y1="1" x2="0.5" y2="0" id="gradient_5__ava1">
                <stop offset="0%" stop-color="#FCF2EB"/>
                <stop offset="100%" stop-color="#FFF9F5"/>
            </linearGradient>
            <path d="M200 0L200 0L200 200L0 200L0 0L200 0Z" id="path_1__ava1"/>
            <clipPath id="clip_1__ava1">
                <use xlink:href="#path_1__ava1" clip-rule="evenodd" fill-rule="evenodd"/>
            </clipPath>
        </defs>
        <g id="User 01b__ava1" clip-path="url(#clip_1__ava1)">
            <path d="M200 0L200 0L200 200L0 200L0 0L200 0Z" id="User-01b__ava1" fill="none" stroke="none"/>
            <g id="User-03C__ava1" transform="translate(22.034653 21.32071)">
                <g id="Group-7__ava1">
                    <path d="M60.1572 117.929C65.9313 108.329 79.1879 89.9284 110.751 64.0739C158.381 25.0603 113.433 -10.6297 65.1423 8.37426C63.3771 9.06901 60.5437 8.57576 57.0492 7.96741C50.317 6.79541 41.131 5.19625 32.4016 10.8414C26.9618 14.3593 26.3275 17.3934 25.73 20.2514C25.3879 21.8876 25.058 23.466 23.8453 25.0444C20.5144 29.3798 7.6738 29.1239 4.86015 40.3817C3.91127 44.1796 4.9974 48.0802 5.99476 51.6621C6.74894 54.3705 7.45235 56.8967 7.1867 59.0583C6.56975 64.0785 1.70253 68.6034 1.46994 75.2307C1.36926 78.0298 1.82098 80.8215 2.79932 83.446C3.77767 86.0705 5.26346 88.4766 7.17185 90.5268C9.08023 92.577 11.3738 94.2312 13.9216 95.3949C16.4694 96.5585 19.2215 97.209 22.0206 97.3088C22.0431 102.842 24.2036 108.154 28.0503 112.132C31.8971 116.109 37.1325 118.447 42.6623 118.655C46.2082 118.785 49.7299 118.023 52.9045 116.437C56.054 119.341 58.7579 120.254 60.1572 117.929L60.1572 117.929Z" id="Combined-Shape__ava1" fill="url(#gradient_1__ava1)" fill-rule="evenodd" stroke="none"/>
                    <g id="Group-6__ava1" transform="translate(48.939003 31.345955)">
                        <path d="M12.3597 76.6667C12.3597 72.9055 12.2795 59.8725 12.2222 50.5469L12.2222 50.5441C12.188 44.9945 12.162 40.7585 12.1657 40.572C-4.30699 43 -3.97365 11.6667 12.693 19.3333C16.3597 21.6667 26.693 19.3333 25.693 0C35.0223 10.0203 45.1301 8.7898 52.9528 7.83745C60.2232 6.95232 65.5198 6.30751 66.383 15.1587C68.8303 40.2487 66.3683 66.506 50.7757 66.508C49.0699 66.4874 47.3692 66.3174 45.693 66L45.693 76.6667C45.693 83.3333 57.693 86.6667 57.693 86.6667C57.693 86.6667 36.965 106.2 28.3597 106.092C19.7543 105.984 0.359678 86.6667 0.359678 86.6667C0.359678 86.6667 12.3597 83.3333 12.3597 76.6667L12.3597 76.6667Z" id="Mask__ava1" fill="url(#gradient_2__ava1)" fill-rule="evenodd" stroke="none"/>
                        <g id="Group-6__ava1" transform="translate(22.056145 55.93065)">
                            <path d="M23.6364 10.0667C15.3658 8.23198 7.52867 4.81327 0.557675 -0.000696719C0.557675 -0.000696719 6.30891 14.0617 23.6145 16.7308L23.6364 10.0667L23.6364 10.0667Z" id="Path-2__ava1" fill="url(#gradient_3__ava1)" fill-opacity="0.7" style="mix-blend-mode: multiply;" fill-rule="evenodd" stroke="none"/>
                        </g>
                    </g>
                    <g id="Combined-Shape__ava1" transform="translate(8.671553 114.679306)">
                        <g id="Combined-Shape__ava1" transform="translate(0.6271038 -1.5258789E-05)">
                            <path d="M130 23.3333C134.837 34.0813 137.333 66.6667 137.333 66.6667L0 66.6667C0 66.6667 2.49667 34.0813 7.33333 23.3333C11.5707 13.918 39.4927 3.10733 47.6753 0C52.4 5.28533 59.1707 8.66667 68.6667 8.66667C78.1627 8.66667 84.9333 5.28533 89.658 0C97.8407 3.10733 125.763 13.918 130 23.3333L130 23.3333Z" id="Mask__ava1" fill="url(#gradient_4__ava1)" fill-rule="evenodd" stroke="none"/>
                        </g>
                        <path d="M6.67709 23.55C10.3051 16.6507 22.2458 9.41199 33.2871 4.53265C38.7938 2.09932 55.2938 72 55.2938 72L0.0157585 72C0.0157585 72 -0.650242 37.484 6.67709 23.55L6.67709 23.55Z" id="Rectangle__ava1" fill="url(#gradient_5__ava1)" fill-rule="evenodd" stroke="none"/>
                    </g>
                </g>
            </g>
        </g>
    </symbol>
    <symbol id="ava2" width="200px" height="200px" viewBox="0 0 200 200" xmlns="http://www.w3.org/2000/svg">
        <defs>
            <linearGradient gradientUnits="objectBoundingBox" x1="0.5" y1="0" x2="0.5" y2="1" id="gradient_1__ava2">
                <stop offset="0%" stop-color="#130027"/>
                <stop offset="100%" stop-color="#130017"/>
            </linearGradient>
            <linearGradient gradientUnits="objectBoundingBox" x1="0.5" y1="1" x2="0.5" y2="0" id="gradient_2__ava2">
                <stop offset="0%" stop-color="#E6864E"/>
                <stop offset="100%" stop-color="#E67240"/>
            </linearGradient>
            <linearGradient gradientUnits="objectBoundingBox" x1="0.5" y1="0" x2="0.5" y2="1" id="gradient_3__ava2">
                <stop offset="0%" stop-color="#FFE0CC"/>
                <stop offset="100%" stop-color="#FFEADB"/>
            </linearGradient>
            <path d="M200 0L200 0L200 200L0 200L0 0L200 0Z" id="path_1__ava2"/>
            <clipPath id="clip_1__ava2">
                <use xlink:href="#path_1__ava2" clip-rule="evenodd" fill-rule="evenodd"/>
            </clipPath>
        </defs>
        <g id="User 01c__ava2" clip-path="url(#clip_1__ava2)">
            <path d="M200 0L200 0L200 200L0 200L0 0L200 0Z" id="User-01c__ava2" fill="none" stroke="none"/>
            <g id="User-01c__ava2" transform="translate(30.217855 25.725586)">
                <path d="M118.115 80.6078C123.523 62.6471 126.857 31.9411 104.115 10.9411C86.7355 -5.10825 39.7821 -6.72558 23.4488 28.2744C20.7221 34.1171 24.4488 43.2744 31.7821 42.9411C34.1321 42.8324 35.7525 48.8848 37.1742 54.1952C37.4961 55.3975 37.8078 56.5617 38.1155 57.6078C35.7821 80.6078 14.9942 81.0324 4.44882 98.6077C-8.55118 120.274 7.44882 152.274 45.7821 152.274C84.1155 152.274 106.09 120.544 118.115 80.6078L118.115 80.6078Z" id="Combined-Shape__ava2" fill="url(#gradient_1__ava2)" fill-rule="evenodd" stroke="none"/>
                <g id="Group-16__ava2" transform="translate(1.1154919 33.60775)">
                    <path d="M130 99.6166C134.889 109.033 137.333 143.333 137.333 143.333L0 143.333C0 143.333 2.44467 109.033 7.33333 99.6166C14.6667 85.4926 68.6667 67.3333 68.6667 67.3333C68.6667 67.3333 122.667 85.4926 130 99.6166L130 99.6166Z" id="Rectangle__ava2" fill="url(#gradient_2__ava2)" fill-rule="evenodd" stroke="none"/>
                    <path d="M84.6667 75.3333C84.6667 75.3333 76.156 80 68.3267 80C60.4974 80 52.6667 75.3333 52.6667 75.3333L52.6667 60.6667C50.9824 60.9329 49.2761 61.0342 47.572 60.9693C31.58 60.968 25.55 37.674 28.6667 9.33333C30.6667 9.33333 35.3333 9.33333 42 0C40.3334 13 59.6667 11 67 0.666667C63.3334 13 73 21.3333 81.3334 16.3333C97.674 6.52867 101.347 36.4173 84.6667 36.6667L84.6667 75.3333L84.6667 75.3333Z" id="Mask__ava2" fill="url(#gradient_3__ava2)" fill-rule="evenodd" stroke="none"/>
                    <g id="Group-16__ava2" transform="translate(52.66666 51.666664)">
                        <path d="M0 9C8.26988 7.47747 16.1831 4.42523 23.3333 0C23.3333 0 15 14.3333 0 14.3333L0 9L0 9Z" id="Path-2__ava2" fill="#FFD7B8" fill-opacity="0.782" style="mix-blend-mode: multiply;" fill-rule="evenodd" stroke="none"/>
                    </g>
                </g>
                <g id="Group-9__ava2" transform="translate(44.448906 100.94108)">
                    <path d="M25.3552 11.9833C30.1732 11.7653 41.3332 9.40533 41.3332 4.30667L41.3332 0C42.5559 0 46.0566 2.888 47.8572 5.33333C54.9746 15 47.0799 23.6667 40.6412 23.6667C32.5172 23.6667 27.1332 16.8787 25.3332 13.6133C23.5332 16.88 18.1492 23.6667 10.0252 23.6667C3.58658 23.6667 -4.30809 15 2.80924 5.33333C4.60991 2.888 8.11057 0 9.33324 0L9.33324 4.30667C9.33324 9.40533 20.7946 11.7653 25.3552 11.9833L25.3552 11.9833Z" id="Combined-Shape__ava2" fill="#FFFFFF" fill-rule="evenodd" stroke="none"/>
                </g>
                <path d="M67.1155 131.608C67.1155 131.08 67.2719 130.565 67.5649 130.126C67.8579 129.688 68.2744 129.346 68.7617 129.144C69.2489 128.942 69.7851 128.889 70.3024 128.992C70.8197 129.095 71.2948 129.349 71.6678 129.722C72.0407 130.095 72.2947 130.57 72.3976 131.088C72.5005 131.605 72.4477 132.141 72.2458 132.628C72.044 133.116 71.7022 133.532 71.2637 133.825C70.8251 134.118 70.3096 134.274 69.7821 134.274C69.0749 134.274 68.3966 133.993 67.8965 133.493C67.3964 132.993 67.1155 132.315 67.1155 131.608L67.1155 131.608ZM67.1155 144.941C67.1155 144.414 67.2719 143.898 67.5649 143.46C67.8579 143.021 68.2744 142.679 68.7617 142.477C69.2489 142.276 69.7851 142.223 70.3024 142.326C70.8197 142.429 71.2948 142.682 71.6678 143.055C72.0407 143.428 72.2947 143.904 72.3976 144.421C72.5005 144.938 72.4477 145.474 72.2458 145.962C72.044 146.449 71.7022 146.865 71.2637 147.158C70.8251 147.451 70.3096 147.608 69.7821 147.608C69.0749 147.608 68.3966 147.327 67.8965 146.827C67.3964 146.327 67.1155 145.648 67.1155 144.941L67.1155 144.941ZM67.1155 158.274C67.1155 157.747 67.2719 157.231 67.5649 156.793C67.8579 156.354 68.2744 156.013 68.7617 155.811C69.2489 155.609 69.7851 155.556 70.3024 155.659C70.8197 155.762 71.2948 156.016 71.6678 156.389C72.0407 156.762 72.2947 157.237 72.3976 157.754C72.5005 158.271 72.4477 158.808 72.2458 159.295C72.044 159.782 71.7022 160.199 71.2637 160.492C70.8251 160.785 70.3096 160.941 69.7821 160.941C69.0749 160.941 68.3966 160.66 67.8965 160.16C67.3964 159.66 67.1155 158.982 67.1155 158.274L67.1155 158.274Z" id="Combined-Shape__ava2" fill="url(#gradient_1__ava2)" fill-rule="evenodd" stroke="none"/>
            </g>
        </g>
    </symbol>
    <symbol id="ava3" width="200px" height="200px" viewBox="0 0 200 200" xmlns="http://www.w3.org/2000/svg">
        <defs>
            <linearGradient gradientUnits="objectBoundingBox" x1="0.5" y1="0" x2="0.5" y2="1" id="gradient_1__ava3">
                <stop offset="0%" stop-color="#FFD4B3"/>
                <stop offset="100%" stop-color="#FFDCC2"/>
            </linearGradient>
            <linearGradient gradientUnits="objectBoundingBox" x1="0.5" y1="0" x2="0.5" y2="1" id="gradient_2__ava3">
                <stop offset="0%" stop-color="#806A6A"/>
                <stop offset="100%" stop-color="#665654"/>
            </linearGradient>
            <linearGradient gradientUnits="objectBoundingBox" x1="0.5" y1="1" x2="0.5" y2="0" id="gradient_3__ava3">
                <stop offset="0%" stop-color="#E6864E"/>
                <stop offset="100%" stop-color="#E67240"/>
            </linearGradient>
            <path d="M200 0L200 0L200 200L0 200L0 0L200 0Z" id="path_1__ava3"/>
            <clipPath id="clip_1__ava3">
                <use xlink:href="#path_1__ava3" clip-rule="evenodd" fill-rule="evenodd"/>
            </clipPath>
        </defs>
        <g id="User 02a__ava3" clip-path="url(#clip_1__ava3)">
            <path d="M200 0L200 0L200 200L0 200L0 0L200 0Z" id="User-02a__ava3" fill="none" stroke="none"/>
            <g id="User-02a__ava3" transform="translate(20 21.329638)">
                <path d="M101.333 96.0037L101.333 111.004C101.333 113.892 58.6666 112.921 58.6666 108.756C58.6666 107.898 58.6704 106.379 58.6756 104.338C58.694 97.0423 58.7291 83.0752 58.6666 68.7957C49.112 56.4111 49.112 48.6704 56.6666 40.6704C64.2213 32.6704 118 28.6704 118 28.6704C118 28.6704 122.035 67.4771 122.667 78.0037C122.695 78.4817 122.756 79.0814 122.825 79.769C123.37 85.1707 124.462 96.0037 115 96.0037L101.333 96.0037L101.333 96.0037Z" id="Mask__ava3" fill="url(#gradient_1__ava3)" fill-rule="evenodd" stroke="none"/>
                <path d="M101.317 94.7224C92.6315 93.7747 84.2372 91.0328 76.6667 86.6704C76.6667 86.6704 82 99.3371 101.317 102.774L101.317 94.7224L101.317 94.7224Z" id="Path-48__ava3" fill="#FFD7B8" style="mix-blend-mode: multiply;" fill-rule="evenodd" stroke="none"/>
                <path d="M150 140.875C154.231 149.478 157.564 163.7 160 183.542L0 183.542C2.43644 163.698 5.76978 149.476 10 140.875C14.216 132.302 53.3333 115.802 53.3333 115.802C53.3333 115.802 54.112 108.26 56 107.179C57.888 106.098 101.751 106.098 104 107.179C106.249 108.26 106.667 115.798 106.667 115.798C106.667 115.798 145.792 132.32 150 140.875L150 140.875Z" id="Combined-Shape__ava3" fill="url(#gradient_2__ava3)" fill-rule="evenodd" stroke="none"/>
                <path d="M67.3466 48.8077C65.2266 46.987 62.6506 45.761 59.0093 47.653C50.3767 52.135 56.106 69.427 65.7666 69.0897C69.1 68.9737 67.572 75.6164 58.6667 80.0037C58.6667 73.0037 48 55.6704 47.0666 39.889C36.3333 35.8924 39 19.901 46.3686 19.901C45.1926 5.24036 68.6666 -2.33164 77.756 6.08102C87 -4.99831 110.333 0.668357 111.742 10.2804C127.787 1.71569 138.333 26.335 123.31 35.8924C117.128 39.8257 102.667 41.3224 81.7913 41.3224C71.774 41.3224 77.5346 64.769 80.6666 72.337C84.6666 82.0037 107 83.337 114 82.337C119.467 81.5564 122.333 79.337 122.667 78.0037C127.667 91.337 121.333 99.337 111.333 99.337C94.3333 99.337 77.3333 94.337 74.6666 82.0037C72.544 72.1884 72.6606 56.3477 67.3466 48.8077L67.3466 48.8077Z" id="Combined-Shape__ava3" fill="url(#gradient_3__ava3)" fill-rule="evenodd" stroke="none"/>
            </g>
        </g>
    </symbol>
</svg>