<?xml version="1.0" encoding="utf-8"?>
<svg width="200px" height="200px" viewBox="0 0 200 200" version="1.1" xmlns:xlink="http://www.w3.org/1999/xlink" xmlns="http://www.w3.org/2000/svg">
  <defs>
    <linearGradient gradientUnits="objectBoundingBox" x1="0.5" y1="0" x2="0.5" y2="1" id="gradient_1">
      <stop offset="0%" stop-color="#130027" />
      <stop offset="100%" stop-color="#130017" />
    </linearGradient>
    <linearGradient gradientUnits="objectBoundingBox" x1="0.5" y1="1" x2="0.5" y2="0" id="gradient_2">
      <stop offset="0%" stop-color="#E6864E" />
      <stop offset="100%" stop-color="#E67240" />
    </linearGradient>
    <linearGradient gradientUnits="objectBoundingBox" x1="0.5" y1="0" x2="0.5" y2="1" id="gradient_3">
      <stop offset="0%" stop-color="#FFE0CC" />
      <stop offset="100%" stop-color="#FFEADB" />
    </linearGradient>
    <path d="M200 0L200 0L200 200L0 200L0 0L200 0Z" id="path_1" />
    <clipPath id="clip_1">
      <use xlink:href="#path_1" clip-rule="evenodd" fill-rule="evenodd" />
    </clipPath>
  </defs>
  <g id="User 01c" clip-path="url(#clip_1)">
    <path d="M200 0L200 0L200 200L0 200L0 0L200 0Z" id="User-01c" fill="none" stroke="none" />
    <g id="User-01c" transform="translate(30.217855 25.725586)">
      <path d="M118.115 80.6078C123.523 62.6471 126.857 31.9411 104.115 10.9411C86.7355 -5.10825 39.7821 -6.72558 23.4488 28.2744C20.7221 34.1171 24.4488 43.2744 31.7821 42.9411C34.1321 42.8324 35.7525 48.8848 37.1742 54.1952C37.4961 55.3975 37.8078 56.5617 38.1155 57.6078C35.7821 80.6078 14.9942 81.0324 4.44882 98.6077C-8.55118 120.274 7.44882 152.274 45.7821 152.274C84.1155 152.274 106.09 120.544 118.115 80.6078L118.115 80.6078Z" id="Combined-Shape" fill="url(#gradient_1)" fill-rule="evenodd" stroke="none" />
      <g id="Group-16" transform="translate(1.1154919 33.60775)">
        <path d="M130 99.6166C134.889 109.033 137.333 143.333 137.333 143.333L0 143.333C0 143.333 2.44467 109.033 7.33333 99.6166C14.6667 85.4926 68.6667 67.3333 68.6667 67.3333C68.6667 67.3333 122.667 85.4926 130 99.6166L130 99.6166Z" id="Rectangle" fill="url(#gradient_2)" fill-rule="evenodd" stroke="none" />
        <path d="M84.6667 75.3333C84.6667 75.3333 76.156 80 68.3267 80C60.4974 80 52.6667 75.3333 52.6667 75.3333L52.6667 60.6667C50.9824 60.9329 49.2761 61.0342 47.572 60.9693C31.58 60.968 25.55 37.674 28.6667 9.33333C30.6667 9.33333 35.3333 9.33333 42 0C40.3334 13 59.6667 11 67 0.666667C63.3334 13 73 21.3333 81.3334 16.3333C97.674 6.52867 101.347 36.4173 84.6667 36.6667L84.6667 75.3333L84.6667 75.3333Z" id="Mask" fill="url(#gradient_3)" fill-rule="evenodd" stroke="none" />
        <g id="Group-16" transform="translate(52.66666 51.666664)">
          <path d="M0 9C8.26988 7.47747 16.1831 4.42523 23.3333 0C23.3333 0 15 14.3333 0 14.3333L0 9L0 9Z" id="Path-2" fill="#FFD7B8" fill-opacity="0.782" style="mix-blend-mode: multiply;" fill-rule="evenodd" stroke="none" />
        </g>
      </g>
      <g id="Group-9" transform="translate(44.448906 100.94108)">
        <path d="M25.3552 11.9833C30.1732 11.7653 41.3332 9.40533 41.3332 4.30667L41.3332 0C42.5559 0 46.0566 2.888 47.8572 5.33333C54.9746 15 47.0799 23.6667 40.6412 23.6667C32.5172 23.6667 27.1332 16.8787 25.3332 13.6133C23.5332 16.88 18.1492 23.6667 10.0252 23.6667C3.58658 23.6667 -4.30809 15 2.80924 5.33333C4.60991 2.888 8.11057 0 9.33324 0L9.33324 4.30667C9.33324 9.40533 20.7946 11.7653 25.3552 11.9833L25.3552 11.9833Z" id="Combined-Shape" fill="#FFFFFF" fill-rule="evenodd" stroke="none" />
      </g>
      <path d="M67.1155 131.608C67.1155 131.08 67.2719 130.565 67.5649 130.126C67.8579 129.688 68.2744 129.346 68.7617 129.144C69.2489 128.942 69.7851 128.889 70.3024 128.992C70.8197 129.095 71.2948 129.349 71.6678 129.722C72.0407 130.095 72.2947 130.57 72.3976 131.088C72.5005 131.605 72.4477 132.141 72.2458 132.628C72.044 133.116 71.7022 133.532 71.2637 133.825C70.8251 134.118 70.3096 134.274 69.7821 134.274C69.0749 134.274 68.3966 133.993 67.8965 133.493C67.3964 132.993 67.1155 132.315 67.1155 131.608L67.1155 131.608ZM67.1155 144.941C67.1155 144.414 67.2719 143.898 67.5649 143.46C67.8579 143.021 68.2744 142.679 68.7617 142.477C69.2489 142.276 69.7851 142.223 70.3024 142.326C70.8197 142.429 71.2948 142.682 71.6678 143.055C72.0407 143.428 72.2947 143.904 72.3976 144.421C72.5005 144.938 72.4477 145.474 72.2458 145.962C72.044 146.449 71.7022 146.865 71.2637 147.158C70.8251 147.451 70.3096 147.608 69.7821 147.608C69.0749 147.608 68.3966 147.327 67.8965 146.827C67.3964 146.327 67.1155 145.648 67.1155 144.941L67.1155 144.941ZM67.1155 158.274C67.1155 157.747 67.2719 157.231 67.5649 156.793C67.8579 156.354 68.2744 156.013 68.7617 155.811C69.2489 155.609 69.7851 155.556 70.3024 155.659C70.8197 155.762 71.2948 156.016 71.6678 156.389C72.0407 156.762 72.2947 157.237 72.3976 157.754C72.5005 158.271 72.4477 158.808 72.2458 159.295C72.044 159.782 71.7022 160.199 71.2637 160.492C70.8251 160.785 70.3096 160.941 69.7821 160.941C69.0749 160.941 68.3966 160.66 67.8965 160.16C67.3964 159.66 67.1155 158.982 67.1155 158.274L67.1155 158.274Z" id="Combined-Shape" fill="url(#gradient_1)" fill-rule="evenodd" stroke="none" />
    </g>
  </g>
</svg>