<svg width="0" height="0" fill="none" style="visibility: hidden; position: absolute;" aria-hidden="true">
    <symbol id="ausguck@svg" width="20.003647px" height="18px" viewBox="0 0 20.003647 18" xmlns="http://www.w3.org/2000/svg">
        <g id="ausguck__ausguck@svg">
            <g id="Layer0_71_MEMBER_2_FILL__ausguck@svg">
                <path d="M19.5507 9.55L19.6008 9.5C19.6341 9.43333 19.6674 9.36667 19.7008 9.3C19.9008 8.66667 20.0007 7.98333 20.0007 7.25C20.0674 5.11667 18.9841 3.31667 16.7507 1.85C14.8841 0.616665 12.6341 0 10.0007 0C7.36741 0 5.13408 0.599999 3.30075 1.8L3.25075 1.85C1.05075 3.31667 -0.0325871 5.11667 0.000746269 7.25C0.000746269 7.98333 0.134073 8.66667 0.40074 9.3L0.450743 9.35C0.61741 9.75 0.834086 10.15 1.10075 10.55L3.05075 14.15C3.35075 15.1167 4.06741 15.9667 5.20074 16.7C6.56741 17.5667 8.16741 18 10.0007 18C11.8674 18 13.4507 17.5667 14.7507 16.7C14.7841 16.7 14.8174 16.6833 14.8508 16.65C15.9174 15.95 16.6341 15.15 17.0007 14.25L19.2008 10.25C19.2008 10.2167 19.2174 10.1833 19.2507 10.15L19.5507 9.55L19.5507 9.55ZM17.8508 8.6C17.8174 8.63333 17.8007 8.66666 17.8007 8.7C17.7007 8.9 17.6007 9.08333 17.5007 9.25L15.2008 13.4C14.9674 14.0333 14.4841 14.5833 13.7507 15.05C12.7174 15.7167 11.4674 16.05 10.0007 16.05C8.56741 16.05 7.30076 15.7167 6.20076 15.05C5.50076 14.5833 5.05075 14.0333 4.85075 13.4L2.70074 9.4C2.50074 9.16667 2.33408 8.9 2.20074 8.6C2.03408 8.16667 1.95074 7.71667 1.95074 7.25C1.95074 5.78333 2.73408 4.51667 4.30075 3.45C5.90075 2.45 7.80075 1.95 10.0007 1.95C12.2341 1.95 14.1341 2.45 15.7008 3.45C17.2674 4.51667 18.0507 5.78333 18.0507 7.25C18.0507 7.71667 17.9841 8.16667 17.8508 8.6L17.8508 8.6Z" id="Vector__ausguck@svg" fill="#6D4B27" fill-rule="evenodd" stroke="none"/>
                <path d="M13.3507 10C13.5174 9.9 13.684 9.8 13.8507 9.7C14.3507 9.4 14.734 9.03333 15.0007 8.6C15.0674 8.46666 15.134 8.33333 15.2007 8.2L15.2507 8.15C15.3507 7.85 15.4007 7.55 15.4007 7.25C15.4007 6.25 14.884 5.41667 13.8507 4.75C12.784 4.05 11.5007 3.7 10.0007 3.7C8.56742 3.7 7.30076 4.05 6.20076 4.75C5.16742 5.41667 4.65074 6.25 4.65074 7.25C4.65074 7.55 4.71742 7.85 4.85075 8.15C4.91742 8.35 5.0174 8.53333 5.15074 8.7C5.4174 9.06666 5.76742 9.4 6.20076 9.7C6.36742 9.8 6.53409 9.9 6.70076 10C7.66742 10.5 8.76741 10.75 10.0007 10.75C11.3007 10.75 12.4174 10.5 13.3507 10L13.3507 10ZM17.5007 9.25C17.0674 9.88333 16.4674 10.45 15.7007 10.95C15.4674 11.1167 15.234 11.25 15.0007 11.35C13.5674 12.1167 11.9007 12.5 10.0007 12.5C8.13408 12.5 6.48408 12.1167 5.05075 11.35C4.78408 11.25 4.53408 11.1167 4.30075 10.95C3.60075 10.4833 3.06741 9.96667 2.70074 9.4L4.85075 13.4C5.05075 14.0333 5.50076 14.5833 6.20076 15.05C7.30076 15.7167 8.56741 16.05 10.0007 16.05C11.4674 16.05 12.7174 15.7167 13.7507 15.05C14.484 14.5833 14.9674 14.0333 15.2007 13.4L17.5007 9.25L17.5007 9.25Z" id="Vector__ausguck@svg" fill="#986835" fill-rule="evenodd" stroke="none"/>
                <path d="M17.8007 8.7C17.8007 8.66666 17.8174 8.63333 17.8507 8.6C17.984 8.16666 18.0507 7.71667 18.0507 7.25C18.0507 5.78333 17.2674 4.51667 15.7007 3.45C14.134 2.45 12.234 1.95 10.0007 1.95C7.80074 1.95 5.90075 2.45 4.30075 3.45C2.73408 4.51667 1.95074 5.78333 1.95074 7.25C1.95074 7.71667 2.03408 8.16666 2.20074 8.6C2.33408 8.9 2.50074 9.16667 2.70074 9.4C3.06741 9.96667 3.60075 10.4833 4.30075 10.95C4.53408 11.1167 4.78408 11.25 5.05075 11.35C6.48408 12.1167 8.13408 12.5 10.0007 12.5C11.9007 12.5 13.5674 12.1167 15.0007 11.35C15.234 11.25 15.4674 11.1167 15.7007 10.95C16.4674 10.45 17.0674 9.88333 17.5007 9.25C17.6007 9.08333 17.7007 8.9 17.8007 8.7L17.8007 8.7ZM13.8507 9.7C13.684 9.8 13.5174 9.9 13.3507 10C12.4174 10.5 11.3007 10.75 10.0007 10.75C8.76741 10.75 7.66742 10.5 6.70076 10C6.53409 9.9 6.36742 9.8 6.20076 9.7C5.76742 9.4 5.4174 9.06666 5.15074 8.7C5.0174 8.53333 4.91742 8.35 4.85075 8.15C4.71742 7.85 4.65074 7.55 4.65074 7.25C4.65074 6.25 5.16742 5.41667 6.20076 4.75C7.30076 4.05 8.56742 3.7 10.0007 3.7C11.5007 3.7 12.784 4.05 13.8507 4.75C14.884 5.41667 15.4007 6.25 15.4007 7.25C15.4007 7.55 15.3507 7.85 15.2507 8.15L15.2007 8.2C15.134 8.33333 15.0674 8.46666 15.0007 8.6C14.734 9.03333 14.3507 9.4 13.8507 9.7L13.8507 9.7Z" id="Vector__ausguck@svg" fill="#AF783E" fill-rule="evenodd" stroke="none"/>
            </g>
        </g>
    </symbol>
    <symbol id="boot@svg" width="49.5px" height="108.02536px" viewBox="0 0 49.5 108.02536" xmlns="http://www.w3.org/2000/svg">
        <g id="boot__boot@svg">
            <g id="Layer0_71_MEMBER_0_FILL__boot@svg">
                <path d="M49.5 27.1004L49.5 22.1504C49.2 16.217 46.8333 11.1337 42.4 6.90036C37.5 2.26703 31.6167 -0.0329762 24.75 0.000357143C17.8833 -0.0329762 12.0333 2.26703 7.2 6.90036C2.73333 11.1337 0.366673 16.1837 0.100006 22.0504C0.0333394 22.517 0 22.9837 0 23.4504L0 27.1004C0 27.667 0.200006 28.1504 0.600006 28.5504L4.75 32.7004L4.75 64.2504C4.78333 65.6837 4.86667 67.0837 5 68.4504C5.1 69.5504 5.23333 70.6504 5.39999 71.7504L5.39999 71.8004C7.23333 85.7004 12.9 97.4337 22.4 107L22.4 107.05C22.8 107.45 23.2833 107.734 23.85 107.9C24.45 108.067 25.05 108.067 25.65 107.9C26.25 107.7 26.7333 107.4 27.1 107C31.4667 102.567 35.0333 97.7004 37.8 92.4004C41 86.1337 43.1167 79.267 44.15 71.8004L44.15 71.7504C44.2833 70.6504 44.4 69.5504 44.5 68.4504C44.6333 67.0504 44.7167 65.6504 44.75 64.2504L44.75 32.7004L48.95 28.5504C49.3167 28.1504 49.5 27.667 49.5 27.1004L49.5 27.1004ZM41 8.35036C45.0667 12.217 47.2333 16.8504 47.5 22.2504L47.5 27.1004L42.75 31.8504L42.75 64.2004C42.7167 65.567 42.6333 66.917 42.5 68.2504C42.4 69.3504 42.2833 70.4337 42.15 71.5004C41.1833 78.767 39.1333 85.417 36 91.4504C33.3333 96.617 29.8833 101.334 25.65 105.6C25.5167 105.767 25.3333 105.884 25.1 105.95C24.8667 106.017 24.6333 106.017 24.4 105.95C24.1667 105.884 23.9667 105.767 23.8 105.6C14.6333 96.3337 9.15001 84.967 7.35001 71.5004C7.21667 70.4337 7.1 69.3504 7 68.2504C6.86667 66.917 6.78333 65.567 6.75 64.2004L6.75 31.8504L2 27.1004L2 23.4504C2 23.0504 2.03334 22.6504 2.10001 22.2504C2.33334 16.8504 4.48334 12.217 8.55 8.35036C13.0167 4.08369 18.4167 1.96702 24.75 2.00036C31.0833 1.96702 36.5 4.08369 41 8.35036L41 8.35036Z" id="Vector__boot@svg" fill="#6D4B27" fill-rule="evenodd" stroke="none"/>
                <path d="M47.5 22.2504C47.2333 16.8504 45.0667 12.2171 41 8.35036C36.5 4.08369 31.0833 1.96702 24.75 2.00036C18.4167 1.96702 13.0167 4.08369 8.55 8.35036C4.48334 12.2171 2.33334 16.8504 2.10001 22.2504C2.03334 22.6504 2 23.0504 2 23.4504L2 27.1004L6.75 31.8504L6.75 64.2004C6.78333 65.5671 6.86667 66.9171 7 68.2504C7.1 69.3504 7.21667 70.4337 7.35001 71.5004C9.15001 84.9671 14.6333 96.3337 23.8 105.6C23.9667 105.767 24.1667 105.884 24.4 105.95C24.6333 106.017 24.8667 106.017 25.1 105.95C25.3333 105.884 25.5167 105.767 25.65 105.6C29.8833 101.334 33.3333 96.6171 36 91.4504C39.1333 85.4171 41.1833 78.7671 42.15 71.5004C42.2833 70.4337 42.4 69.3504 42.5 68.2504C42.6333 66.9171 42.7167 65.5671 42.75 64.2004L42.75 31.8504L47.5 27.1004L47.5 22.2504L47.5 22.2504ZM37.15 10.9004C40.3833 14.0671 42.15 17.8504 42.45 22.2504L42.45 27.1004L38.75 27.1004L38.75 64.0504C38.6833 65.4837 38.6 66.8837 38.5 68.2504C38.3667 69.3504 38.2333 70.4337 38.1 71.5004C37.0333 78.8337 34.8167 85.4837 31.45 91.4504C29.4748 94.1423 27.4274 95.5479 25.3076 95.6671C22.9914 95.7973 20.5889 94.3917 18.1 91.4504C14.7 85.4504 12.4667 78.8004 11.4 71.5004C11.2667 70.4337 11.15 69.3504 11.05 68.2504C10.9167 66.9171 10.8167 65.5671 10.75 64.2004L10.75 27.1004L7.10001 27.1004L7.10001 23.4504C7.10001 23.0504 7.11666 22.6504 7.14999 22.2504C7.38333 17.8504 9.15 14.0671 12.45 10.9004C15.8167 7.66703 19.9167 6.03369 24.75 6.00036L24.85 6.00036C29.6167 6.03369 33.7167 7.68369 37.15 10.9504L37.15 10.9004L37.15 10.9004Z" id="Vector__boot@svg" fill="#B47B41" fill-rule="evenodd" stroke="none"/>
                <path d="M42.45 26.7504L42.45 22.2504L7.14999 22.2504C7.11666 22.6504 7.10001 23.0504 7.10001 23.4504L7.10001 26.7504L42.45 26.7504L42.45 26.7504ZM31.45 91.4504C34.8167 85.4837 37.0333 78.8337 38.1 71.5004L11.4 71.5004C12.4667 78.8004 14.7 85.4504 18.1 91.4504C20.5889 94.3917 22.9914 95.7973 25.3076 95.6671C27.4274 95.5479 29.4748 94.1423 31.45 91.4504L31.45 91.4504ZM24.75 78.9504C25.65 78.9504 26.4166 79.2671 27.05 79.9004C27.7166 80.5671 28.05 81.3504 28.05 82.2504C28.05 83.1504 27.7166 83.9171 27.05 84.5504C26.4166 85.2171 25.65 85.5504 24.75 85.5504C23.85 85.5504 23.0667 85.2171 22.4 84.5504C21.7667 83.9171 21.45 83.1504 21.45 82.2504C21.45 81.3504 21.7667 80.5671 22.4 79.9004C23.0667 79.2671 23.85 78.9504 24.75 78.9504L24.75 78.9504Z" id="Vector__boot@svg" fill="#8E6132" fill-rule="evenodd" stroke="none"/>
                <path d="M14.15 31.7504L10.75 31.7504L10.75 43.7504L14.15 43.7504L14.15 31.7504L14.15 31.7504ZM35.35 43.7504L38.75 43.7504L38.75 31.7504L35.35 31.7504L35.35 43.7504L35.35 43.7504ZM14.15 50.2504L10.75 50.2504L10.75 62.2504L14.15 62.2504L14.15 50.2504L14.15 50.2504ZM38.75 50.2504L35.35 50.2504L35.35 62.2504L38.75 62.2504L38.75 50.2504L38.75 50.2504ZM27.05 79.9004C26.4167 79.2671 25.65 78.9504 24.75 78.9504C23.85 78.9504 23.0667 79.2671 22.4 79.9004C21.7667 80.5671 21.45 81.3504 21.45 82.2504C21.45 83.1504 21.7667 83.9171 22.4 84.5504C23.0667 85.2171 23.85 85.5504 24.75 85.5504C25.65 85.5504 26.4167 85.2171 27.05 84.5504C27.7167 83.9171 28.05 83.1504 28.05 82.2504C28.05 81.3504 27.7167 80.5671 27.05 79.9004L27.05 79.9004ZM23.55 81.0504C23.8833 80.7504 24.2833 80.6004 24.75 80.6004C25.1833 80.6004 25.5667 80.7504 25.9 81.0504C26.2333 81.3837 26.4 81.7837 26.4 82.2504C26.4 82.6837 26.2333 83.0671 25.9 83.4004C25.5667 83.7337 25.1833 83.9004 24.75 83.9004C24.2833 83.9004 23.8833 83.7337 23.55 83.4004C23.25 83.0671 23.1 82.6837 23.1 82.2504C23.1 81.7837 23.25 81.3837 23.55 81.0504L23.55 81.0504Z" id="Vector__boot@svg" fill="#95B4B6" fill-rule="evenodd" stroke="none"/>
                <path d="M24.75 80.6004C24.2833 80.6004 23.8833 80.7504 23.55 81.0504C23.25 81.3837 23.1 81.7837 23.1 82.2504C23.1 82.6837 23.25 83.067 23.55 83.4004C23.8833 83.7337 24.2833 83.9004 24.75 83.9004C25.1833 83.9004 25.5667 83.7337 25.9 83.4004C26.2333 83.067 26.4 82.6837 26.4 82.2504C26.4 81.7837 26.2333 81.3837 25.9 81.0504C25.5667 80.7504 25.1833 80.6004 24.75 80.6004L24.75 80.6004Z" id="Vector__boot@svg" fill="#7E989A" fill-rule="evenodd" stroke="none"/>
                <path d="M38.1 71.5004C38.2333 70.4337 38.3667 69.3504 38.5 68.2504L11.05 68.2504C11.15 69.3504 11.2667 70.4337 11.4 71.5004L38.1 71.5004L38.1 71.5004Z" id="Vector__boot@svg" fill="#A8733B" fill-rule="evenodd" stroke="none"/>
                <path d="M17 31.7504L14.15 31.7504L14.15 43.7504L17 43.7504L17 31.7504L17 31.7504ZM35.35 31.7504L32.5 31.7504L32.5 43.7504L35.35 43.7504L35.35 31.7504L35.35 31.7504ZM17 50.2504L14.15 50.2504L14.15 62.2504L17 62.2504L17 50.2504L17 50.2504ZM35.35 50.2504L32.5 50.2504L32.5 62.2504L35.35 62.2504L35.35 50.2504L35.35 50.2504Z" id="Vector__boot@svg" fill="#A7CACD" fill-rule="evenodd" stroke="none"/>
                <path d="M10.75 27.1004L10.75 31.7504L17 31.7504L17 43.7504L10.75 43.7504L10.75 50.2504L17 50.2504L17 62.2504L10.75 62.2504L10.75 64.2004C10.8167 65.5671 10.9167 66.9171 11.05 68.2504L38.5 68.2504C38.6 66.8837 38.6833 65.4837 38.75 64.0504L38.75 62.2504L32.5 62.2504L32.5 50.2504L38.75 50.2504L38.75 43.7504L32.5 43.7504L32.5 31.7504L38.75 31.7504L38.75 27.1004L42.45 27.1004L42.45 26.7504L7.10001 26.7504L7.10001 27.1004L10.75 27.1004L10.75 27.1004ZM19.85 49.1004L19.85 39.2504L29.7 39.2504L29.7 49.1004L19.85 49.1004L19.85 49.1004Z" id="Vector__boot@svg" fill="#956635" fill-rule="evenodd" stroke="none"/>
                <path d="M19.85 39.2504L19.85 49.1004L29.7 49.1004L29.7 39.2504L19.85 39.2504L19.85 39.2504Z" id="Vector__boot@svg" fill="#83592E" fill-rule="evenodd" stroke="none"/>
                <path d="M42.45 22.2504C42.15 17.8504 40.3833 14.067 37.15 10.9004L37.15 10.9504C33.7167 7.68369 29.6167 6.03369 24.85 6.00036L24.75 6.00036C19.9167 6.03369 15.8167 7.66703 12.45 10.9004C9.14999 14.067 7.38333 17.8504 7.14999 22.2504L42.45 22.2504L42.45 22.2504Z" id="Vector__boot@svg" fill="#A3703A" fill-rule="evenodd" stroke="none"/>
            </g>
        </g>
    </symbol>
    <symbol id="mast@svg" width="6px" height="22px" viewBox="0 0 6 22" xmlns="http://www.w3.org/2000/svg">
        <g id="mast__mast@svg">
            <g id="Layer0_71_MEMBER_3_FILL__mast@svg">
                <path d="M3.04999 0L3 0C2.16667 0 1.46666 0.300002 0.899994 0.900002C0.299994 1.46667 0 2.16667 0 3L0 19.1C0 19.9 0.299994 20.5833 0.899994 21.15L0.899994 21.2C1.46666 21.7333 2.16667 22 3 22L3.04999 22C3.84999 22 4.53334 21.7333 5.10001 21.2L5.14999 21.15C5.71666 20.5833 6 19.9 6 19.1L6 3C6 2.16667 5.71666 1.46667 5.14999 0.900002L5.10001 0.900002C4.53334 0.300002 3.84999 0 3.04999 0L3.04999 0ZM2 3C2 2.73333 2.09999 2.5 2.29999 2.3C2.49999 2.1 2.73333 2 3 2C3.26667 2 3.50001 2.1 3.70001 2.3C3.90001 2.5 4 2.73333 4 3L4 19.05C4 19.3167 3.90001 19.55 3.70001 19.75C3.50001 19.95 3.26667 20.05 3 20.05C2.73333 20.05 2.49999 19.95 2.29999 19.75C2.09999 19.55 2 19.3167 2 19.05L2 3L2 3Z" id="Vector__mast@svg" fill="#956635" fill-rule="evenodd" stroke="none"/>
                <path d="M2.29999 2.3C2.09999 2.5 2 2.73333 2 3L2 19.05C2 19.3167 2.09999 19.55 2.29999 19.75C2.49999 19.95 2.73333 20.05 3 20.05C3.26667 20.05 3.50001 19.95 3.70001 19.75C3.90001 19.55 4 19.3167 4 19.05L4 3C4 2.73333 3.90001 2.5 3.70001 2.3C3.50001 2.1 3.26667 2 3 2C2.73333 2 2.49999 2.1 2.29999 2.3L2.29999 2.3Z" id="Vector__mast@svg" fill="#FFF1D2" fill-rule="evenodd" stroke="none"/>
            </g>
        </g>
    </symbol>
    <symbol id="segel_0@svg" width="66px" height="46px" viewBox="0 0 66 46" xmlns="http://www.w3.org/2000/svg">
        <g id="segel_0__segel_0@svg">
            <g id="Layer0_19_FILL__segel_0@svg">
                <path d="M61.05 0.549988C60.65 0.183321 60.1666 0 59.6 0L6.45001 0C5.88335 0 5.41665 0.183321 5.04999 0.549988C4.64999 0.916654 4.45001 1.36666 4.45001 1.89999L4.45001 5.25C4.45001 5.65 4.56665 6.03333 4.79999 6.39999C1.49999 15.3667 0.0333577 22.45 0.400024 27.65C0.400024 28.85 0.500012 30.05 0.700012 31.25C0.666679 31.25 0.633309 31.2833 0.599976 31.35C0.199976 31.6833 0 32.1167 0 32.65L0 35.6C0 36.1333 0.199976 36.6 0.599976 37C0.966642 37.3667 1.43333 37.55 2 37.55L5.29999 37.55C7.16665 38.4833 9.05001 39.35 10.95 40.15C14.7167 41.7833 18.4833 43.0833 22.25 44.05C22.8167 44.1833 23.3667 44.3333 23.9 44.5C26.8667 45.1667 29.8333 45.6667 32.8 46L33.25 46C36.1833 45.6667 39.1167 45.1667 42.05 44.5C42.6167 44.3667 43.1833 44.2167 43.75 44.05C49.4167 42.5833 55.0833 40.4167 60.75 37.55L64 37.55C64.5667 37.55 65.05 37.3667 65.45 37C65.8167 36.6 66 36.1333 66 35.6L66 32.65C66 32.1167 65.8167 31.6833 65.45 31.35L65.3 31.2C65.5 30.0333 65.5833 28.85 65.55 27.65L65.55 27.6C65.8833 22.4 64.4333 15.3333 61.2 6.39999C61.4667 6.06666 61.6 5.68333 61.6 5.25L61.6 1.89999C61.6 1.36666 61.4167 0.916654 61.05 0.549988L61.05 0.549988ZM59.6 1.89999L59.6 5.25L58.65 5.25C62.25 14.75 63.8833 22.1833 63.55 27.55C63.6167 29.2833 63.4 30.9833 62.9 32.65L64 32.65L64 35.6L60.25 35.6C56.7833 37.4 53.3166 38.9167 49.85 40.15L49.8 40.15C47.1667 41.0833 44.5334 41.8833 41.9 42.55C38.9334 43.25 35.9667 43.75 33 44.05C30.0333 43.75 27.05 43.25 24.05 42.55C21.4167 41.8833 18.8 41.0833 16.2 40.15C12.7 38.9167 9.21667 37.4 5.75 35.6L2 35.6L2 32.65L3.04999 32.65C2.58332 30.9833 2.36669 29.2833 2.40002 27.55C2.06669 22.1833 3.71664 14.75 7.34998 5.25L6.45001 5.25L6.45001 1.89999L59.6 1.89999L59.6 1.89999Z" id="Vector__segel_0@svg" fill="#B1A691" fill-rule="evenodd" stroke="none"/>
                <path d="M13.75 5.25L13.75 1.89999L6.45001 1.89999L6.45001 5.25L13.75 5.25L13.75 5.25ZM45.8 5.25L45.8 1.89999L20.15 1.89999L20.15 5.25L45.8 5.25L45.8 5.25ZM59.6 5.25L59.6 1.89999L52.2 1.89999L52.2 5.25L59.6 5.25L59.6 5.25ZM3.04999 32.65L2 32.65L2 35.6L5.75 35.6C5.05 35.2333 4.35002 34.85 3.65002 34.45C3.41669 33.85 3.21665 33.25 3.04999 32.65L3.04999 32.65ZM62.9 32.65C62.7667 33.25 62.6 33.85 62.4 34.45C61.7 34.85 60.9833 35.2333 60.25 35.6L64 35.6L64 32.65L62.9 32.65L62.9 32.65Z" id="Vector__segel_0@svg" fill="#956635" fill-rule="evenodd" stroke="none"/>
                <path d="M13.75 5.25L7.35 5.25C3.71667 14.75 2.06672 22.1833 2.40005 27.55C2.36672 29.2833 2.58335 30.9833 3.05001 32.65C3.21668 33.25 3.41671 33.85 3.65005 34.45L13.75 5.25L13.75 5.25ZM24.05 42.55C27.05 43.25 30.0333 43.75 33 44.05C35.9667 43.75 38.9334 43.25 41.9 42.55C44.5334 41.8833 47.1666 41.0833 49.8 40.15L49.85 40.15L45.8 5.25L20.15 5.25L16.2 40.15C18.8 41.0833 21.4166 41.8833 24.05 42.55L24.05 42.55ZM58.65 5.25L52.2 5.25L62.4 34.45C62.6 33.85 62.7667 33.25 62.9 32.65C63.4 30.9833 63.6166 29.2833 63.55 27.55C63.8833 22.1833 62.25 14.75 58.65 5.25L58.65 5.25Z" id="Vector__segel_0@svg" fill="#F3E5C8" fill-rule="evenodd" stroke="none"/>
                <path d="M20.15 5.25L13.75 5.25L3.65002 34.45C4.35002 34.85 5.05 35.2333 5.75 35.6C9.21666 37.4 12.7 38.9167 16.2 40.15L20.15 5.25L20.15 5.25ZM52.2 5.25L45.8 5.25L49.85 40.15C53.3166 38.9167 56.7833 37.4 60.25 35.6C60.9833 35.2333 61.7 34.85 62.4 34.45L52.2 5.25L52.2 5.25Z" id="Vector__segel_0@svg" fill="#FFF1D2" fill-rule="evenodd" stroke="none"/>
                <path d="M20.15 5.25L20.15 1.89999L13.75 1.89999L13.75 5.25L20.15 5.25L20.15 5.25ZM52.2 5.25L52.2 1.89999L45.8 1.89999L45.8 5.25L52.2 5.25L52.2 5.25Z" id="Vector__segel_0@svg" fill="#AF783E" fill-rule="evenodd" stroke="none"/>
            </g>
        </g>
    </symbol>
    <symbol id="segel_1@svg" width="66px" height="46.149994px" viewBox="0 0 66 46.149994" xmlns="http://www.w3.org/2000/svg">
        <g id="segel_1__segel_1@svg">
            <g id="Layer0_29_FILL__segel_1@svg">
                <path d="M13.75 5.35001L13.75 2L6.45001 2L6.45001 5.35001L13.75 5.35001L13.75 5.35001ZM45.8 5.35001L45.8 2L20.15 2L20.15 5.35001L45.8 5.35001L45.8 5.35001ZM59.6 2L52.2 2L52.2 5.35001L59.6 5.35001L59.6 2L59.6 2ZM3.65002 34.55C3.41669 33.95 3.21665 33.35 3.04999 32.75L2 32.75L2 35.7L5.75 35.7C5.05 35.3333 4.35002 34.95 3.65002 34.55L3.65002 34.55ZM62.9 32.75C62.7667 33.35 62.6 33.95 62.4 34.55C61.7 34.95 60.9833 35.3333 60.25 35.7L64 35.7L64 32.75L62.9 32.75L62.9 32.75Z" id="Vector__segel_1@svg" fill="#956635" fill-rule="evenodd" stroke="none"/>
                <path d="M2.40002 27.65C2.30002 25.95 2.40001 24.05 2.70001 21.95L0.75 21.4C0.383333 23.7667 0.266691 25.9 0.400024 27.8C0.400024 28.9667 0.500012 30.1167 0.700012 31.25C0.633346 31.2833 0.599976 31.3167 0.599976 31.35C0.199976 31.7167 0 32.1833 0 32.75L0 35.7C0 36.2667 0.199976 36.75 0.599976 37.15C0.966642 37.5167 1.43333 37.7 2 37.7L5.29999 37.7C7.96665 39.0667 10.65 40.2833 13.35 41.35L13.05 39.05C10.5833 38.0833 8.15 36.9667 5.75 35.7L2 35.7L2 32.75L3.04999 32.75C2.58332 31.0833 2.36669 29.3833 2.40002 27.65L2.40002 27.65Z" id="Vector__segel_1@svg" fill="#465656" fill-rule="evenodd" stroke="none"/>
                <path d="M6.00003 27.75L5.1 22.6L2.70004 21.95C2.40004 24.05 2.30005 25.95 2.40005 27.65C2.36672 29.3833 2.58335 31.0833 3.05001 32.75C3.21668 33.35 3.41672 33.95 3.65005 34.55C4.35005 34.95 5.05003 35.3333 5.75003 35.7C8.15003 36.9667 10.5833 38.0833 13.05 39.05L12.6 35.95L7.1 34.1L6.00003 27.75L6.00003 27.75Z" id="Vector__segel_1@svg" fill="#5C7070" fill-rule="evenodd" stroke="none"/>
                <path d="M5.40002 10.85L6.34997 15.35L3.84997 16.15C3.31664 18.2167 2.93335 20.15 2.70001 21.95L5.09997 22.6L6 27.75L13.75 5.35001L7.34997 5.35001C6.61664 7.25001 5.96669 9.08334 5.40002 10.85L5.40002 10.85ZM49.05 35.9C48.85 35.9333 48.65 35.9167 48.45 35.85C48.25 35.75 48.1 35.6333 48 35.5C47.8667 35.3333 47.8 35.15 47.8 34.95L47.55 20.2L45.8 5.35001L20.15 5.35001L16.2 40.25L21.4 38.05C21.4 40.0833 22.3833 41.65 24.35 42.75C27.25 43.3833 30.1333 43.85 33 44.15C35.9667 43.85 38.9333 43.35 41.9 42.65C44.5333 41.9833 47.1666 41.1833 49.8 40.25L49.85 40.25L49.35 35.8C49.25 35.8333 49.15 35.8667 49.05 35.9L49.05 35.9ZM58.65 5.35001L52.2 5.35001L62.4 34.55C62.6 33.95 62.7667 33.35 62.9 32.75C63.4 31.0833 63.6166 29.3833 63.55 27.65C63.6833 25.3833 63.4833 22.7666 62.95 19.8L60.4 20.8C61.2 17.3 61.2 13.8 60.4 10.3C59.8667 8.69999 59.2833 7.05001 58.65 5.35001L58.65 5.35001Z" id="Vector__segel_1@svg" fill="#F3E5C8" fill-rule="evenodd" stroke="none"/>
                <path d="M20.15 5.35001L13.75 5.35001L6 27.75L7.09998 34.1L12.6 35.95L13.05 39.05C14.0833 39.4833 15.1334 39.8833 16.2 40.25L20.15 5.35001L20.15 5.35001ZM49 13.1C49.2 13.2333 49.3334 13.4333 49.4 13.7L53.05 31.1C53.0833 31.2667 53.0833 31.4166 53.05 31.55C52.9833 31.7166 52.9 31.8667 52.8 32L49.55 35.6C49.4833 35.6667 49.4166 35.7333 49.35 35.8L49.85 40.25C50.45 40.05 51.0667 39.8333 51.7 39.6C53.2667 38.5667 54.3833 36.9666 55.05 34.8L58.15 36.75C58.85 36.4167 59.55 36.0666 60.25 35.7C60.9833 35.3333 61.7 34.95 62.4 34.55L52.2 5.35001L45.8 5.35001L47.55 20.2L47.4 13.95C47.4 13.6833 47.4834 13.45 47.65 13.25C47.8167 13.05 48.0333 12.9333 48.3 12.9C48.5333 12.8667 48.7667 12.9333 49 13.1L49 13.1ZM16.95 8.79999C17.0833 8.96666 17.15 9.18332 17.15 9.44999L16.75 22.45C16.75 22.6833 16.6667 22.9 16.5 23.1C16.3 23.2667 16.0833 23.3667 15.85 23.4C15.6166 23.4333 15.4 23.3833 15.2 23.25L11.95 21C11.75 20.8667 11.6166 20.7 11.55 20.5C11.4833 20.2667 11.4833 20.05 11.55 19.85L15.2 9.10001C15.2667 8.86668 15.4167 8.68333 15.65 8.54999C15.85 8.41666 16.0833 8.38332 16.35 8.44999C16.5833 8.48332 16.7833 8.59999 16.95 8.79999L16.95 8.79999Z" id="Vector__segel_1@svg" fill="#FFF1D2" fill-rule="evenodd" stroke="none"/>
                <path d="M62.9 17.8C63.1667 15.1333 62.9833 12.4833 62.35 9.85001C62.35 9.78334 62.3333 9.71666 62.3 9.64999C61.9667 8.64999 61.6167 7.61665 61.25 6.54999C61.4833 6.18332 61.6 5.78334 61.6 5.35001L61.6 2C61.6 1.43333 61.4167 0.966673 61.05 0.600006C60.65 0.200006 60.1666 0 59.6 0L6.45001 0C5.88335 0 5.41665 0.200006 5.04999 0.600006C4.64999 0.966673 4.45001 1.43333 4.45001 2L4.45001 5.35001C4.45001 5.78334 4.56665 6.16667 4.79999 6.5C4.33332 7.76667 3.9 8.99998 3.5 10.2C3.4 10.5333 3.38335 10.8833 3.45001 11.25L4.04999 14L3.25 14.25C2.91667 14.35 2.63336 14.5167 2.40002 14.75C2.16669 15.0167 2.00002 15.3167 1.90002 15.65C1.36669 17.6833 0.983333 19.6 0.75 21.4L2.70001 21.95C2.93335 20.15 3.31664 18.2167 3.84998 16.15L6.34998 15.35L5.40002 10.85C5.96669 9.08334 6.61664 7.25001 7.34998 5.35001L6.45001 5.35001L6.45001 2L59.6 2L59.6 5.35001L58.65 5.35001C59.2834 7.05001 59.8667 8.69999 60.4 10.3C61.2 13.8 61.2 17.3 60.4 20.8L62.95 19.8C63.4833 22.7667 63.6833 25.3833 63.55 27.65C63.6167 29.3833 63.4 31.0833 62.9 32.75L64 32.75L64 35.7L60.25 35.7C59.55 36.0666 58.85 36.4167 58.15 36.75L55.05 34.8C54.3833 36.9667 53.2667 38.5667 51.7 39.6C51.0667 39.8333 50.45 40.05 49.85 40.25L49.8 40.25C47.1667 41.1833 44.5334 41.9833 41.9 42.65C38.9334 43.35 35.9667 43.85 33 44.15C30.1333 43.85 27.25 43.3833 24.35 42.75C22.3833 41.65 21.4 40.0833 21.4 38.05L16.2 40.25C15.1333 39.8833 14.0833 39.4833 13.05 39.05L13.35 41.35C14.0833 41.6167 14.8167 41.8833 15.55 42.15C16.0167 42.3167 16.5 42.3 17 42.1L19.9 40.85C20.5334 42.35 21.7 43.5667 23.4 44.5C23.5667 44.5667 23.7334 44.6333 23.9 44.7C26.8667 45.3666 29.8333 45.85 32.8 46.15L33.2 46.15C36.2667 45.85 39.3166 45.3333 42.35 44.6L42.4 44.6C45.0334 43.9333 47.65 43.1333 50.25 42.2C50.35 42.1666 50.45 42.15 50.55 42.15C51.15 41.9167 51.7667 41.6833 52.4 41.45C52.5334 41.4166 52.65 41.3667 52.75 41.3C54.1167 40.4667 55.2 39.3 56 37.8L57.1 38.45C57.3666 38.6166 57.6833 38.7167 58.05 38.75C58.3833 38.7833 58.7167 38.7167 59.05 38.55C59.6167 38.2833 60.1833 38 60.75 37.7L64 37.7C64.5667 37.7 65.05 37.5167 65.45 37.15C65.8167 36.75 66 36.2666 66 35.7L66 32.75C66 32.1833 65.8167 31.7167 65.45 31.35L65.35 31.25C65.5166 30.0833 65.5833 28.9333 65.55 27.8L65.55 27.7C65.7167 25.3333 65.5 22.5833 64.9 19.45C64.8334 19.05 64.65 18.7 64.35 18.4C64.0833 18.1 63.75 17.9167 63.35 17.85C63.2166 17.8167 63.0667 17.8 62.9 17.8L62.9 17.8ZM17.15 9.44998C17.15 9.18332 17.0833 8.96665 16.95 8.79999C16.7833 8.59999 16.5833 8.48332 16.35 8.44998C16.0833 8.38332 15.85 8.41665 15.65 8.54999C15.4167 8.68332 15.2667 8.86667 15.2 9.10001L11.55 19.85C11.4833 20.05 11.4833 20.2667 11.55 20.5C11.6167 20.7 11.75 20.8667 11.95 21L15.2 23.25C15.4 23.3833 15.6166 23.4333 15.85 23.4C16.0833 23.3667 16.3 23.2667 16.5 23.1C16.6667 22.9 16.75 22.6833 16.75 22.45L17.15 9.44998L17.15 9.44998ZM49.4 13.7C49.3334 13.4333 49.2 13.2333 49 13.1C48.7667 12.9333 48.5333 12.8667 48.3 12.9C48.0333 12.9333 47.8167 13.05 47.65 13.25C47.4834 13.45 47.4 13.6833 47.4 13.95L47.55 20.2L47.8 34.95C47.8 35.15 47.8667 35.3333 48 35.5C48.1 35.6333 48.25 35.75 48.45 35.85C48.65 35.9167 48.85 35.9333 49.05 35.9C49.15 35.8667 49.25 35.8333 49.35 35.8C49.4166 35.7333 49.4833 35.6667 49.55 35.6L52.8 32C52.9 31.8667 52.9833 31.7167 53.05 31.55C53.0833 31.4167 53.0833 31.2667 53.05 31.1L49.4 13.7L49.4 13.7ZM14.8 20.55L13.7 19.8L14.95 16.15L14.8 20.55L14.8 20.55ZM51 31.05L49.75 32.4L49.6 24.35L51 31.05L51 31.05Z" id="Vector__segel_1@svg" fill="#B1A691" fill-rule="evenodd" stroke="none"/>
                <path d="M13.75 5.35001L20.15 5.35001L20.15 2L13.75 2L13.75 5.35001L13.75 5.35001ZM52.2 5.35001L52.2 2L45.8 2L45.8 5.35001L52.2 5.35001L52.2 5.35001Z" id="Vector__segel_1@svg" fill="#AF783E" fill-rule="evenodd" stroke="none"/>
            </g>
        </g>
    </symbol>
    <symbol id="segel_2@svg" width="66px" height="46.149994px" viewBox="0 0 66 46.149994" xmlns="http://www.w3.org/2000/svg">
        <g id="segel_2__segel_2@svg">
            <g id="Layer0_54_FILL__segel_2@svg">
                <path d="M6.45001 5.35001L13.75 5.35001L13.75 2L6.45001 2L6.45001 5.35001L6.45001 5.35001ZM45.8 5.35001L45.8 2L41.2 2L39.2 4L37.2 2L20.15 2L20.15 5.35001L45.8 5.35001L45.8 5.35001ZM59.6 5.35001L59.6 2L52.2 2L52.2 5.35001L59.6 5.35001L59.6 5.35001ZM2 35.7L5.75 35.7C5.05 35.3333 4.35002 34.95 3.65002 34.55C3.41669 33.95 3.21665 33.35 3.04999 32.75L2 32.75L2 35.7L2 35.7ZM62.9 32.75C62.7667 33.35 62.6 33.95 62.4 34.55C61.7 34.95 60.9833 35.3333 60.25 35.7L64 35.7L64 32.75L62.9 32.75L62.9 32.75Z" id="Vector__segel_2@svg" fill="#956635" fill-rule="evenodd" stroke="none"/>
                <path d="M3.90005 22.3L2.70004 21.95L2.70004 22C2.40004 24.0666 2.30005 25.95 2.40005 27.65C2.36672 29.3833 2.58335 31.0833 3.05001 32.75C3.21668 33.35 3.41672 33.95 3.65005 34.55C4.35005 34.95 5.05003 35.3333 5.75003 35.7C8.08336 36.9333 10.45 38.0333 12.85 39C12.9166 39 12.9833 39.0167 13.05 39.05L12.6 35.95L7.1 34.1L6.00003 27.75L5.1 22.6L3.90005 22.3L3.90005 22.3ZM59.25 36.25L56.4 29.25C55.4667 26.8833 54.5333 24.5333 53.6 22.2L51.3 22.2L54.4501 36.4C54.6833 35.9 54.8834 35.3667 55.05 34.8L58.15 36.75C58.4833 36.5833 58.8333 36.4334 59.2001 36.3C59.2001 36.2667 59.2166 36.25 59.25 36.25L59.25 36.25ZM44 30.05L40.7001 30.05L34.4501 44L34.5 44C35.7001 43.8333 36.9 43.65 38.1 43.45C40.4666 39.2833 42.4333 34.8167 44 30.05L44 30.05Z" id="Vector__segel_2@svg" fill="#5C7070" fill-rule="evenodd" stroke="none"/>
                <path d="M0.599976 31.35C0.199976 31.7167 0 32.1833 0 32.75L0 35.7C0 36.2667 0.199976 36.75 0.599976 37.15C0.966642 37.5167 1.43333 37.7 2 37.7L5.25 37.7C7.58333 38.9 9.94998 39.9667 12.35 40.9L12.3 40.9C12.5333 41 12.7833 41.1 13.05 41.2L12.85 39C10.45 38.0333 8.08333 36.9333 5.75 35.7L2 35.7L2 32.75L3.04999 32.75C2.58332 31.0833 2.36669 29.3833 2.40002 27.65C2.30002 25.95 2.40001 24.0666 2.70001 22L0.75 21.5L0.75 21.7C0.416667 23.9333 0.300024 25.9667 0.400024 27.8C0.400024 28.9667 0.500012 30.1166 0.700012 31.25C0.633346 31.2833 0.599976 31.3167 0.599976 31.35L0.599976 31.35ZM51.3 22.2L49.25 22.2L52.5 36.8C52.6 37.2334 52.8167 37.6 53.15 37.9C53.45 38.1667 53.8167 38.3334 54.25 38.4C54.65 38.4334 55.05 38.35 55.45 38.15C55.6167 38.0167 55.7833 37.8833 55.95 37.75L57.1 38.45C57.3666 38.6167 57.6833 38.7167 58.05 38.75C58.3833 38.7833 58.7 38.7167 59 38.55C59.3 38.4167 59.6 38.2834 59.9 38.15L59.2 36.3C58.8333 36.4334 58.4834 36.5833 58.15 36.75L55.05 34.8C54.8833 35.3667 54.6833 35.9 54.45 36.4L51.3 22.2L51.3 22.2ZM45.9 30.7C45.9667 30.4666 46.0333 30.25 46.1 30.05L44 30.05C42.4333 34.8167 40.4666 39.2833 38.1 43.45C36.9 43.65 35.7 43.8333 34.5 44L33.6 46.1C33.9333 46.0667 34.2834 46.0333 34.65 46L34.7 46C35.9333 45.8333 37.1833 45.65 38.45 45.45C38.75 45.3833 39.0167 45.2667 39.25 45.1C39.4833 44.9 39.6833 44.6833 39.85 44.45C42.2833 40.15 44.3 35.5667 45.9 30.7L45.9 30.7Z" id="Vector__segel_2@svg" fill="#465656" fill-rule="evenodd" stroke="none"/>
                <path d="M20.15 5.35001L13.75 5.35001L6 27.75L7.09998 34.1L12.6 35.95L13.05 39.05C14.0833 39.4833 15.1334 39.8833 16.2 40.25L20.15 5.35001L20.15 5.35001ZM52.2 5.35001L45.8 5.35001L47.4 15.55L47.4 13.95C47.4 13.6833 47.4834 13.45 47.65 13.25C47.8167 13.05 48.0333 12.9333 48.3 12.9C48.5333 12.8667 48.7667 12.9333 49 13.1C49.2 13.2333 49.3334 13.4333 49.4 13.7L51.3 22.2L53.6 22.2C54.5333 24.5333 55.4667 26.8833 56.4 29.25L59.25 36.25C59.5833 36.05 59.9167 35.8666 60.25 35.7C60.9833 35.3333 61.7 34.95 62.4 34.55L52.2 5.35001L52.2 5.35001ZM16.35 8.44999C16.5833 8.48332 16.7833 8.60002 16.95 8.80002C17.0833 8.96669 17.15 9.18332 17.15 9.44999L16.75 22.45C16.75 22.6833 16.6667 22.9 16.5 23.1C16.3 23.2667 16.0833 23.3667 15.85 23.4C15.6166 23.4333 15.4 23.3833 15.2 23.25L11.95 21C11.75 20.8666 11.6166 20.7 11.55 20.5C11.4833 20.2666 11.4833 20.05 11.55 19.85L15.2 9.10001C15.2667 8.86668 15.4167 8.68336 15.65 8.55002C15.85 8.41669 16.0833 8.38332 16.35 8.44999L16.35 8.44999Z" id="Vector__segel_2@svg" fill="#FFF1D2" fill-rule="evenodd" stroke="none"/>
                <path d="M61.6 5.35001L61.6 2C61.6 1.43333 61.4167 0.966673 61.05 0.600006C60.65 0.200006 60.1666 0 59.6 0L41.2 0C40.6333 0 40.1667 0.200006 39.8 0.600006L39.2 1.14999L38.65 0.600006C38.25 0.200006 37.7667 0 37.2 0L6.45001 0C5.88335 0 5.41665 0.200006 5.04999 0.600006C4.64999 0.966673 4.45001 1.43333 4.45001 2L4.45001 5.35001C4.45001 5.78334 4.56665 6.16664 4.79999 6.49997C4.66665 6.8333 4.55001 7.16664 4.45001 7.49997C4.38335 7.66664 4.33332 7.8333 4.29999 7.99997C4.06665 10.8 4.45001 13.3666 5.45001 15.7L2.15002 17.6C1.88336 17.7333 1.66667 17.9333 1.5 18.2C1.33333 18.4333 1.21669 18.6833 1.15002 18.95C0.983358 19.8166 0.85 20.6666 0.75 21.5L2.70001 22L2.70001 21.95C2.80001 21.1166 2.95002 20.25 3.15002 19.35L8.09998 16.45C6.66664 14.0166 6.06665 11.25 6.29999 8.14999C6.63332 7.24999 6.98331 6.31667 7.34998 5.35001L6.45001 5.35001L6.45001 2L37.2 2L39.2 4L41.2 2L59.6 2L59.6 5.35001L58.65 5.35001C59.2834 7.05001 59.8667 8.70002 60.4 10.3C61.2 13.8 61.2 17.3 60.4 20.8L62.95 19.8C63.4833 22.7667 63.6833 25.3833 63.55 27.65C63.6167 29.3833 63.4 31.0833 62.9 32.75L64 32.75L64 35.7L60.25 35.7C59.9167 35.8666 59.5833 36.05 59.25 36.25C59.2167 36.25 59.2 36.2667 59.2 36.3L59.9 38.15C59.9667 38.1167 60.05 38.0834 60.15 38.05C60.15 38.0167 60.1667 38 60.2 38C60.3667 37.9 60.55 37.8 60.75 37.7L64 37.7C64.5667 37.7 65.05 37.5167 65.45 37.15C65.8167 36.75 66 36.2666 66 35.7L66 32.75C66 32.1833 65.8167 31.7167 65.45 31.35L65.35 31.25C65.5166 30.0833 65.5833 28.9334 65.55 27.8L65.55 27.7C65.6833 25.3 65.4833 22.55 64.95 19.45C64.85 19.05 64.6667 18.7166 64.4 18.45C64.1 18.15 63.7667 17.95 63.4 17.85C63.2334 17.8167 63.0667 17.8 62.9 17.8C63.1334 15.1667 62.95 12.5167 62.35 9.85001C62.35 9.78334 62.3333 9.73332 62.3 9.69998C61.9667 8.66665 61.6167 7.61668 61.25 6.55002C61.4833 6.21668 61.6 5.81667 61.6 5.35001L61.6 5.35001ZM16.95 8.80002C16.7833 8.60002 16.5833 8.48332 16.35 8.44998C16.0833 8.38332 15.85 8.41669 15.65 8.55002C15.4167 8.68335 15.2667 8.86667 15.2 9.10001L11.55 19.85C11.4833 20.05 11.4833 20.2666 11.55 20.5C11.6167 20.7 11.75 20.8666 11.95 21L15.2 23.25C15.4 23.3833 15.6166 23.4333 15.85 23.4C16.0833 23.3667 16.3 23.2667 16.5 23.1C16.6667 22.9 16.75 22.6833 16.75 22.45L17.15 9.44998C17.15 9.18332 17.0833 8.96669 16.95 8.80002L16.95 8.80002ZM49 13.1C48.7667 12.9333 48.5333 12.8667 48.3 12.9C48.0333 12.9333 47.8167 13.05 47.65 13.25C47.4834 13.45 47.4 13.6833 47.4 13.95L47.4 15.55C47.0667 17.8167 46.65 20.0333 46.15 22.2C45.55 24.9 44.8333 27.5167 44 30.05L46.1 30.05C46.9 27.5167 47.6 24.9 48.2 22.2C48.3667 21.4 48.5333 20.6 48.7 19.8L49.25 22.2L51.3 22.2L49.4 13.7C49.3334 13.4333 49.2 13.2333 49 13.1L49 13.1ZM14.8 20.55L13.7 19.8L14.95 16.15L14.8 20.55L14.8 20.55ZM33.6 46.1L34.5 44L34.45 44C33.95 44.0666 33.4667 44.1167 33 44.15C30.1333 43.85 27.25 43.3833 24.35 42.75C22.3833 41.65 21.4 40.0834 21.4 38.05L16.2 40.25C15.1333 39.8833 14.0833 39.4834 13.05 39.05C12.9833 39.0167 12.9166 39 12.85 39L13.05 41.2C13.85 41.5333 14.6833 41.85 15.55 42.15C16.0167 42.3167 16.5 42.3 17 42.1L19.9 40.85C20.5 42.3167 21.6667 43.5333 23.4 44.5C23.5667 44.6 23.75 44.6666 23.95 44.7C26.9167 45.3666 29.8667 45.85 32.8 46.15L33.2 46.15C33.3333 46.15 33.4666 46.1333 33.6 46.1L33.6 46.1Z" id="Vector__segel_2@svg" fill="#B1A691" fill-rule="evenodd" stroke="none"/>
                <path d="M13.75 5.35001L20.15 5.35001L20.15 2L13.75 2L13.75 5.35001L13.75 5.35001ZM45.8 2L45.8 5.35001L52.2 5.35001L52.2 2L45.8 2L45.8 2Z" id="Vector__segel_2@svg" fill="#AF783E" fill-rule="evenodd" stroke="none"/>
                <path d="M7.34997 5.35001C6.98331 6.31667 6.63332 7.25 6.29999 8.15C6.06665 11.25 6.66664 14.0166 8.09997 16.45L3.15002 19.35C2.95002 20.25 2.80001 21.1166 2.70001 21.95L3.90002 22.3C4.30002 22.4 4.69997 22.5 5.09997 22.6L6 27.75L13.75 5.35001L7.34997 5.35001L7.34997 5.35001ZM46.15 22.2C46.65 20.0333 47.0667 17.8167 47.4 15.55L45.8 5.35001L20.15 5.35001L16.2 40.25L21.4 38.05C21.4 40.0833 22.3833 41.65 24.35 42.75C27.25 43.3833 30.1333 43.85 33 44.15C33.4667 44.1167 33.95 44.0666 34.45 44L40.7 30.05L44 30.05C44.8333 27.5167 45.55 24.9 46.15 22.2L46.15 22.2ZM62.4 34.55C62.6 33.95 62.7667 33.35 62.9 32.75C63.4 31.0833 63.6166 29.3833 63.55 27.65C63.6833 25.3833 63.4833 22.7667 62.95 19.8L60.4 20.8C61.2 17.3 61.2 13.8 60.4 10.3C59.8667 8.70002 59.2833 7.05001 58.65 5.35001L52.2 5.35001L62.4 34.55L62.4 34.55Z" id="Vector__segel_2@svg" fill="#F3E5C8" fill-rule="evenodd" stroke="none"/>
            </g>
        </g>
    </symbol>
    <symbol id="segel_3@svg" width="66px" height="46.150024px" viewBox="0 0 66 46.150024" xmlns="http://www.w3.org/2000/svg">
        <g id="segel_3__segel_3@svg">
            <g id="Layer0_86_FILL__segel_3@svg">
                <path d="M6.45001 2L6.45001 5.35004L13.75 5.35004L13.75 2L6.45001 2L6.45001 2ZM41.2 2L39.2 4L37.2 2L20.15 2L20.15 5.35004L45.8 5.35004L45.8 2L41.2 2L41.2 2ZM59.6 2L52.2 2L52.2 5.35004L59.6 5.35004L59.6 2L59.6 2ZM2 35.7L5.75 35.7C5.05 35.3333 4.35002 34.9501 3.65002 34.55C3.41669 33.95 3.21665 33.35 3.04999 32.75L2 32.75L2 35.7L2 35.7ZM64 35.7L64 32.75L62.9 32.75C62.7667 33.35 62.6 33.95 62.4 34.55C61.7 34.9501 60.9833 35.3333 60.25 35.7L64 35.7L64 35.7Z" id="Vector__segel_3@svg" fill="#748C8E" fill-rule="evenodd" stroke="none"/>
                <path d="M2.40002 27.65C2.30002 25.95 2.40001 24.0667 2.70001 22L0.75 21.5L0.75 21.7C0.416667 23.9333 0.300024 25.9667 0.400024 27.8001C0.400024 28.9667 0.500012 30.1167 0.700012 31.25C0.633346 31.2833 0.599976 31.3167 0.599976 31.35C0.199976 31.7167 0 32.1833 0 32.75L0 35.7C0 36.2667 0.199976 36.75 0.599976 37.15C0.966642 37.5167 1.43333 37.7 2 37.7L5.25 37.7C7.58333 38.9 9.94998 39.9667 12.35 40.9L12.3 40.9C12.5333 41 12.7833 41.1 13.05 41.2L12.85 39C10.45 38.0333 8.08333 36.9333 5.75 35.7L2 35.7L2 32.75L3.04999 32.75C2.58332 31.0833 2.36669 29.3834 2.40002 27.65L2.40002 27.65ZM51.3 22.2L49.25 22.2L52.5 36.8C52.6 37.2334 52.8167 37.6 53.15 37.9C53.45 38.1667 53.8167 38.3334 54.25 38.4C54.65 38.4334 55.05 38.35 55.45 38.15C55.6167 38.0167 55.7833 37.8833 55.95 37.75L57.1 38.45C57.3666 38.6167 57.6833 38.7167 58.05 38.75C58.3833 38.7833 58.7 38.7167 59 38.55C59.3 38.4167 59.6 38.2834 59.9 38.15L59.2 36.3C58.8333 36.4334 58.4834 36.5833 58.15 36.75L55.05 34.8C54.8833 35.3667 54.6833 35.9 54.45 36.4L51.3 22.2L51.3 22.2ZM45.9 30.7C45.9667 30.4667 46.0333 30.25 46.1 30.05L44 30.05C42.4333 34.8167 40.4666 39.2833 38.1 43.45C36.9 43.65 35.7 43.8333 34.5 44L33.6 46.1C33.9333 46.0667 34.2834 46.0333 34.65 46L34.7 46C35.9333 45.8333 37.1833 45.65 38.45 45.45C38.75 45.3833 39.0167 45.2667 39.25 45.1C39.4833 44.9 39.6833 44.6833 39.85 44.45C42.2833 40.15 44.3 35.5667 45.9 30.7L45.9 30.7Z" id="Vector__segel_3@svg" fill="#465656" fill-rule="evenodd" stroke="none"/>
                <path d="M3.90005 22.3L2.70004 21.95L2.70004 22C2.40004 24.0667 2.30005 25.95 2.40005 27.65C2.36672 29.3834 2.58335 31.0833 3.05001 32.75C3.21668 33.35 3.41672 33.95 3.65005 34.55C4.35005 34.95 5.05003 35.3333 5.75003 35.7C8.08336 36.9333 10.45 38.0333 12.85 39C12.9166 39 12.9833 39.0167 13.05 39.05L12.6 35.95L7.1 34.1L6.00003 27.75L5.1 22.6L3.90005 22.3L3.90005 22.3ZM56.4 29.25C55.4667 26.8833 54.5333 24.5333 53.6 22.2L51.3 22.2L54.4501 36.4C54.6833 35.9 54.8834 35.3667 55.05 34.8L58.15 36.75C58.4833 36.5833 58.8333 36.4334 59.2001 36.3C59.2001 36.2667 59.2166 36.25 59.25 36.25L56.4 29.25L56.4 29.25ZM34.5 44C35.7001 43.8333 36.9 43.65 38.1 43.45C40.4666 39.2833 42.4333 34.8167 44 30.0501L40.7001 30.0501L34.4501 44L34.5 44L34.5 44Z" id="Vector__segel_3@svg" fill="#5C7070" fill-rule="evenodd" stroke="none"/>
                <path d="M13.75 5.35004L7.34997 5.35004C6.98331 6.3167 6.63332 7.25003 6.29999 8.15003C6.06665 11.25 6.66664 14.0167 8.09997 16.45L3.15002 19.35C2.95002 20.25 2.80001 21.1166 2.70001 21.95L3.90002 22.3C4.30002 22.4 4.69997 22.5 5.09997 22.6L6 27.75L13.75 5.35004L13.75 5.35004ZM44 30.05C44.8333 27.5167 45.55 24.9 46.15 22.2C46.65 20.0333 47.0667 17.8167 47.4 15.55L45.8 5.35004L20.15 5.35004L16.2 40.25L21.4 38.05C21.4 40.0833 22.3833 41.65 24.35 42.75C27.25 43.3833 30.1333 43.85 33 44.15C33.4667 44.1167 33.95 44.0666 34.45 44L40.7 30.05L44 30.05L44 30.05ZM58.65 5.35004L52.2 5.35004L62.4 34.55C62.6 33.95 62.7667 33.35 62.9 32.75C63.4 31.0833 63.6166 29.3833 63.55 27.65C63.6833 25.3833 63.4833 22.7667 62.95 19.8L60.4 20.8C61.2 17.3 61.2 13.8 60.4 10.3C59.8667 8.70005 59.2833 7.05004 58.65 5.35004L58.65 5.35004Z" id="Vector__segel_3@svg" fill="#5F7374" fill-rule="evenodd" stroke="none"/>
                <path d="M20.15 5.35004L13.75 5.35004L6 27.75L7.09998 34.1L12.6 35.95L13.05 39.05C14.0833 39.4833 15.1334 39.8833 16.2 40.25L20.15 5.35004L20.15 5.35004ZM52.2 5.35004L45.8 5.35004L47.4 15.55L47.4 13.95C47.4 13.6833 47.4834 13.45 47.65 13.25C47.8167 13.05 48.0333 12.9334 48.3 12.9C48.5333 12.8667 48.7667 12.9334 49 13.1C49.2 13.2334 49.3334 13.4333 49.4 13.7L51.3 22.2L53.6 22.2C54.5333 24.5333 55.4667 26.8833 56.4 29.25L59.25 36.25C59.5833 36.05 59.9167 35.8666 60.25 35.7C60.9833 35.3333 61.7 34.95 62.4 34.55L52.2 5.35004L52.2 5.35004ZM15.2 9.10004C15.2667 8.86671 15.4167 8.68339 15.65 8.55005C15.85 8.41672 16.0833 8.38335 16.35 8.45002C16.5833 8.48335 16.7833 8.60005 16.95 8.80005C17.0833 8.96672 17.15 9.18335 17.15 9.45002L16.75 22.45C16.75 22.6833 16.6667 22.9 16.5 23.1C16.3 23.2667 16.0833 23.3667 15.85 23.4C15.6166 23.4333 15.4 23.3833 15.2 23.25L11.95 21C11.75 20.8666 11.6166 20.7 11.55 20.5C11.4833 20.2666 11.4833 20.05 11.55 19.85L15.2 9.10004L15.2 9.10004Z" id="Vector__segel_3@svg" fill="#677C7E" fill-rule="evenodd" stroke="none"/>
                <path d="M41.2 0C40.6333 0 40.1667 0.200037 39.8 0.600037L39.2 1.15002L38.65 0.600037C38.25 0.200037 37.7667 0 37.2 0L6.45001 0C5.88335 0 5.41665 0.200037 5.04999 0.600037C4.64999 0.966703 4.45001 1.43333 4.45001 2L4.45001 5.35004C4.45001 5.78337 4.56665 6.16667 4.79999 6.5C4.66665 6.83333 4.55001 7.16667 4.45001 7.5C4.38335 7.66667 4.33332 7.83333 4.29999 8C4.06665 10.8 4.45001 13.3667 5.45001 15.7L2.15002 17.6C1.88336 17.7334 1.66667 17.9333 1.5 18.2C1.33333 18.4333 1.21669 18.6833 1.15002 18.95C0.983358 19.8167 0.85 20.6667 0.75 21.5L2.70001 22L2.70001 21.95C2.80001 21.1167 2.95002 20.25 3.15002 19.35L8.09998 16.45C6.66664 14.0167 6.06665 11.25 6.29999 8.15002C6.63332 7.25002 6.98331 6.3167 7.34998 5.35004L6.45001 5.35004L6.45001 2L37.2 2L39.2 4L41.2 2L59.6 2L59.6 5.35004L58.65 5.35004C59.2834 7.05004 59.8667 8.70005 60.4 10.3C61.2 13.8 61.2 17.3 60.4 20.8L62.95 19.8C63.4833 22.7667 63.6833 25.3834 63.55 27.65C63.6167 29.3834 63.4 31.0833 62.9 32.75L64 32.75L64 35.7L60.25 35.7C59.9167 35.8667 59.5833 36.05 59.25 36.25C59.2167 36.25 59.2 36.2667 59.2 36.3L59.9 38.15C59.9667 38.1167 60.05 38.0834 60.15 38.05C60.15 38.0167 60.1667 38 60.2 38C60.3667 37.9 60.55 37.8 60.75 37.7L64 37.7C64.5667 37.7 65.05 37.5167 65.45 37.15C65.8167 36.75 66 36.2667 66 35.7L66 32.75C66 32.1833 65.8167 31.7167 65.45 31.35L65.35 31.25C65.5166 30.0833 65.5833 28.9334 65.55 27.8L65.55 27.7C65.6833 25.3 65.4833 22.55 64.95 19.45C64.85 19.05 64.6667 18.7167 64.4 18.45C64.1 18.15 63.7667 17.95 63.4 17.85C63.2334 17.8167 63.0667 17.8 62.9 17.8C63.1334 15.1667 62.95 12.5167 62.35 9.85004C62.35 9.78337 62.3333 9.73335 62.3 9.70001C61.9667 8.66668 61.6167 7.61672 61.25 6.55005C61.4833 6.21672 61.6 5.8167 61.6 5.35004L61.6 2C61.6 1.43333 61.4167 0.966703 61.05 0.600037C60.65 0.200037 60.1666 0 59.6 0L41.2 0L41.2 0ZM15.65 8.55005C15.4167 8.68338 15.2667 8.8667 15.2 9.10004L11.55 19.85C11.4833 20.05 11.4833 20.2667 11.55 20.5C11.6167 20.7 11.75 20.8667 11.95 21L15.2 23.25C15.4 23.3833 15.6166 23.4334 15.85 23.4C16.0833 23.3667 16.3 23.2667 16.5 23.1C16.6667 22.9 16.75 22.6833 16.75 22.45L17.15 9.45001C17.15 9.18335 17.0833 8.96672 16.95 8.80005C16.7833 8.60005 16.5833 8.48335 16.35 8.45001C16.0833 8.38335 15.85 8.41672 15.65 8.55005L15.65 8.55005ZM49.4 13.7C49.3334 13.4333 49.2 13.2334 49 13.1C48.7667 12.9334 48.5333 12.8667 48.3 12.9C48.0333 12.9334 47.8167 13.05 47.65 13.25C47.4834 13.45 47.4 13.6833 47.4 13.95L47.4 15.55C47.0667 17.8167 46.65 20.0333 46.15 22.2C45.55 24.9 44.8333 27.5167 44 30.05L46.1 30.05C46.9 27.5167 47.6 24.9 48.2 22.2C48.3667 21.4 48.5333 20.6 48.7 19.8L49.25 22.2L51.3 22.2L49.4 13.7L49.4 13.7ZM14.8 20.55L13.7 19.8L14.95 16.15L14.8 20.55L14.8 20.55ZM34.5 44L34.45 44C33.95 44.0667 33.4667 44.1167 33 44.15C30.1333 43.85 27.25 43.3833 24.35 42.75C22.3833 41.65 21.4 40.0834 21.4 38.05L16.2 40.25C15.1333 39.8833 14.0833 39.4834 13.05 39.05C12.9833 39.0167 12.9166 39 12.85 39L13.05 41.2C13.85 41.5333 14.6833 41.85 15.55 42.15C16.0167 42.3167 16.5 42.3 17 42.1L19.9 40.85C20.5 42.3167 21.6667 43.5333 23.4 44.5C23.5667 44.6 23.75 44.6667 23.95 44.7C26.9167 45.3667 29.8667 45.85 32.8 46.15L33.2 46.15C33.3333 46.15 33.4666 46.1334 33.6 46.1L34.5 44L34.5 44Z" id="Vector__segel_3@svg" fill="#465556" fill-rule="evenodd" stroke="none"/>
                <path d="M20.15 2L13.75 2L13.75 5.35004L20.15 5.35004L20.15 2L20.15 2ZM45.8 2L45.8 5.35004L52.2 5.35004L52.2 2L45.8 2L45.8 2Z" id="Vector__segel_3@svg" fill="#809A9C" fill-rule="evenodd" stroke="none"/>
            </g>
        </g>
    </symbol>
    <symbol id="vormast@svg" width="10.600006px" height="10.600006px" viewBox="0 0 10.600006 10.600006" xmlns="http://www.w3.org/2000/svg">
        <g id="vormast__vormast@svg">
            <g id="Layer0_71_MEMBER_4_FILL__vormast@svg">
                <path d="M1.60001 1.5C1.56667 1.53333 1.53333 1.56667 1.5 1.60001C0.5 2.63334 0 3.86667 0 5.3C0 6.76667 0.516685 8.01667 1.55002 9.05C2.61668 10.0833 3.86668 10.6 5.30002 10.6C6.73335 10.6 7.96667 10.0833 9 9.05C9 9.01667 9.01668 9 9.05002 9C10.0834 7.96667 10.6 6.73334 10.6 5.3C10.6 3.86667 10.0834 2.61667 9.05002 1.55C8.01669 0.51667 6.76669 0 5.30002 0C3.86668 0 2.63334 0.5 1.60001 1.5L1.60001 1.5ZM5.30002 2C6.20002 2 6.96667 2.31667 7.60001 2.95C8.26667 3.61667 8.60001 4.4 8.60001 5.3C8.60001 6.2 8.26667 6.96667 7.60001 7.60001C6.96667 8.26667 6.20002 8.60001 5.30002 8.60001C4.40002 8.60001 3.61668 8.26667 2.95001 7.60001C2.31668 6.96667 2 6.2 2 5.3C2 4.4 2.31668 3.61667 2.95001 2.95C3.61668 2.31667 4.40002 2 5.30002 2L5.30002 2Z" id="Vector__vormast@svg" fill="#5C7072" fill-rule="evenodd" stroke="none"/>
                <path d="M7.60001 2.95001C6.96667 2.31667 6.20002 2 5.30002 2C4.40002 2 3.61668 2.31667 2.95001 2.95001C2.31668 3.61667 2 4.4 2 5.3C2 6.2 2.31668 6.96667 2.95001 7.60001C3.61668 8.26667 4.40002 8.60001 5.30002 8.60001C6.20002 8.60001 6.96667 8.26667 7.60001 7.60001C8.26667 6.96667 8.60001 6.2 8.60001 5.3C8.60001 4.4 8.26667 3.61667 7.60001 2.95001L7.60001 2.95001ZM6.45001 4.10001C6.78335 4.43334 6.95001 4.83334 6.95001 5.3C6.95001 5.73334 6.78335 6.11667 6.45001 6.45C6.11668 6.78334 5.73335 6.95 5.30002 6.95C4.83335 6.95 4.43334 6.78334 4.10001 6.45C3.80001 6.11667 3.64999 5.73334 3.64999 5.3C3.64999 4.83334 3.80001 4.43334 4.10001 4.10001C4.43334 3.80001 4.83335 3.65 5.30002 3.65C5.73335 3.65 6.11668 3.80001 6.45001 4.10001L6.45001 4.10001Z" id="Vector__vormast@svg" fill="#95B4B6" fill-rule="evenodd" stroke="none"/>
                <path d="M6.95001 5.3C6.95001 4.83333 6.78334 4.43334 6.45001 4.10001C6.11668 3.80001 5.73335 3.65 5.30001 3.65C4.83335 3.65 4.43334 3.80001 4.10001 4.10001C3.80001 4.43334 3.64999 4.83333 3.64999 5.3C3.64999 5.73333 3.80001 6.11667 4.10001 6.45C4.43334 6.78334 4.83335 6.95 5.30001 6.95C5.73335 6.95 6.11668 6.78334 6.45001 6.45C6.78334 6.11667 6.95001 5.73333 6.95001 5.3L6.95001 5.3Z" id="Vector__vormast@svg" fill="#7E989A" fill-rule="evenodd" stroke="none"/>
            </g>
        </g>
    </symbol>
    <symbol id="vorsegel@svg" width="42.002075px" height="8.024994px" viewBox="0 0 42.002075 8.024994" xmlns="http://www.w3.org/2000/svg">
        <g id="vorsegel__vorsegel@svg">
            <g id="Layer0_71_MEMBER_5_FILL__vorsegel@svg">
                <path d="M3.60001 0C3.03334 0 2.51667 0.100003 2.05 0.300003C1.71667 0.433336 1.40001 0.616665 1.10001 0.849998L1.05 0.900002C0.350003 1.53333 0 2.25 0 3.05L0 3.10001C0 3.90001 0.350003 4.61667 1.05 5.25C1.08334 5.28333 1.13333 5.31667 1.2 5.35001C1.83333 5.78334 2.53334 6.03334 3.3 6.10001C14.4333 8.66667 26.2167 8.66667 38.65 6.10001C39.45 6.03334 40.15 5.78334 40.75 5.35001C41.6167 4.71667 42.0333 3.96667 42 3.10001L42 3.05C42.0333 2.25 41.6667 1.53333 40.9 0.900002C40.6 0.666668 40.3 0.483332 40 0.349998C39.5 0.116665 38.95 0 38.35 0L3.60001 0L3.60001 0ZM3.14999 1.8C3.28333 1.76667 3.43334 1.75 3.60001 1.75L38.35 1.75C38.5167 1.75 38.6667 1.76667 38.8 1.8C39.0333 1.86667 39.25 1.98333 39.45 2.15C39.8167 2.41667 40 2.71667 40 3.05L40 3.10001C40 3.43334 39.8167 3.73333 39.45 4C39.15 4.23333 38.7833 4.35001 38.35 4.35001C26.1167 6.91667 14.5333 6.91667 3.60001 4.35001C3.16667 4.35001 2.78333 4.23333 2.45 4C2.15 3.73333 2 3.43334 2 3.10001L2 3.05C2 2.71667 2.15 2.41667 2.45 2.15C2.65 1.98333 2.88333 1.86667 3.14999 1.8L3.14999 1.8Z" id="Vector__vorsegel@svg" fill="#956635" fill-rule="evenodd" stroke="none"/>
                <path d="M2 3.05L2 3.1C2 3.43334 2.15 3.73333 2.45 4C2.78333 4.23333 3.16667 4.35 3.60001 4.35C14.5333 6.91667 26.1167 6.91667 38.35 4.35C38.7833 4.35 39.15 4.23333 39.45 4C39.8167 3.73333 40 3.43334 40 3.1L40 3.05C40 2.71667 39.8167 2.41667 39.45 2.15C39.25 1.98334 39.0333 1.86667 38.8 1.8C38.6667 1.83334 38.5167 1.85 38.35 1.85C26.1167 4.41666 14.5333 4.41666 3.60001 1.85C3.43334 1.85 3.28333 1.83334 3.14999 1.8C2.88333 1.86667 2.65 1.98334 2.45 2.15C2.15 2.41667 2 2.71667 2 3.05L2 3.05Z" id="Vector__vorsegel@svg" fill="#F3E5C8" fill-rule="evenodd" stroke="none"/>
                <path d="M3.60001 1.75C3.43334 1.75 3.28333 1.76667 3.14999 1.8C3.28333 1.83334 3.43334 1.85 3.60001 1.85C14.5333 4.41667 26.1167 4.41667 38.35 1.85C38.5167 1.85 38.6667 1.83334 38.8 1.8C38.6667 1.76667 38.5167 1.75 38.35 1.75L3.60001 1.75L3.60001 1.75Z" id="Vector__vorsegel@svg" fill="#FFF1D2" fill-rule="evenodd" stroke="none"/>
            </g>
        </g>
    </symbol>
</svg>