<?xml version="1.0" encoding="utf-8"?>
<svg width="20.003647px" height="18px" viewBox="0 0 20.003647 18" version="1.1" xmlns:xlink="http://www.w3.org/1999/xlink" xmlns="http://www.w3.org/2000/svg">
  <g id="ausguck">
    <g id="Layer0_71_MEMBER_2_FILL">
      <path d="M19.5507 9.55L19.6008 9.5C19.6341 9.43333 19.6674 9.36667 19.7008 9.3C19.9008 8.66667 20.0007 7.98333 20.0007 7.25C20.0674 5.11667 18.9841 3.31667 16.7507 1.85C14.8841 0.616665 12.6341 0 10.0007 0C7.36741 0 5.13408 0.599999 3.30075 1.8L3.25075 1.85C1.05075 3.31667 -0.0325871 5.11667 0.000746269 7.25C0.000746269 7.98333 0.134073 8.66667 0.40074 9.3L0.450743 9.35C0.61741 9.75 0.834086 10.15 1.10075 10.55L3.05075 14.15C3.35075 15.1167 4.06741 15.9667 5.20074 16.7C6.56741 17.5667 8.16741 18 10.0007 18C11.8674 18 13.4507 17.5667 14.7507 16.7C14.7841 16.7 14.8174 16.6833 14.8508 16.65C15.9174 15.95 16.6341 15.15 17.0007 14.25L19.2008 10.25C19.2008 10.2167 19.2174 10.1833 19.2507 10.15L19.5507 9.55L19.5507 9.55ZM17.8508 8.6C17.8174 8.63333 17.8007 8.66666 17.8007 8.7C17.7007 8.9 17.6007 9.08333 17.5007 9.25L15.2008 13.4C14.9674 14.0333 14.4841 14.5833 13.7507 15.05C12.7174 15.7167 11.4674 16.05 10.0007 16.05C8.56741 16.05 7.30076 15.7167 6.20076 15.05C5.50076 14.5833 5.05075 14.0333 4.85075 13.4L2.70074 9.4C2.50074 9.16667 2.33408 8.9 2.20074 8.6C2.03408 8.16667 1.95074 7.71667 1.95074 7.25C1.95074 5.78333 2.73408 4.51667 4.30075 3.45C5.90075 2.45 7.80075 1.95 10.0007 1.95C12.2341 1.95 14.1341 2.45 15.7008 3.45C17.2674 4.51667 18.0507 5.78333 18.0507 7.25C18.0507 7.71667 17.9841 8.16667 17.8508 8.6L17.8508 8.6Z" id="Vector" fill="#6D4B27" fill-rule="evenodd" stroke="none" />
      <path d="M13.3507 10C13.5174 9.9 13.684 9.8 13.8507 9.7C14.3507 9.4 14.734 9.03333 15.0007 8.6C15.0674 8.46666 15.134 8.33333 15.2007 8.2L15.2507 8.15C15.3507 7.85 15.4007 7.55 15.4007 7.25C15.4007 6.25 14.884 5.41667 13.8507 4.75C12.784 4.05 11.5007 3.7 10.0007 3.7C8.56742 3.7 7.30076 4.05 6.20076 4.75C5.16742 5.41667 4.65074 6.25 4.65074 7.25C4.65074 7.55 4.71742 7.85 4.85075 8.15C4.91742 8.35 5.0174 8.53333 5.15074 8.7C5.4174 9.06666 5.76742 9.4 6.20076 9.7C6.36742 9.8 6.53409 9.9 6.70076 10C7.66742 10.5 8.76741 10.75 10.0007 10.75C11.3007 10.75 12.4174 10.5 13.3507 10L13.3507 10ZM17.5007 9.25C17.0674 9.88333 16.4674 10.45 15.7007 10.95C15.4674 11.1167 15.234 11.25 15.0007 11.35C13.5674 12.1167 11.9007 12.5 10.0007 12.5C8.13408 12.5 6.48408 12.1167 5.05075 11.35C4.78408 11.25 4.53408 11.1167 4.30075 10.95C3.60075 10.4833 3.06741 9.96667 2.70074 9.4L4.85075 13.4C5.05075 14.0333 5.50076 14.5833 6.20076 15.05C7.30076 15.7167 8.56741 16.05 10.0007 16.05C11.4674 16.05 12.7174 15.7167 13.7507 15.05C14.484 14.5833 14.9674 14.0333 15.2007 13.4L17.5007 9.25L17.5007 9.25Z" id="Vector" fill="#986835" fill-rule="evenodd" stroke="none" />
      <path d="M17.8007 8.7C17.8007 8.66666 17.8174 8.63333 17.8507 8.6C17.984 8.16666 18.0507 7.71667 18.0507 7.25C18.0507 5.78333 17.2674 4.51667 15.7007 3.45C14.134 2.45 12.234 1.95 10.0007 1.95C7.80074 1.95 5.90075 2.45 4.30075 3.45C2.73408 4.51667 1.95074 5.78333 1.95074 7.25C1.95074 7.71667 2.03408 8.16666 2.20074 8.6C2.33408 8.9 2.50074 9.16667 2.70074 9.4C3.06741 9.96667 3.60075 10.4833 4.30075 10.95C4.53408 11.1167 4.78408 11.25 5.05075 11.35C6.48408 12.1167 8.13408 12.5 10.0007 12.5C11.9007 12.5 13.5674 12.1167 15.0007 11.35C15.234 11.25 15.4674 11.1167 15.7007 10.95C16.4674 10.45 17.0674 9.88333 17.5007 9.25C17.6007 9.08333 17.7007 8.9 17.8007 8.7L17.8007 8.7ZM13.8507 9.7C13.684 9.8 13.5174 9.9 13.3507 10C12.4174 10.5 11.3007 10.75 10.0007 10.75C8.76741 10.75 7.66742 10.5 6.70076 10C6.53409 9.9 6.36742 9.8 6.20076 9.7C5.76742 9.4 5.4174 9.06666 5.15074 8.7C5.0174 8.53333 4.91742 8.35 4.85075 8.15C4.71742 7.85 4.65074 7.55 4.65074 7.25C4.65074 6.25 5.16742 5.41667 6.20076 4.75C7.30076 4.05 8.56742 3.7 10.0007 3.7C11.5007 3.7 12.784 4.05 13.8507 4.75C14.884 5.41667 15.4007 6.25 15.4007 7.25C15.4007 7.55 15.3507 7.85 15.2507 8.15L15.2007 8.2C15.134 8.33333 15.0674 8.46666 15.0007 8.6C14.734 9.03333 14.3507 9.4 13.8507 9.7L13.8507 9.7Z" id="Vector" fill="#AF783E" fill-rule="evenodd" stroke="none" />
    </g>
  </g>
</svg>