<?xml version="1.0" encoding="utf-8"?>
<svg width="49.5px" height="108.02536px" viewBox="0 0 49.5 108.02536" version="1.1" xmlns:xlink="http://www.w3.org/1999/xlink" xmlns="http://www.w3.org/2000/svg">
  <g id="boot">
    <g id="Layer0_71_MEMBER_0_FILL">
      <path d="M49.5 27.1004L49.5 22.1504C49.2 16.217 46.8333 11.1337 42.4 6.90036C37.5 2.26703 31.6167 -0.0329762 24.75 0.000357143C17.8833 -0.0329762 12.0333 2.26703 7.2 6.90036C2.73333 11.1337 0.366673 16.1837 0.100006 22.0504C0.0333394 22.517 0 22.9837 0 23.4504L0 27.1004C0 27.667 0.200006 28.1504 0.600006 28.5504L4.75 32.7004L4.75 64.2504C4.78333 65.6837 4.86667 67.0837 5 68.4504C5.1 69.5504 5.23333 70.6504 5.39999 71.7504L5.39999 71.8004C7.23333 85.7004 12.9 97.4337 22.4 107L22.4 107.05C22.8 107.45 23.2833 107.734 23.85 107.9C24.45 108.067 25.05 108.067 25.65 107.9C26.25 107.7 26.7333 107.4 27.1 107C31.4667 102.567 35.0333 97.7004 37.8 92.4004C41 86.1337 43.1167 79.267 44.15 71.8004L44.15 71.7504C44.2833 70.6504 44.4 69.5504 44.5 68.4504C44.6333 67.0504 44.7167 65.6504 44.75 64.2504L44.75 32.7004L48.95 28.5504C49.3167 28.1504 49.5 27.667 49.5 27.1004L49.5 27.1004ZM41 8.35036C45.0667 12.217 47.2333 16.8504 47.5 22.2504L47.5 27.1004L42.75 31.8504L42.75 64.2004C42.7167 65.567 42.6333 66.917 42.5 68.2504C42.4 69.3504 42.2833 70.4337 42.15 71.5004C41.1833 78.767 39.1333 85.417 36 91.4504C33.3333 96.617 29.8833 101.334 25.65 105.6C25.5167 105.767 25.3333 105.884 25.1 105.95C24.8667 106.017 24.6333 106.017 24.4 105.95C24.1667 105.884 23.9667 105.767 23.8 105.6C14.6333 96.3337 9.15001 84.967 7.35001 71.5004C7.21667 70.4337 7.1 69.3504 7 68.2504C6.86667 66.917 6.78333 65.567 6.75 64.2004L6.75 31.8504L2 27.1004L2 23.4504C2 23.0504 2.03334 22.6504 2.10001 22.2504C2.33334 16.8504 4.48334 12.217 8.55 8.35036C13.0167 4.08369 18.4167 1.96702 24.75 2.00036C31.0833 1.96702 36.5 4.08369 41 8.35036L41 8.35036Z" id="Vector" fill="#6D4B27" fill-rule="evenodd" stroke="none" />
      <path d="M47.5 22.2504C47.2333 16.8504 45.0667 12.2171 41 8.35036C36.5 4.08369 31.0833 1.96702 24.75 2.00036C18.4167 1.96702 13.0167 4.08369 8.55 8.35036C4.48334 12.2171 2.33334 16.8504 2.10001 22.2504C2.03334 22.6504 2 23.0504 2 23.4504L2 27.1004L6.75 31.8504L6.75 64.2004C6.78333 65.5671 6.86667 66.9171 7 68.2504C7.1 69.3504 7.21667 70.4337 7.35001 71.5004C9.15001 84.9671 14.6333 96.3337 23.8 105.6C23.9667 105.767 24.1667 105.884 24.4 105.95C24.6333 106.017 24.8667 106.017 25.1 105.95C25.3333 105.884 25.5167 105.767 25.65 105.6C29.8833 101.334 33.3333 96.6171 36 91.4504C39.1333 85.4171 41.1833 78.7671 42.15 71.5004C42.2833 70.4337 42.4 69.3504 42.5 68.2504C42.6333 66.9171 42.7167 65.5671 42.75 64.2004L42.75 31.8504L47.5 27.1004L47.5 22.2504L47.5 22.2504ZM37.15 10.9004C40.3833 14.0671 42.15 17.8504 42.45 22.2504L42.45 27.1004L38.75 27.1004L38.75 64.0504C38.6833 65.4837 38.6 66.8837 38.5 68.2504C38.3667 69.3504 38.2333 70.4337 38.1 71.5004C37.0333 78.8337 34.8167 85.4837 31.45 91.4504C29.4748 94.1423 27.4274 95.5479 25.3076 95.6671C22.9914 95.7973 20.5889 94.3917 18.1 91.4504C14.7 85.4504 12.4667 78.8004 11.4 71.5004C11.2667 70.4337 11.15 69.3504 11.05 68.2504C10.9167 66.9171 10.8167 65.5671 10.75 64.2004L10.75 27.1004L7.10001 27.1004L7.10001 23.4504C7.10001 23.0504 7.11666 22.6504 7.14999 22.2504C7.38333 17.8504 9.15 14.0671 12.45 10.9004C15.8167 7.66703 19.9167 6.03369 24.75 6.00036L24.85 6.00036C29.6167 6.03369 33.7167 7.68369 37.15 10.9504L37.15 10.9004L37.15 10.9004Z" id="Vector" fill="#B47B41" fill-rule="evenodd" stroke="none" />
      <path d="M42.45 26.7504L42.45 22.2504L7.14999 22.2504C7.11666 22.6504 7.10001 23.0504 7.10001 23.4504L7.10001 26.7504L42.45 26.7504L42.45 26.7504ZM31.45 91.4504C34.8167 85.4837 37.0333 78.8337 38.1 71.5004L11.4 71.5004C12.4667 78.8004 14.7 85.4504 18.1 91.4504C20.5889 94.3917 22.9914 95.7973 25.3076 95.6671C27.4274 95.5479 29.4748 94.1423 31.45 91.4504L31.45 91.4504ZM24.75 78.9504C25.65 78.9504 26.4166 79.2671 27.05 79.9004C27.7166 80.5671 28.05 81.3504 28.05 82.2504C28.05 83.1504 27.7166 83.9171 27.05 84.5504C26.4166 85.2171 25.65 85.5504 24.75 85.5504C23.85 85.5504 23.0667 85.2171 22.4 84.5504C21.7667 83.9171 21.45 83.1504 21.45 82.2504C21.45 81.3504 21.7667 80.5671 22.4 79.9004C23.0667 79.2671 23.85 78.9504 24.75 78.9504L24.75 78.9504Z" id="Vector" fill="#8E6132" fill-rule="evenodd" stroke="none" />
      <path d="M14.15 31.7504L10.75 31.7504L10.75 43.7504L14.15 43.7504L14.15 31.7504L14.15 31.7504ZM35.35 43.7504L38.75 43.7504L38.75 31.7504L35.35 31.7504L35.35 43.7504L35.35 43.7504ZM14.15 50.2504L10.75 50.2504L10.75 62.2504L14.15 62.2504L14.15 50.2504L14.15 50.2504ZM38.75 50.2504L35.35 50.2504L35.35 62.2504L38.75 62.2504L38.75 50.2504L38.75 50.2504ZM27.05 79.9004C26.4167 79.2671 25.65 78.9504 24.75 78.9504C23.85 78.9504 23.0667 79.2671 22.4 79.9004C21.7667 80.5671 21.45 81.3504 21.45 82.2504C21.45 83.1504 21.7667 83.9171 22.4 84.5504C23.0667 85.2171 23.85 85.5504 24.75 85.5504C25.65 85.5504 26.4167 85.2171 27.05 84.5504C27.7167 83.9171 28.05 83.1504 28.05 82.2504C28.05 81.3504 27.7167 80.5671 27.05 79.9004L27.05 79.9004ZM23.55 81.0504C23.8833 80.7504 24.2833 80.6004 24.75 80.6004C25.1833 80.6004 25.5667 80.7504 25.9 81.0504C26.2333 81.3837 26.4 81.7837 26.4 82.2504C26.4 82.6837 26.2333 83.0671 25.9 83.4004C25.5667 83.7337 25.1833 83.9004 24.75 83.9004C24.2833 83.9004 23.8833 83.7337 23.55 83.4004C23.25 83.0671 23.1 82.6837 23.1 82.2504C23.1 81.7837 23.25 81.3837 23.55 81.0504L23.55 81.0504Z" id="Vector" fill="#95B4B6" fill-rule="evenodd" stroke="none" />
      <path d="M24.75 80.6004C24.2833 80.6004 23.8833 80.7504 23.55 81.0504C23.25 81.3837 23.1 81.7837 23.1 82.2504C23.1 82.6837 23.25 83.067 23.55 83.4004C23.8833 83.7337 24.2833 83.9004 24.75 83.9004C25.1833 83.9004 25.5667 83.7337 25.9 83.4004C26.2333 83.067 26.4 82.6837 26.4 82.2504C26.4 81.7837 26.2333 81.3837 25.9 81.0504C25.5667 80.7504 25.1833 80.6004 24.75 80.6004L24.75 80.6004Z" id="Vector" fill="#7E989A" fill-rule="evenodd" stroke="none" />
      <path d="M38.1 71.5004C38.2333 70.4337 38.3667 69.3504 38.5 68.2504L11.05 68.2504C11.15 69.3504 11.2667 70.4337 11.4 71.5004L38.1 71.5004L38.1 71.5004Z" id="Vector" fill="#A8733B" fill-rule="evenodd" stroke="none" />
      <path d="M17 31.7504L14.15 31.7504L14.15 43.7504L17 43.7504L17 31.7504L17 31.7504ZM35.35 31.7504L32.5 31.7504L32.5 43.7504L35.35 43.7504L35.35 31.7504L35.35 31.7504ZM17 50.2504L14.15 50.2504L14.15 62.2504L17 62.2504L17 50.2504L17 50.2504ZM35.35 50.2504L32.5 50.2504L32.5 62.2504L35.35 62.2504L35.35 50.2504L35.35 50.2504Z" id="Vector" fill="#A7CACD" fill-rule="evenodd" stroke="none" />
      <path d="M10.75 27.1004L10.75 31.7504L17 31.7504L17 43.7504L10.75 43.7504L10.75 50.2504L17 50.2504L17 62.2504L10.75 62.2504L10.75 64.2004C10.8167 65.5671 10.9167 66.9171 11.05 68.2504L38.5 68.2504C38.6 66.8837 38.6833 65.4837 38.75 64.0504L38.75 62.2504L32.5 62.2504L32.5 50.2504L38.75 50.2504L38.75 43.7504L32.5 43.7504L32.5 31.7504L38.75 31.7504L38.75 27.1004L42.45 27.1004L42.45 26.7504L7.10001 26.7504L7.10001 27.1004L10.75 27.1004L10.75 27.1004ZM19.85 49.1004L19.85 39.2504L29.7 39.2504L29.7 49.1004L19.85 49.1004L19.85 49.1004Z" id="Vector" fill="#956635" fill-rule="evenodd" stroke="none" />
      <path d="M19.85 39.2504L19.85 49.1004L29.7 49.1004L29.7 39.2504L19.85 39.2504L19.85 39.2504Z" id="Vector" fill="#83592E" fill-rule="evenodd" stroke="none" />
      <path d="M42.45 22.2504C42.15 17.8504 40.3833 14.067 37.15 10.9004L37.15 10.9504C33.7167 7.68369 29.6167 6.03369 24.85 6.00036L24.75 6.00036C19.9167 6.03369 15.8167 7.66703 12.45 10.9004C9.14999 14.067 7.38333 17.8504 7.14999 22.2504L42.45 22.2504L42.45 22.2504Z" id="Vector" fill="#A3703A" fill-rule="evenodd" stroke="none" />
    </g>
  </g>
</svg>