<?xml version="1.0" encoding="utf-8"?>
<svg width="6px" height="22px" viewBox="0 0 6 22" version="1.1" xmlns:xlink="http://www.w3.org/1999/xlink" xmlns="http://www.w3.org/2000/svg">
  <g id="mast">
    <g id="Layer0_71_MEMBER_3_FILL">
      <path d="M3.04999 0L3 0C2.16667 0 1.46666 0.300002 0.899994 0.900002C0.299994 1.46667 0 2.16667 0 3L0 19.1C0 19.9 0.299994 20.5833 0.899994 21.15L0.899994 21.2C1.46666 21.7333 2.16667 22 3 22L3.04999 22C3.84999 22 4.53334 21.7333 5.10001 21.2L5.14999 21.15C5.71666 20.5833 6 19.9 6 19.1L6 3C6 2.16667 5.71666 1.46667 5.14999 0.900002L5.10001 0.900002C4.53334 0.300002 3.84999 0 3.04999 0L3.04999 0ZM2 3C2 2.73333 2.09999 2.5 2.29999 2.3C2.49999 2.1 2.73333 2 3 2C3.26667 2 3.50001 2.1 3.70001 2.3C3.90001 2.5 4 2.73333 4 3L4 19.05C4 19.3167 3.90001 19.55 3.70001 19.75C3.50001 19.95 3.26667 20.05 3 20.05C2.73333 20.05 2.49999 19.95 2.29999 19.75C2.09999 19.55 2 19.3167 2 19.05L2 3L2 3Z" id="Vector" fill="#956635" fill-rule="evenodd" stroke="none" />
      <path d="M2.29999 2.3C2.09999 2.5 2 2.73333 2 3L2 19.05C2 19.3167 2.09999 19.55 2.29999 19.75C2.49999 19.95 2.73333 20.05 3 20.05C3.26667 20.05 3.50001 19.95 3.70001 19.75C3.90001 19.55 4 19.3167 4 19.05L4 3C4 2.73333 3.90001 2.5 3.70001 2.3C3.50001 2.1 3.26667 2 3 2C2.73333 2 2.49999 2.1 2.29999 2.3L2.29999 2.3Z" id="Vector" fill="#FFF1D2" fill-rule="evenodd" stroke="none" />
    </g>
  </g>
</svg>