<?xml version="1.0" encoding="utf-8"?>
<svg width="66px" height="46px" viewBox="0 0 66 46" version="1.1" xmlns:xlink="http://www.w3.org/1999/xlink" xmlns="http://www.w3.org/2000/svg">
  <g id="segel_0">
    <g id="Layer0_19_FILL">
      <path d="M61.05 0.549988C60.65 0.183321 60.1666 0 59.6 0L6.45001 0C5.88335 0 5.41665 0.183321 5.04999 0.549988C4.64999 0.916654 4.45001 1.36666 4.45001 1.89999L4.45001 5.25C4.45001 5.65 4.56665 6.03333 4.79999 6.39999C1.49999 15.3667 0.0333577 22.45 0.400024 27.65C0.400024 28.85 0.500012 30.05 0.700012 31.25C0.666679 31.25 0.633309 31.2833 0.599976 31.35C0.199976 31.6833 0 32.1167 0 32.65L0 35.6C0 36.1333 0.199976 36.6 0.599976 37C0.966642 37.3667 1.43333 37.55 2 37.55L5.29999 37.55C7.16665 38.4833 9.05001 39.35 10.95 40.15C14.7167 41.7833 18.4833 43.0833 22.25 44.05C22.8167 44.1833 23.3667 44.3333 23.9 44.5C26.8667 45.1667 29.8333 45.6667 32.8 46L33.25 46C36.1833 45.6667 39.1167 45.1667 42.05 44.5C42.6167 44.3667 43.1833 44.2167 43.75 44.05C49.4167 42.5833 55.0833 40.4167 60.75 37.55L64 37.55C64.5667 37.55 65.05 37.3667 65.45 37C65.8167 36.6 66 36.1333 66 35.6L66 32.65C66 32.1167 65.8167 31.6833 65.45 31.35L65.3 31.2C65.5 30.0333 65.5833 28.85 65.55 27.65L65.55 27.6C65.8833 22.4 64.4333 15.3333 61.2 6.39999C61.4667 6.06666 61.6 5.68333 61.6 5.25L61.6 1.89999C61.6 1.36666 61.4167 0.916654 61.05 0.549988L61.05 0.549988ZM59.6 1.89999L59.6 5.25L58.65 5.25C62.25 14.75 63.8833 22.1833 63.55 27.55C63.6167 29.2833 63.4 30.9833 62.9 32.65L64 32.65L64 35.6L60.25 35.6C56.7833 37.4 53.3166 38.9167 49.85 40.15L49.8 40.15C47.1667 41.0833 44.5334 41.8833 41.9 42.55C38.9334 43.25 35.9667 43.75 33 44.05C30.0333 43.75 27.05 43.25 24.05 42.55C21.4167 41.8833 18.8 41.0833 16.2 40.15C12.7 38.9167 9.21667 37.4 5.75 35.6L2 35.6L2 32.65L3.04999 32.65C2.58332 30.9833 2.36669 29.2833 2.40002 27.55C2.06669 22.1833 3.71664 14.75 7.34998 5.25L6.45001 5.25L6.45001 1.89999L59.6 1.89999L59.6 1.89999Z" id="Vector" fill="#B1A691" fill-rule="evenodd" stroke="none" />
      <path d="M13.75 5.25L13.75 1.89999L6.45001 1.89999L6.45001 5.25L13.75 5.25L13.75 5.25ZM45.8 5.25L45.8 1.89999L20.15 1.89999L20.15 5.25L45.8 5.25L45.8 5.25ZM59.6 5.25L59.6 1.89999L52.2 1.89999L52.2 5.25L59.6 5.25L59.6 5.25ZM3.04999 32.65L2 32.65L2 35.6L5.75 35.6C5.05 35.2333 4.35002 34.85 3.65002 34.45C3.41669 33.85 3.21665 33.25 3.04999 32.65L3.04999 32.65ZM62.9 32.65C62.7667 33.25 62.6 33.85 62.4 34.45C61.7 34.85 60.9833 35.2333 60.25 35.6L64 35.6L64 32.65L62.9 32.65L62.9 32.65Z" id="Vector" fill="#956635" fill-rule="evenodd" stroke="none" />
      <path d="M13.75 5.25L7.35 5.25C3.71667 14.75 2.06672 22.1833 2.40005 27.55C2.36672 29.2833 2.58335 30.9833 3.05001 32.65C3.21668 33.25 3.41671 33.85 3.65005 34.45L13.75 5.25L13.75 5.25ZM24.05 42.55C27.05 43.25 30.0333 43.75 33 44.05C35.9667 43.75 38.9334 43.25 41.9 42.55C44.5334 41.8833 47.1666 41.0833 49.8 40.15L49.85 40.15L45.8 5.25L20.15 5.25L16.2 40.15C18.8 41.0833 21.4166 41.8833 24.05 42.55L24.05 42.55ZM58.65 5.25L52.2 5.25L62.4 34.45C62.6 33.85 62.7667 33.25 62.9 32.65C63.4 30.9833 63.6166 29.2833 63.55 27.55C63.8833 22.1833 62.25 14.75 58.65 5.25L58.65 5.25Z" id="Vector" fill="#F3E5C8" fill-rule="evenodd" stroke="none" />
      <path d="M20.15 5.25L13.75 5.25L3.65002 34.45C4.35002 34.85 5.05 35.2333 5.75 35.6C9.21666 37.4 12.7 38.9167 16.2 40.15L20.15 5.25L20.15 5.25ZM52.2 5.25L45.8 5.25L49.85 40.15C53.3166 38.9167 56.7833 37.4 60.25 35.6C60.9833 35.2333 61.7 34.85 62.4 34.45L52.2 5.25L52.2 5.25Z" id="Vector" fill="#FFF1D2" fill-rule="evenodd" stroke="none" />
      <path d="M20.15 5.25L20.15 1.89999L13.75 1.89999L13.75 5.25L20.15 5.25L20.15 5.25ZM52.2 5.25L52.2 1.89999L45.8 1.89999L45.8 5.25L52.2 5.25L52.2 5.25Z" id="Vector" fill="#AF783E" fill-rule="evenodd" stroke="none" />
    </g>
  </g>
</svg>