<?xml version="1.0" encoding="utf-8"?>
<svg width="66px" height="46.149994px" viewBox="0 0 66 46.149994" version="1.1" xmlns:xlink="http://www.w3.org/1999/xlink" xmlns="http://www.w3.org/2000/svg">
  <g id="segel_1">
    <g id="Layer0_29_FILL">
      <path d="M13.75 5.35001L13.75 2L6.45001 2L6.45001 5.35001L13.75 5.35001L13.75 5.35001ZM45.8 5.35001L45.8 2L20.15 2L20.15 5.35001L45.8 5.35001L45.8 5.35001ZM59.6 2L52.2 2L52.2 5.35001L59.6 5.35001L59.6 2L59.6 2ZM3.65002 34.55C3.41669 33.95 3.21665 33.35 3.04999 32.75L2 32.75L2 35.7L5.75 35.7C5.05 35.3333 4.35002 34.95 3.65002 34.55L3.65002 34.55ZM62.9 32.75C62.7667 33.35 62.6 33.95 62.4 34.55C61.7 34.95 60.9833 35.3333 60.25 35.7L64 35.7L64 32.75L62.9 32.75L62.9 32.75Z" id="Vector" fill="#956635" fill-rule="evenodd" stroke="none" />
      <path d="M2.40002 27.65C2.30002 25.95 2.40001 24.05 2.70001 21.95L0.75 21.4C0.383333 23.7667 0.266691 25.9 0.400024 27.8C0.400024 28.9667 0.500012 30.1167 0.700012 31.25C0.633346 31.2833 0.599976 31.3167 0.599976 31.35C0.199976 31.7167 0 32.1833 0 32.75L0 35.7C0 36.2667 0.199976 36.75 0.599976 37.15C0.966642 37.5167 1.43333 37.7 2 37.7L5.29999 37.7C7.96665 39.0667 10.65 40.2833 13.35 41.35L13.05 39.05C10.5833 38.0833 8.15 36.9667 5.75 35.7L2 35.7L2 32.75L3.04999 32.75C2.58332 31.0833 2.36669 29.3833 2.40002 27.65L2.40002 27.65Z" id="Vector" fill="#465656" fill-rule="evenodd" stroke="none" />
      <path d="M6.00003 27.75L5.1 22.6L2.70004 21.95C2.40004 24.05 2.30005 25.95 2.40005 27.65C2.36672 29.3833 2.58335 31.0833 3.05001 32.75C3.21668 33.35 3.41672 33.95 3.65005 34.55C4.35005 34.95 5.05003 35.3333 5.75003 35.7C8.15003 36.9667 10.5833 38.0833 13.05 39.05L12.6 35.95L7.1 34.1L6.00003 27.75L6.00003 27.75Z" id="Vector" fill="#5C7070" fill-rule="evenodd" stroke="none" />
      <path d="M5.40002 10.85L6.34997 15.35L3.84997 16.15C3.31664 18.2167 2.93335 20.15 2.70001 21.95L5.09997 22.6L6 27.75L13.75 5.35001L7.34997 5.35001C6.61664 7.25001 5.96669 9.08334 5.40002 10.85L5.40002 10.85ZM49.05 35.9C48.85 35.9333 48.65 35.9167 48.45 35.85C48.25 35.75 48.1 35.6333 48 35.5C47.8667 35.3333 47.8 35.15 47.8 34.95L47.55 20.2L45.8 5.35001L20.15 5.35001L16.2 40.25L21.4 38.05C21.4 40.0833 22.3833 41.65 24.35 42.75C27.25 43.3833 30.1333 43.85 33 44.15C35.9667 43.85 38.9333 43.35 41.9 42.65C44.5333 41.9833 47.1666 41.1833 49.8 40.25L49.85 40.25L49.35 35.8C49.25 35.8333 49.15 35.8667 49.05 35.9L49.05 35.9ZM58.65 5.35001L52.2 5.35001L62.4 34.55C62.6 33.95 62.7667 33.35 62.9 32.75C63.4 31.0833 63.6166 29.3833 63.55 27.65C63.6833 25.3833 63.4833 22.7666 62.95 19.8L60.4 20.8C61.2 17.3 61.2 13.8 60.4 10.3C59.8667 8.69999 59.2833 7.05001 58.65 5.35001L58.65 5.35001Z" id="Vector" fill="#F3E5C8" fill-rule="evenodd" stroke="none" />
      <path d="M20.15 5.35001L13.75 5.35001L6 27.75L7.09998 34.1L12.6 35.95L13.05 39.05C14.0833 39.4833 15.1334 39.8833 16.2 40.25L20.15 5.35001L20.15 5.35001ZM49 13.1C49.2 13.2333 49.3334 13.4333 49.4 13.7L53.05 31.1C53.0833 31.2667 53.0833 31.4166 53.05 31.55C52.9833 31.7166 52.9 31.8667 52.8 32L49.55 35.6C49.4833 35.6667 49.4166 35.7333 49.35 35.8L49.85 40.25C50.45 40.05 51.0667 39.8333 51.7 39.6C53.2667 38.5667 54.3833 36.9666 55.05 34.8L58.15 36.75C58.85 36.4167 59.55 36.0666 60.25 35.7C60.9833 35.3333 61.7 34.95 62.4 34.55L52.2 5.35001L45.8 5.35001L47.55 20.2L47.4 13.95C47.4 13.6833 47.4834 13.45 47.65 13.25C47.8167 13.05 48.0333 12.9333 48.3 12.9C48.5333 12.8667 48.7667 12.9333 49 13.1L49 13.1ZM16.95 8.79999C17.0833 8.96666 17.15 9.18332 17.15 9.44999L16.75 22.45C16.75 22.6833 16.6667 22.9 16.5 23.1C16.3 23.2667 16.0833 23.3667 15.85 23.4C15.6166 23.4333 15.4 23.3833 15.2 23.25L11.95 21C11.75 20.8667 11.6166 20.7 11.55 20.5C11.4833 20.2667 11.4833 20.05 11.55 19.85L15.2 9.10001C15.2667 8.86668 15.4167 8.68333 15.65 8.54999C15.85 8.41666 16.0833 8.38332 16.35 8.44999C16.5833 8.48332 16.7833 8.59999 16.95 8.79999L16.95 8.79999Z" id="Vector" fill="#FFF1D2" fill-rule="evenodd" stroke="none" />
      <path d="M62.9 17.8C63.1667 15.1333 62.9833 12.4833 62.35 9.85001C62.35 9.78334 62.3333 9.71666 62.3 9.64999C61.9667 8.64999 61.6167 7.61665 61.25 6.54999C61.4833 6.18332 61.6 5.78334 61.6 5.35001L61.6 2C61.6 1.43333 61.4167 0.966673 61.05 0.600006C60.65 0.200006 60.1666 0 59.6 0L6.45001 0C5.88335 0 5.41665 0.200006 5.04999 0.600006C4.64999 0.966673 4.45001 1.43333 4.45001 2L4.45001 5.35001C4.45001 5.78334 4.56665 6.16667 4.79999 6.5C4.33332 7.76667 3.9 8.99998 3.5 10.2C3.4 10.5333 3.38335 10.8833 3.45001 11.25L4.04999 14L3.25 14.25C2.91667 14.35 2.63336 14.5167 2.40002 14.75C2.16669 15.0167 2.00002 15.3167 1.90002 15.65C1.36669 17.6833 0.983333 19.6 0.75 21.4L2.70001 21.95C2.93335 20.15 3.31664 18.2167 3.84998 16.15L6.34998 15.35L5.40002 10.85C5.96669 9.08334 6.61664 7.25001 7.34998 5.35001L6.45001 5.35001L6.45001 2L59.6 2L59.6 5.35001L58.65 5.35001C59.2834 7.05001 59.8667 8.69999 60.4 10.3C61.2 13.8 61.2 17.3 60.4 20.8L62.95 19.8C63.4833 22.7667 63.6833 25.3833 63.55 27.65C63.6167 29.3833 63.4 31.0833 62.9 32.75L64 32.75L64 35.7L60.25 35.7C59.55 36.0666 58.85 36.4167 58.15 36.75L55.05 34.8C54.3833 36.9667 53.2667 38.5667 51.7 39.6C51.0667 39.8333 50.45 40.05 49.85 40.25L49.8 40.25C47.1667 41.1833 44.5334 41.9833 41.9 42.65C38.9334 43.35 35.9667 43.85 33 44.15C30.1333 43.85 27.25 43.3833 24.35 42.75C22.3833 41.65 21.4 40.0833 21.4 38.05L16.2 40.25C15.1333 39.8833 14.0833 39.4833 13.05 39.05L13.35 41.35C14.0833 41.6167 14.8167 41.8833 15.55 42.15C16.0167 42.3167 16.5 42.3 17 42.1L19.9 40.85C20.5334 42.35 21.7 43.5667 23.4 44.5C23.5667 44.5667 23.7334 44.6333 23.9 44.7C26.8667 45.3666 29.8333 45.85 32.8 46.15L33.2 46.15C36.2667 45.85 39.3166 45.3333 42.35 44.6L42.4 44.6C45.0334 43.9333 47.65 43.1333 50.25 42.2C50.35 42.1666 50.45 42.15 50.55 42.15C51.15 41.9167 51.7667 41.6833 52.4 41.45C52.5334 41.4166 52.65 41.3667 52.75 41.3C54.1167 40.4667 55.2 39.3 56 37.8L57.1 38.45C57.3666 38.6166 57.6833 38.7167 58.05 38.75C58.3833 38.7833 58.7167 38.7167 59.05 38.55C59.6167 38.2833 60.1833 38 60.75 37.7L64 37.7C64.5667 37.7 65.05 37.5167 65.45 37.15C65.8167 36.75 66 36.2666 66 35.7L66 32.75C66 32.1833 65.8167 31.7167 65.45 31.35L65.35 31.25C65.5166 30.0833 65.5833 28.9333 65.55 27.8L65.55 27.7C65.7167 25.3333 65.5 22.5833 64.9 19.45C64.8334 19.05 64.65 18.7 64.35 18.4C64.0833 18.1 63.75 17.9167 63.35 17.85C63.2166 17.8167 63.0667 17.8 62.9 17.8L62.9 17.8ZM17.15 9.44998C17.15 9.18332 17.0833 8.96665 16.95 8.79999C16.7833 8.59999 16.5833 8.48332 16.35 8.44998C16.0833 8.38332 15.85 8.41665 15.65 8.54999C15.4167 8.68332 15.2667 8.86667 15.2 9.10001L11.55 19.85C11.4833 20.05 11.4833 20.2667 11.55 20.5C11.6167 20.7 11.75 20.8667 11.95 21L15.2 23.25C15.4 23.3833 15.6166 23.4333 15.85 23.4C16.0833 23.3667 16.3 23.2667 16.5 23.1C16.6667 22.9 16.75 22.6833 16.75 22.45L17.15 9.44998L17.15 9.44998ZM49.4 13.7C49.3334 13.4333 49.2 13.2333 49 13.1C48.7667 12.9333 48.5333 12.8667 48.3 12.9C48.0333 12.9333 47.8167 13.05 47.65 13.25C47.4834 13.45 47.4 13.6833 47.4 13.95L47.55 20.2L47.8 34.95C47.8 35.15 47.8667 35.3333 48 35.5C48.1 35.6333 48.25 35.75 48.45 35.85C48.65 35.9167 48.85 35.9333 49.05 35.9C49.15 35.8667 49.25 35.8333 49.35 35.8C49.4166 35.7333 49.4833 35.6667 49.55 35.6L52.8 32C52.9 31.8667 52.9833 31.7167 53.05 31.55C53.0833 31.4167 53.0833 31.2667 53.05 31.1L49.4 13.7L49.4 13.7ZM14.8 20.55L13.7 19.8L14.95 16.15L14.8 20.55L14.8 20.55ZM51 31.05L49.75 32.4L49.6 24.35L51 31.05L51 31.05Z" id="Vector" fill="#B1A691" fill-rule="evenodd" stroke="none" />
      <path d="M13.75 5.35001L20.15 5.35001L20.15 2L13.75 2L13.75 5.35001L13.75 5.35001ZM52.2 5.35001L52.2 2L45.8 2L45.8 5.35001L52.2 5.35001L52.2 5.35001Z" id="Vector" fill="#AF783E" fill-rule="evenodd" stroke="none" />
    </g>
  </g>
</svg>