<?xml version="1.0" encoding="utf-8"?>
<svg width="66px" height="46.149994px" viewBox="0 0 66 46.149994" version="1.1" xmlns:xlink="http://www.w3.org/1999/xlink" xmlns="http://www.w3.org/2000/svg">
  <g id="segel_2">
    <g id="Layer0_54_FILL">
      <path d="M6.45001 5.35001L13.75 5.35001L13.75 2L6.45001 2L6.45001 5.35001L6.45001 5.35001ZM45.8 5.35001L45.8 2L41.2 2L39.2 4L37.2 2L20.15 2L20.15 5.35001L45.8 5.35001L45.8 5.35001ZM59.6 5.35001L59.6 2L52.2 2L52.2 5.35001L59.6 5.35001L59.6 5.35001ZM2 35.7L5.75 35.7C5.05 35.3333 4.35002 34.95 3.65002 34.55C3.41669 33.95 3.21665 33.35 3.04999 32.75L2 32.75L2 35.7L2 35.7ZM62.9 32.75C62.7667 33.35 62.6 33.95 62.4 34.55C61.7 34.95 60.9833 35.3333 60.25 35.7L64 35.7L64 32.75L62.9 32.75L62.9 32.75Z" id="Vector" fill="#956635" fill-rule="evenodd" stroke="none" />
      <path d="M3.90005 22.3L2.70004 21.95L2.70004 22C2.40004 24.0666 2.30005 25.95 2.40005 27.65C2.36672 29.3833 2.58335 31.0833 3.05001 32.75C3.21668 33.35 3.41672 33.95 3.65005 34.55C4.35005 34.95 5.05003 35.3333 5.75003 35.7C8.08336 36.9333 10.45 38.0333 12.85 39C12.9166 39 12.9833 39.0167 13.05 39.05L12.6 35.95L7.1 34.1L6.00003 27.75L5.1 22.6L3.90005 22.3L3.90005 22.3ZM59.25 36.25L56.4 29.25C55.4667 26.8833 54.5333 24.5333 53.6 22.2L51.3 22.2L54.4501 36.4C54.6833 35.9 54.8834 35.3667 55.05 34.8L58.15 36.75C58.4833 36.5833 58.8333 36.4334 59.2001 36.3C59.2001 36.2667 59.2166 36.25 59.25 36.25L59.25 36.25ZM44 30.05L40.7001 30.05L34.4501 44L34.5 44C35.7001 43.8333 36.9 43.65 38.1 43.45C40.4666 39.2833 42.4333 34.8167 44 30.05L44 30.05Z" id="Vector" fill="#5C7070" fill-rule="evenodd" stroke="none" />
      <path d="M0.599976 31.35C0.199976 31.7167 0 32.1833 0 32.75L0 35.7C0 36.2667 0.199976 36.75 0.599976 37.15C0.966642 37.5167 1.43333 37.7 2 37.7L5.25 37.7C7.58333 38.9 9.94998 39.9667 12.35 40.9L12.3 40.9C12.5333 41 12.7833 41.1 13.05 41.2L12.85 39C10.45 38.0333 8.08333 36.9333 5.75 35.7L2 35.7L2 32.75L3.04999 32.75C2.58332 31.0833 2.36669 29.3833 2.40002 27.65C2.30002 25.95 2.40001 24.0666 2.70001 22L0.75 21.5L0.75 21.7C0.416667 23.9333 0.300024 25.9667 0.400024 27.8C0.400024 28.9667 0.500012 30.1166 0.700012 31.25C0.633346 31.2833 0.599976 31.3167 0.599976 31.35L0.599976 31.35ZM51.3 22.2L49.25 22.2L52.5 36.8C52.6 37.2334 52.8167 37.6 53.15 37.9C53.45 38.1667 53.8167 38.3334 54.25 38.4C54.65 38.4334 55.05 38.35 55.45 38.15C55.6167 38.0167 55.7833 37.8833 55.95 37.75L57.1 38.45C57.3666 38.6167 57.6833 38.7167 58.05 38.75C58.3833 38.7833 58.7 38.7167 59 38.55C59.3 38.4167 59.6 38.2834 59.9 38.15L59.2 36.3C58.8333 36.4334 58.4834 36.5833 58.15 36.75L55.05 34.8C54.8833 35.3667 54.6833 35.9 54.45 36.4L51.3 22.2L51.3 22.2ZM45.9 30.7C45.9667 30.4666 46.0333 30.25 46.1 30.05L44 30.05C42.4333 34.8167 40.4666 39.2833 38.1 43.45C36.9 43.65 35.7 43.8333 34.5 44L33.6 46.1C33.9333 46.0667 34.2834 46.0333 34.65 46L34.7 46C35.9333 45.8333 37.1833 45.65 38.45 45.45C38.75 45.3833 39.0167 45.2667 39.25 45.1C39.4833 44.9 39.6833 44.6833 39.85 44.45C42.2833 40.15 44.3 35.5667 45.9 30.7L45.9 30.7Z" id="Vector" fill="#465656" fill-rule="evenodd" stroke="none" />
      <path d="M20.15 5.35001L13.75 5.35001L6 27.75L7.09998 34.1L12.6 35.95L13.05 39.05C14.0833 39.4833 15.1334 39.8833 16.2 40.25L20.15 5.35001L20.15 5.35001ZM52.2 5.35001L45.8 5.35001L47.4 15.55L47.4 13.95C47.4 13.6833 47.4834 13.45 47.65 13.25C47.8167 13.05 48.0333 12.9333 48.3 12.9C48.5333 12.8667 48.7667 12.9333 49 13.1C49.2 13.2333 49.3334 13.4333 49.4 13.7L51.3 22.2L53.6 22.2C54.5333 24.5333 55.4667 26.8833 56.4 29.25L59.25 36.25C59.5833 36.05 59.9167 35.8666 60.25 35.7C60.9833 35.3333 61.7 34.95 62.4 34.55L52.2 5.35001L52.2 5.35001ZM16.35 8.44999C16.5833 8.48332 16.7833 8.60002 16.95 8.80002C17.0833 8.96669 17.15 9.18332 17.15 9.44999L16.75 22.45C16.75 22.6833 16.6667 22.9 16.5 23.1C16.3 23.2667 16.0833 23.3667 15.85 23.4C15.6166 23.4333 15.4 23.3833 15.2 23.25L11.95 21C11.75 20.8666 11.6166 20.7 11.55 20.5C11.4833 20.2666 11.4833 20.05 11.55 19.85L15.2 9.10001C15.2667 8.86668 15.4167 8.68336 15.65 8.55002C15.85 8.41669 16.0833 8.38332 16.35 8.44999L16.35 8.44999Z" id="Vector" fill="#FFF1D2" fill-rule="evenodd" stroke="none" />
      <path d="M61.6 5.35001L61.6 2C61.6 1.43333 61.4167 0.966673 61.05 0.600006C60.65 0.200006 60.1666 0 59.6 0L41.2 0C40.6333 0 40.1667 0.200006 39.8 0.600006L39.2 1.14999L38.65 0.600006C38.25 0.200006 37.7667 0 37.2 0L6.45001 0C5.88335 0 5.41665 0.200006 5.04999 0.600006C4.64999 0.966673 4.45001 1.43333 4.45001 2L4.45001 5.35001C4.45001 5.78334 4.56665 6.16664 4.79999 6.49997C4.66665 6.8333 4.55001 7.16664 4.45001 7.49997C4.38335 7.66664 4.33332 7.8333 4.29999 7.99997C4.06665 10.8 4.45001 13.3666 5.45001 15.7L2.15002 17.6C1.88336 17.7333 1.66667 17.9333 1.5 18.2C1.33333 18.4333 1.21669 18.6833 1.15002 18.95C0.983358 19.8166 0.85 20.6666 0.75 21.5L2.70001 22L2.70001 21.95C2.80001 21.1166 2.95002 20.25 3.15002 19.35L8.09998 16.45C6.66664 14.0166 6.06665 11.25 6.29999 8.14999C6.63332 7.24999 6.98331 6.31667 7.34998 5.35001L6.45001 5.35001L6.45001 2L37.2 2L39.2 4L41.2 2L59.6 2L59.6 5.35001L58.65 5.35001C59.2834 7.05001 59.8667 8.70002 60.4 10.3C61.2 13.8 61.2 17.3 60.4 20.8L62.95 19.8C63.4833 22.7667 63.6833 25.3833 63.55 27.65C63.6167 29.3833 63.4 31.0833 62.9 32.75L64 32.75L64 35.7L60.25 35.7C59.9167 35.8666 59.5833 36.05 59.25 36.25C59.2167 36.25 59.2 36.2667 59.2 36.3L59.9 38.15C59.9667 38.1167 60.05 38.0834 60.15 38.05C60.15 38.0167 60.1667 38 60.2 38C60.3667 37.9 60.55 37.8 60.75 37.7L64 37.7C64.5667 37.7 65.05 37.5167 65.45 37.15C65.8167 36.75 66 36.2666 66 35.7L66 32.75C66 32.1833 65.8167 31.7167 65.45 31.35L65.35 31.25C65.5166 30.0833 65.5833 28.9334 65.55 27.8L65.55 27.7C65.6833 25.3 65.4833 22.55 64.95 19.45C64.85 19.05 64.6667 18.7166 64.4 18.45C64.1 18.15 63.7667 17.95 63.4 17.85C63.2334 17.8167 63.0667 17.8 62.9 17.8C63.1334 15.1667 62.95 12.5167 62.35 9.85001C62.35 9.78334 62.3333 9.73332 62.3 9.69998C61.9667 8.66665 61.6167 7.61668 61.25 6.55002C61.4833 6.21668 61.6 5.81667 61.6 5.35001L61.6 5.35001ZM16.95 8.80002C16.7833 8.60002 16.5833 8.48332 16.35 8.44998C16.0833 8.38332 15.85 8.41669 15.65 8.55002C15.4167 8.68335 15.2667 8.86667 15.2 9.10001L11.55 19.85C11.4833 20.05 11.4833 20.2666 11.55 20.5C11.6167 20.7 11.75 20.8666 11.95 21L15.2 23.25C15.4 23.3833 15.6166 23.4333 15.85 23.4C16.0833 23.3667 16.3 23.2667 16.5 23.1C16.6667 22.9 16.75 22.6833 16.75 22.45L17.15 9.44998C17.15 9.18332 17.0833 8.96669 16.95 8.80002L16.95 8.80002ZM49 13.1C48.7667 12.9333 48.5333 12.8667 48.3 12.9C48.0333 12.9333 47.8167 13.05 47.65 13.25C47.4834 13.45 47.4 13.6833 47.4 13.95L47.4 15.55C47.0667 17.8167 46.65 20.0333 46.15 22.2C45.55 24.9 44.8333 27.5167 44 30.05L46.1 30.05C46.9 27.5167 47.6 24.9 48.2 22.2C48.3667 21.4 48.5333 20.6 48.7 19.8L49.25 22.2L51.3 22.2L49.4 13.7C49.3334 13.4333 49.2 13.2333 49 13.1L49 13.1ZM14.8 20.55L13.7 19.8L14.95 16.15L14.8 20.55L14.8 20.55ZM33.6 46.1L34.5 44L34.45 44C33.95 44.0666 33.4667 44.1167 33 44.15C30.1333 43.85 27.25 43.3833 24.35 42.75C22.3833 41.65 21.4 40.0834 21.4 38.05L16.2 40.25C15.1333 39.8833 14.0833 39.4834 13.05 39.05C12.9833 39.0167 12.9166 39 12.85 39L13.05 41.2C13.85 41.5333 14.6833 41.85 15.55 42.15C16.0167 42.3167 16.5 42.3 17 42.1L19.9 40.85C20.5 42.3167 21.6667 43.5333 23.4 44.5C23.5667 44.6 23.75 44.6666 23.95 44.7C26.9167 45.3666 29.8667 45.85 32.8 46.15L33.2 46.15C33.3333 46.15 33.4666 46.1333 33.6 46.1L33.6 46.1Z" id="Vector" fill="#B1A691" fill-rule="evenodd" stroke="none" />
      <path d="M13.75 5.35001L20.15 5.35001L20.15 2L13.75 2L13.75 5.35001L13.75 5.35001ZM45.8 2L45.8 5.35001L52.2 5.35001L52.2 2L45.8 2L45.8 2Z" id="Vector" fill="#AF783E" fill-rule="evenodd" stroke="none" />
      <path d="M7.34997 5.35001C6.98331 6.31667 6.63332 7.25 6.29999 8.15C6.06665 11.25 6.66664 14.0166 8.09997 16.45L3.15002 19.35C2.95002 20.25 2.80001 21.1166 2.70001 21.95L3.90002 22.3C4.30002 22.4 4.69997 22.5 5.09997 22.6L6 27.75L13.75 5.35001L7.34997 5.35001L7.34997 5.35001ZM46.15 22.2C46.65 20.0333 47.0667 17.8167 47.4 15.55L45.8 5.35001L20.15 5.35001L16.2 40.25L21.4 38.05C21.4 40.0833 22.3833 41.65 24.35 42.75C27.25 43.3833 30.1333 43.85 33 44.15C33.4667 44.1167 33.95 44.0666 34.45 44L40.7 30.05L44 30.05C44.8333 27.5167 45.55 24.9 46.15 22.2L46.15 22.2ZM62.4 34.55C62.6 33.95 62.7667 33.35 62.9 32.75C63.4 31.0833 63.6166 29.3833 63.55 27.65C63.6833 25.3833 63.4833 22.7667 62.95 19.8L60.4 20.8C61.2 17.3 61.2 13.8 60.4 10.3C59.8667 8.70002 59.2833 7.05001 58.65 5.35001L52.2 5.35001L62.4 34.55L62.4 34.55Z" id="Vector" fill="#F3E5C8" fill-rule="evenodd" stroke="none" />
    </g>
  </g>
</svg>