<?xml version="1.0" encoding="utf-8"?>
<svg width="10.600006px" height="10.600006px" viewBox="0 0 10.600006 10.600006" version="1.1" xmlns:xlink="http://www.w3.org/1999/xlink" xmlns="http://www.w3.org/2000/svg">
  <g id="vormast">
    <g id="Layer0_71_MEMBER_4_FILL">
      <path d="M1.60001 1.5C1.56667 1.53333 1.53333 1.56667 1.5 1.60001C0.5 2.63334 0 3.86667 0 5.3C0 6.76667 0.516685 8.01667 1.55002 9.05C2.61668 10.0833 3.86668 10.6 5.30002 10.6C6.73335 10.6 7.96667 10.0833 9 9.05C9 9.01667 9.01668 9 9.05002 9C10.0834 7.96667 10.6 6.73334 10.6 5.3C10.6 3.86667 10.0834 2.61667 9.05002 1.55C8.01669 0.51667 6.76669 0 5.30002 0C3.86668 0 2.63334 0.5 1.60001 1.5L1.60001 1.5ZM5.30002 2C6.20002 2 6.96667 2.31667 7.60001 2.95C8.26667 3.61667 8.60001 4.4 8.60001 5.3C8.60001 6.2 8.26667 6.96667 7.60001 7.60001C6.96667 8.26667 6.20002 8.60001 5.30002 8.60001C4.40002 8.60001 3.61668 8.26667 2.95001 7.60001C2.31668 6.96667 2 6.2 2 5.3C2 4.4 2.31668 3.61667 2.95001 2.95C3.61668 2.31667 4.40002 2 5.30002 2L5.30002 2Z" id="Vector" fill="#5C7072" fill-rule="evenodd" stroke="none" />
      <path d="M7.60001 2.95001C6.96667 2.31667 6.20002 2 5.30002 2C4.40002 2 3.61668 2.31667 2.95001 2.95001C2.31668 3.61667 2 4.4 2 5.3C2 6.2 2.31668 6.96667 2.95001 7.60001C3.61668 8.26667 4.40002 8.60001 5.30002 8.60001C6.20002 8.60001 6.96667 8.26667 7.60001 7.60001C8.26667 6.96667 8.60001 6.2 8.60001 5.3C8.60001 4.4 8.26667 3.61667 7.60001 2.95001L7.60001 2.95001ZM6.45001 4.10001C6.78335 4.43334 6.95001 4.83334 6.95001 5.3C6.95001 5.73334 6.78335 6.11667 6.45001 6.45C6.11668 6.78334 5.73335 6.95 5.30002 6.95C4.83335 6.95 4.43334 6.78334 4.10001 6.45C3.80001 6.11667 3.64999 5.73334 3.64999 5.3C3.64999 4.83334 3.80001 4.43334 4.10001 4.10001C4.43334 3.80001 4.83335 3.65 5.30002 3.65C5.73335 3.65 6.11668 3.80001 6.45001 4.10001L6.45001 4.10001Z" id="Vector" fill="#95B4B6" fill-rule="evenodd" stroke="none" />
      <path d="M6.95001 5.3C6.95001 4.83333 6.78334 4.43334 6.45001 4.10001C6.11668 3.80001 5.73335 3.65 5.30001 3.65C4.83335 3.65 4.43334 3.80001 4.10001 4.10001C3.80001 4.43334 3.64999 4.83333 3.64999 5.3C3.64999 5.73333 3.80001 6.11667 4.10001 6.45C4.43334 6.78334 4.83335 6.95 5.30001 6.95C5.73335 6.95 6.11668 6.78334 6.45001 6.45C6.78334 6.11667 6.95001 5.73333 6.95001 5.3L6.95001 5.3Z" id="Vector" fill="#7E989A" fill-rule="evenodd" stroke="none" />
    </g>
  </g>
</svg>