<?xml version="1.0" encoding="utf-8"?>
<svg width="42.002075px" height="8.024994px" viewBox="0 0 42.002075 8.024994" version="1.1" xmlns:xlink="http://www.w3.org/1999/xlink" xmlns="http://www.w3.org/2000/svg">
  <g id="vorsegel">
    <g id="Layer0_71_MEMBER_5_FILL">
      <path d="M3.60001 0C3.03334 0 2.51667 0.100003 2.05 0.300003C1.71667 0.433336 1.40001 0.616665 1.10001 0.849998L1.05 0.900002C0.350003 1.53333 0 2.25 0 3.05L0 3.10001C0 3.90001 0.350003 4.61667 1.05 5.25C1.08334 5.28333 1.13333 5.31667 1.2 5.35001C1.83333 5.78334 2.53334 6.03334 3.3 6.10001C14.4333 8.66667 26.2167 8.66667 38.65 6.10001C39.45 6.03334 40.15 5.78334 40.75 5.35001C41.6167 4.71667 42.0333 3.96667 42 3.10001L42 3.05C42.0333 2.25 41.6667 1.53333 40.9 0.900002C40.6 0.666668 40.3 0.483332 40 0.349998C39.5 0.116665 38.95 0 38.35 0L3.60001 0L3.60001 0ZM3.14999 1.8C3.28333 1.76667 3.43334 1.75 3.60001 1.75L38.35 1.75C38.5167 1.75 38.6667 1.76667 38.8 1.8C39.0333 1.86667 39.25 1.98333 39.45 2.15C39.8167 2.41667 40 2.71667 40 3.05L40 3.10001C40 3.43334 39.8167 3.73333 39.45 4C39.15 4.23333 38.7833 4.35001 38.35 4.35001C26.1167 6.91667 14.5333 6.91667 3.60001 4.35001C3.16667 4.35001 2.78333 4.23333 2.45 4C2.15 3.73333 2 3.43334 2 3.10001L2 3.05C2 2.71667 2.15 2.41667 2.45 2.15C2.65 1.98333 2.88333 1.86667 3.14999 1.8L3.14999 1.8Z" id="Vector" fill="#956635" fill-rule="evenodd" stroke="none" />
      <path d="M2 3.05L2 3.1C2 3.43334 2.15 3.73333 2.45 4C2.78333 4.23333 3.16667 4.35 3.60001 4.35C14.5333 6.91667 26.1167 6.91667 38.35 4.35C38.7833 4.35 39.15 4.23333 39.45 4C39.8167 3.73333 40 3.43334 40 3.1L40 3.05C40 2.71667 39.8167 2.41667 39.45 2.15C39.25 1.98334 39.0333 1.86667 38.8 1.8C38.6667 1.83334 38.5167 1.85 38.35 1.85C26.1167 4.41666 14.5333 4.41666 3.60001 1.85C3.43334 1.85 3.28333 1.83334 3.14999 1.8C2.88333 1.86667 2.65 1.98334 2.45 2.15C2.15 2.41667 2 2.71667 2 3.05L2 3.05Z" id="Vector" fill="#F3E5C8" fill-rule="evenodd" stroke="none" />
      <path d="M3.60001 1.75C3.43334 1.75 3.28333 1.76667 3.14999 1.8C3.28333 1.83334 3.43334 1.85 3.60001 1.85C14.5333 4.41667 26.1167 4.41667 38.35 1.85C38.5167 1.85 38.6667 1.83334 38.8 1.8C38.6667 1.76667 38.5167 1.75 38.35 1.75L3.60001 1.75L3.60001 1.75Z" id="Vector" fill="#FFF1D2" fill-rule="evenodd" stroke="none" />
    </g>
  </g>
</svg>