<svg width="0" height="0" fill="none" style="visibility: hidden; position: absolute;" aria-hidden="true">
    <symbol id="sand1@svg" width="63" height="63" viewBox="0 0 63 63" fill="none" xmlns="http://www.w3.org/2000/svg">
        <path d="M32.6 32.3C41.2667 27.9333 51.4 24.65 63 22.45V2.45001C45.8333 6.11668 30.7833 11.1833 17.85 17.65C6.15 23.4833 1.01667 38.6 2.45 63H22.45C21.4833 46.4333 24.8667 36.2 32.6 32.3Z" fill="#EEDDB9"/>
        <path d="M63 22.45C51.4 24.65 41.2667 27.9334 32.6 32.3C24.8667 36.2 21.4833 46.4333 22.45 63H63V22.45Z" fill="#FAE8C2"/>
        <path d="M63 2.45001V0.450012C45 3.85001 29.2833 8.91668 15.85 15.65C3.81666 21.65 -1.31667 37.4333 0.45 63H2.45C1.01667 38.6 6.15 23.4833 17.85 17.65C30.7833 11.1833 45.8333 6.11668 63 2.45001Z" fill="#BBAE91"/>
    </symbol>
    <symbol id="sand2@svg" width="64" height="64" viewBox="0 0 64 64" fill="none" xmlns="http://www.w3.org/2000/svg">
        <path d="M64 23.45C62.3667 23.75 60.7167 23.9833 59.05 24.15C50.05 25.3167 41.0333 25.0833 32 23.45C27 22.55 22 22.0667 17 22H15C10 22.0667 5 22.55 0 23.45V64H64V23.45Z" fill="#FAE8C2"/>
        <path d="M64 3.45C62.3667 3.75 60.7167 3.98333 59.05 4.15C50.05 5.31667 41.0333 5.08333 32 3.45C27 2.55 22 2.06667 17 2H15C10 2.06667 5 2.55 0 3.45V23.45C5 22.55 10 22.0667 15 22H17C22 22.0667 27 22.55 32 23.45C41.0333 25.0833 50.05 25.3167 59.05 24.15C60.7167 23.9833 62.3667 23.75 64 23.45V3.45Z" fill="#EEDDB9"/>
        <path d="M64 1.45C62.3667 1.75 60.7167 1.98333 59.05 2.15C50.05 3.31667 41.0333 3.08333 32 1.45C27 0.550001 22 0.0666667 17 0H15C10 0.0666667 5 0.550001 0 1.45V3.45C5 2.55 10 2.06667 15 2H17C22 2.06667 27 2.55 32 3.45C41.0333 5.08333 50.05 5.31667 59.05 4.15C60.7167 3.98333 62.3667 3.75 64 3.45V1.45Z" fill="#BBAE91"/>
    </symbol>
    <symbol id="sand3@svg" width="63" height="63" viewBox="0 0 63 63" fill="none" xmlns="http://www.w3.org/2000/svg">
        <path d="M0 22.45C16.5667 21.4833 26.8 24.8667 30.7 32.6C35.0667 41.2667 38.35 51.4 40.55 63H60.55C56.8833 45.8333 51.8167 30.7833 45.35 17.85C39.5167 6.15001 24.4 1.01667 0 2.45001V22.45Z" fill="#EEDDB9"/>
        <path d="M30.7 32.6C26.8 24.8667 16.5667 21.4833 0 22.45V63H40.55C38.35 51.4 35.0667 41.2667 30.7 32.6Z" fill="#FAE8C2"/>
        <path d="M0 0.45V2.45C24.4 1.01667 39.5167 6.15 45.35 17.85C51.8167 30.7833 56.8833 45.8333 60.55 63H62.55C59.15 45 54.0833 29.2833 47.35 15.85C41.35 3.81666 25.5667 -1.31667 0 0.45Z" fill="#BBAE91"/>
    </symbol>
    <symbol id="sand4@svg" width="64" height="64" viewBox="0 0 64 64" fill="none" xmlns="http://www.w3.org/2000/svg">
        <path d="M1.45 0C1.75 1.63333 1.98333 3.28333 2.15 4.95C3.31667 13.95 3.08333 22.9667 1.45 32C0.550001 37 0.0666667 42 0 47V49C0.0666667 54 0.550001 59 1.45 64H3.45C2.55 59 2.06667 54 2 49V47C2.06667 42 2.55 37 3.45 32C5.08333 22.9667 5.31667 13.95 4.15 4.95C3.98333 3.28333 3.75 1.63333 3.45 0H1.45Z" fill="#BBAE91"/>
        <path d="M23.45 0C23.75 1.63333 23.9833 3.28333 24.15 4.95C25.3167 13.95 25.0833 22.9667 23.45 32C22.55 37 22.0667 42 22 47V49C22.0667 54 22.55 59 23.45 64H64V0H23.45Z" fill="#FAE8C2"/>
        <path d="M23.45 0H3.45C3.75 1.63333 3.98333 3.28333 4.15 4.95C5.31667 13.95 5.08333 22.9667 3.45 32C2.55 37 2.06667 42 2 47V49C2.06667 54 2.55 59 3.45 64H23.45C22.55 59 22.0667 54 22 49V47C22.0667 42 22.55 37 23.45 32C25.0833 22.9667 25.3167 13.95 24.15 4.95C23.9833 3.28333 23.75 1.63333 23.45 0Z" fill="#EEDDB9"/>
    </symbol>
    <symbol id="sand5@svg" width="64" height="64" viewBox="0 0 64 64" fill="none" xmlns="http://www.w3.org/2000/svg">
        <path d="M64 64V0H0V64H64Z" fill="#EEDDB9"/>
    </symbol>
    <symbol id="sand6@svg" width="64" height="64" viewBox="0 0 64 64" fill="none" xmlns="http://www.w3.org/2000/svg">
        <path d="M60.55 0C61.45 5 61.9333 10 62 15V17C61.9333 22 61.45 27 60.55 32C58.9167 41.0333 58.6833 50.05 59.85 59.05C60.0167 60.7167 60.25 62.3667 60.55 64H62.55C62.25 62.3667 62.0167 60.7167 61.85 59.05C60.6833 50.05 60.9167 41.0333 62.55 32C63.45 27 63.9333 22 64 17V15C63.9333 10 63.45 5 62.55 0H60.55Z" fill="#BBAE91"/>
        <path d="M42 15C41.9333 10 41.45 5 40.55 0H0V64H40.55C40.25 62.3667 40.0167 60.7167 39.85 59.05C38.6833 50.05 38.9167 41.0333 40.55 32C41.45 27 41.9333 22 42 17V15Z" fill="#FAE8C2"/>
        <path d="M40.55 0C41.45 5 41.9333 10 42 15V17C41.9333 22 41.45 27 40.55 32C38.9167 41.0333 38.6833 50.05 39.85 59.05C40.0167 60.7167 40.25 62.3667 40.55 64H60.55C60.25 62.3667 60.0167 60.7167 59.85 59.05C58.6833 50.05 58.9167 41.0333 60.55 32C61.45 27 61.9333 22 62 17V15C61.9333 10 61.45 5 60.55 0H40.55Z" fill="#EEDDB9"/>
    </symbol>
    <symbol id="sand7@svg" width="63" height="63" viewBox="0 0 63 63" fill="none" xmlns="http://www.w3.org/2000/svg">
        <path d="M63 0H22.45C24.65 11.6 27.9333 21.7333 32.3 30.4C36.2 38.1333 46.4333 41.5167 63 40.55V0Z" fill="#FAE8C2"/>
        <path d="M2.45 0H0.449997C3.85 18 8.91666 33.7167 15.65 47.15C21.65 59.1833 37.4333 64.3167 63 62.55V60.55C38.6 61.9833 23.4833 56.85 17.65 45.15C11.1833 32.2167 6.11666 17.1667 2.45 0Z" fill="#BBAE91"/>
        <path d="M22.45 0H2.45C6.11666 17.1667 11.1833 32.2167 17.65 45.15C23.4833 56.85 38.6 61.9833 63 60.55V40.55C46.4333 41.5167 36.2 38.1333 32.3 30.4C27.9333 21.7333 24.65 11.6 22.45 0Z" fill="#EEDDB9"/>
    </symbol>
    <symbol id="sand8@svg" width="64" height="64" viewBox="0 0 64 64" fill="none" xmlns="http://www.w3.org/2000/svg">
        <path d="M32 60.55C22.9667 58.9167 13.95 58.6833 4.95 59.85C3.28333 60.0167 1.63333 60.25 0 60.55V62.55C1.63333 62.25 3.28333 62.0167 4.95 61.85C13.95 60.6833 22.9667 60.9167 32 62.55C34.3667 62.9833 36.75 63.3167 39.15 63.55C41.75 63.8167 44.3667 63.9667 47 64H49C51.6333 63.9667 54.2667 63.8167 56.9 63.55C59.2667 63.3167 61.6333 62.9833 64 62.55V60.55C59 61.45 54 61.9333 49 62H47C42 61.9333 37 61.45 32 60.55Z" fill="#BBAE91"/>
        <path d="M4.95 39.85C13.95 38.6833 22.9667 38.9167 32 40.55C37 41.45 42 41.9333 47 42H49C54 41.9333 59 41.45 64 40.55V0H0V40.55C1.63333 40.25 3.28333 40.0167 4.95 39.85Z" fill="#FAE8C2"/>
        <path d="M32 40.55C22.9667 38.9167 13.95 38.6833 4.95 39.85C3.28333 40.0167 1.63333 40.25 0 40.55V60.55C1.63333 60.25 3.28333 60.0167 4.95 59.85C13.95 58.6833 22.9667 58.9167 32 60.55C37 61.45 42 61.9333 47 62H49C54 61.9333 59 61.45 64 60.55V40.55C59 41.45 54 41.9333 49 42H47C42 41.9333 37 41.45 32 40.55Z" fill="#EEDDB9"/>
    </symbol>
    <symbol id="sand9@svg" width="63" height="63" viewBox="0 0 63 63" fill="none" xmlns="http://www.w3.org/2000/svg">
        <path d="M60.55 0H40.55C41.5167 16.5667 38.1333 26.8 30.4 30.7C21.7333 35.0667 11.6 38.35 0 40.55V60.55C17.1667 56.8833 32.2167 51.8167 45.15 45.35C56.85 39.5167 61.9833 24.4 60.55 0Z" fill="#EEDDB9"/>
        <path d="M62.55 0H60.55C61.9833 24.4 56.85 39.5167 45.15 45.35C32.2167 51.8167 17.1667 56.8833 0 60.55V62.55C18 59.15 33.7167 54.0833 47.15 47.35C59.1833 41.35 64.3167 25.5667 62.55 0Z" fill="#BBAE91"/>
        <path d="M40.55 0H0V40.55C11.6 38.35 21.7333 35.0667 30.4 30.7C38.1333 26.8 41.5167 16.5667 40.55 0Z" fill="#FAE8C2"/>
    </symbol>
    <symbol id="stone1@svg" width="34" height="34" viewBox="0 0 34 34" fill="none" xmlns="http://www.w3.org/2000/svg">
        <path d="M33.55 15.75L21.9 0.75C21.7333 0.516667 21.5167 0.333346 21.25 0.200012C20.95 0.0666789 20.6667 0 20.4 0H9.7C9.33333 0 9.01667 0.0999878 8.75 0.299988C8.41667 0.466654 8.16667 0.716654 8 1.04999L0.25 16.05C0.0833333 16.35 0 16.6667 0 17V27C0 27.4667 0.133335 27.8833 0.400002 28.25C0.666668 28.5833 1.01666 28.8167 1.45 28.95L19.9 33.95C20.0667 33.9833 20.2333 34 20.4 34H31.05C31.5833 34 32.05 33.8167 32.45 33.45C32.7833 33.0833 32.9667 32.65 33 32.15L34 17.15C34.0333 16.6167 33.8833 16.15 33.55 15.75ZM1.95 27V17L9.7 2H20.4L32.05 17L31.05 32H20.4L1.95 27Z" fill="#6C8587"/>
        <path d="M24.25 20V24L31.05 32L32.05 17L20.4 2L16.5 10L24.25 20ZM1.95 17V27L9.7 21V19L1.95 17Z" fill="#90ADAF"/>
        <path d="M9.7 21L1.95 27L20.4 32H31.05L24.25 24L9.7 21Z" fill="#89A4A6"/>
        <path d="M16.5 10H14.55L9.7 19V21L24.25 24V20L16.5 10Z" fill="#A7C9CB"/>
        <path d="M14.55 10H16.5L20.4 2H9.7L1.95 17L9.7 19L14.55 10Z" fill="#9BBBBD"/>
    </symbol>
    <symbol id="stone2@svg" width="40" height="41" viewBox="0 0 40 41" fill="none" xmlns="http://www.w3.org/2000/svg">
        <path d="M40 18.6C39.9667 18.1667 39.8167 17.7834 39.55 17.45L26 0.750014C25.7 0.383348 25.3333 0.150002 24.9 0.0500022C24.4333 -0.0499978 23.9833 0.0166811 23.55 0.250014L1.05 12.15C0.716671 12.3167 0.450002 12.5834 0.250002 12.95C0.0500018 13.2834 -0.0333316 13.6333 1.74437e-06 14L1.15 32.25C1.18333 32.6167 1.31667 32.9834 1.55 33.35C1.81667 33.65 2.16667 33.8667 2.60001 34L25.1 39.95C25.4667 40.05 25.8667 40.0333 26.3 39.9C26.7 39.7667 27.0167 39.5167 27.25 39.15L39.7 19.75C39.9333 19.3833 40.0333 19 40 18.6ZM1.95 13.85L24.5 1.95003L38.05 18.7L25.55 38.05L3.10001 32.1L1.95 13.85Z" fill="#6C8587"/>
        <path d="M3.10001 32.1L12.2 25L12.55 19.1L1.95 13.85L3.10001 32.1ZM24.5 1.95001L21.15 14.2L25.85 19L21.25 27.4L25.55 38.05L38.05 18.7L24.5 1.95001Z" fill="#90ADAF"/>
        <path d="M21.25 27.4L25.85 19L21.15 14.2L12.55 19.1L12.2 25L21.25 27.4Z" fill="#A7C9CB"/>
        <path d="M25.55 38.05L21.25 27.4L12.2 25L3.10001 32.1L25.55 38.05Z" fill="#89A4A6"/>
        <path d="M24.5 1.95001L1.95 13.85L12.55 19.1L21.15 14.2L24.5 1.95001Z" fill="#9BBBBD"/>
    </symbol>
    <symbol id="stone3@svg" width="54" height="46" viewBox="0 0 54 46" fill="none" xmlns="http://www.w3.org/2000/svg">
        <path d="M0.350001 11.2L7.55001 20.95L4.4 32.3C4.3 32.7 4.35001 33.1333 4.55001 33.6C4.71667 33.9667 5.01667 34.2667 5.45 34.5L18.45 41.15C18.5833 41.2167 18.7167 41.2667 18.85 41.3L36.5 45.9C36.8 46 37.1 46.0167 37.4 45.95C37.7 45.8833 37.9833 45.7833 38.25 45.65L51.65 35.55C51.8833 35.3833 52.0667 35.1667 52.2 34.9C52.3333 34.7 52.4167 34.4667 52.45 34.2L54 19.95C54.0333 19.45 53.9333 19 53.7 18.6L46.2 8.39999C46.0333 8.16666 45.8 7.98334 45.5 7.85001C45.1667 7.68334 44.85 7.61666 44.55 7.64999L33.75 7.79999L18.25 0.200013C17.95 0.0333467 17.65 -0.0333322 17.35 1.13156e-06C17.0167 -0.0333322 16.7333 0.0500011 16.5 0.250001L1 8.35001C0.666669 8.55001 0.399999 8.81666 0.199999 9.14999C0.0333325 9.41666 -0.0333311 9.76668 2.26125e-06 10.2C0.0333356 10.6 0.150001 10.9333 0.350001 11.2ZM9.65 20.6L2 10.05L17.35 1.95001L33.3 9.70001L44.55 9.5L52.05 19.75L50.45 33.95L37.05 44L19.4 39.45L6.30001 32.8L9.65 20.6Z" fill="#6C8587"/>
        <path d="M52.05 19.75L44.55 9.5L38.5 16.65L41.85 21.25L41.15 27.7L50.45 33.95L52.05 19.75ZM22.75 21.6L9.64999 20.6L6.3 32.8L19.4 39.45L27.1 30.15L21.3 27.1L22.75 21.6Z" fill="#90ADAF"/>
        <path d="M27.1 30.15L19.4 39.45L37.05 44L50.45 33.95L41.15 27.7L35.1 32.25L27.1 30.15Z" fill="#87A6A8"/>
        <path d="M33.4 16.7L26.25 13.25L19.3 16.9L22.75 21.6L21.3 27.1L27.1 30.15L35.1 32.25L41.15 27.7L41.85 21.25L38.5 16.65L33.4 16.7Z" fill="#A7C9CB"/>
        <path d="M2 10.05L9.64999 20.6L22.75 21.6L19.3 16.9L26.25 13.25L33.4 16.7L38.5 16.65L44.55 9.5L33.3 9.70001L17.35 1.95001L2 10.05Z" fill="#9AB9BB"/>
    </symbol>
    <symbol id="tree1@svg" width="34" height="34" viewBox="0 0 34 34" fill="none" xmlns="http://www.w3.org/2000/svg">
        <path d="M18.65 0.899988C18.3834 0.499988 18.05 0.233333 17.65 0.1C17.2167 -0.0333333 16.8 -0.0333333 16.4 0.1C15.9667 0.233333 15.6167 0.499988 15.35 0.899988C14.45 2.19999 13.7 3.66665 13.1 5.29998C10.0667 3.33331 6.86669 2.03332 3.50002 1.39999C3.03336 1.29999 2.61669 1.34998 2.25002 1.54998C1.81669 1.74998 1.50001 2.06666 1.30001 2.49999C1.10001 2.89999 1.05005 3.31666 1.15005 3.74999C1.81672 7.04999 3.08337 10.2 4.95004 13.2C3.5167 13.7667 2.16672 14.4833 0.900049 15.35C0.500049 15.6167 0.233333 15.9667 0.1 16.4C-0.0333333 16.8 -0.0333333 17.2167 0.1 17.65C0.266667 18.0833 0.533382 18.4333 0.900049 18.7C2.23338 19.5333 3.65005 20.25 5.15005 20.85C3.11672 23.95 1.78338 27.2167 1.15005 30.65C1.05005 31.0833 1.10001 31.5 1.30001 31.9C1.50001 32.3 1.80004 32.6 2.20004 32.8C2.60004 33 3.03336 33.0667 3.50002 33C6.86669 32.3667 10.1167 31.05 13.25 29.05C13.8167 30.45 14.5167 31.8 15.35 33.1C15.5833 33.4667 15.9167 33.7333 16.35 33.9C16.7833 34.0333 17.2167 34.0333 17.65 33.9C18.0834 33.7333 18.4334 33.4667 18.7 33.1C19.5334 31.8333 20.2167 30.5 20.75 29.1C23.85 31.0667 27.0667 32.3667 30.4 33C30.8 33.0667 31.2167 33 31.65 32.8C32.05 32.6 32.35 32.3 32.55 31.9C32.75 31.5 32.8167 31.0833 32.75 30.65C32.1167 27.2167 30.7834 23.95 28.75 20.85C30.3167 20.25 31.7667 19.5333 33.1 18.7C33.4667 18.4333 33.7334 18.1 33.9 17.7C34.0334 17.2667 34.0334 16.8333 33.9 16.4C33.7667 15.9667 33.5167 15.6333 33.15 15.4C31.85 14.4667 30.4667 13.7167 29 13.15C30.8667 10.15 32.1167 7.01666 32.75 3.74999C32.85 3.31666 32.8 2.89999 32.6 2.49999C32.4 2.06666 32.1 1.76667 31.7 1.6C31.3 1.36667 30.8834 1.29999 30.45 1.39999C27.1167 1.99999 23.9334 3.26667 20.9 5.20001C20.3 3.63334 19.55 2.19999 18.65 0.899988ZM17 1.99999C18.2667 3.86666 19.2 5.98333 19.8 8.35C23.2667 5.75 26.9333 4.08333 30.8 3.35C30.0333 7.18333 28.3833 10.8167 25.85 14.25C28.1167 14.7833 30.1667 15.7 32 17C30.1 18.2333 27.95 19.1666 25.55 19.8C28.2833 23.3 30.0167 27.0333 30.75 31C26.9167 30.2667 23.2334 28.5833 19.7 25.95C19.1334 28.1167 18.2334 30.1333 17 32C15.7667 30.1 14.8667 28.05 14.3 25.85C10.7667 28.55 7.03333 30.2667 3.1 31C3.86667 27.0333 5.61667 23.2833 8.35 19.75C6.01667 19.15 3.90002 18.2333 2.00002 17C3.83336 15.7667 5.85001 14.85 8.05001 14.25C5.51668 10.8167 3.86667 7.18333 3.1 3.35C7.03333 4.11667 10.7167 5.81667 14.15 8.45001C14.7834 6.01667 15.7334 3.86666 17 1.99999Z" fill="#1C8348"/>
        <path d="M16.95 23.2C16.65 23.7 16.25 24.2 15.75 24.7C15.25 25.1 14.7667 25.4833 14.3 25.85C14.8667 28.05 15.7667 30.1 17 32C18.2333 30.1333 19.1333 28.1167 19.7 25.95C19.2 25.55 18.6834 25.1333 18.15 24.7C17.65 24.2 17.25 23.7 16.95 23.2ZM22.95 17.2C23.45 17.4667 23.95 17.8667 24.45 18.4C24.8167 18.8333 25.1833 19.3 25.55 19.8C27.95 19.1667 30.1 18.2333 32 17C30.1667 15.7 28.1166 14.7833 25.85 14.25C25.4166 14.8167 24.9667 15.3833 24.5 15.95C23.9667 16.4833 23.45 16.9 22.95 17.2ZM16.95 11.2C17.2167 10.6667 17.6333 10.1333 18.2 9.60001C18.7333 9.20001 19.2667 8.78334 19.8 8.35001C19.2 5.98334 18.2667 3.86667 17 2C15.7333 3.86667 14.7834 6.01668 14.15 8.45001C14.6834 8.81668 15.2167 9.23335 15.75 9.70001C16.25 10.1667 16.65 10.6667 16.95 11.2ZM9.45001 15.95C8.95001 15.3833 8.48332 14.8167 8.04999 14.25C5.84999 14.85 3.83333 15.7667 2 17C3.9 18.2333 6.01664 19.15 8.34998 19.75C8.68331 19.2833 9.05001 18.8167 9.45001 18.35C9.91668 17.85 10.4167 17.4667 10.95 17.2C10.45 16.9 9.95001 16.4833 9.45001 15.95Z" fill="#25A65C"/>
        <path d="M16.95 19.85C16.2833 20.95 16.2833 22.0667 16.95 23.2C17.25 23.7 17.65 24.2 18.15 24.7C18.6834 25.1333 19.2 25.55 19.7 25.95C23.2333 28.5833 26.9167 30.2667 30.75 31L18.8 19.05C18.1667 18.45 17.55 18.7 16.95 19.8V19.85ZM16.95 11.2C16.3167 13.0667 16.7333 14.65 18.2 15.95L30.8 3.35001C26.9333 4.08334 23.2667 5.75001 19.8 8.35001C19.2667 8.78334 18.7333 9.20001 18.2 9.60001C17.6333 10.1333 17.2167 10.6667 16.95 11.2ZM8.04999 14.25C8.48332 14.8167 8.95001 15.3833 9.45001 15.95C9.95001 16.4833 10.45 16.9 10.95 17.2C10.4167 17.4667 9.91668 17.85 9.45001 18.35C9.05001 18.8167 8.68331 19.2833 8.34998 19.75C5.61664 23.2833 3.86664 27.0333 3.09998 31L15.1 19.05C16.3 17.65 16.2833 16.4 15.05 15.3L3.09998 3.35001C3.86664 7.18334 5.51665 10.8167 8.04999 14.25Z" fill="#29B866"/>
        <path d="M18.2 15.95C16.7333 14.65 16.3167 13.0667 16.95 11.2C16.65 10.6667 16.25 10.1667 15.75 9.70001C15.2167 9.23335 14.6834 8.81668 14.15 8.45001C10.7167 5.81668 7.03331 4.11667 3.09998 3.35001L15.05 15.3C16.2833 16.4 16.3 17.65 15.1 19.05L3.09998 31C7.03331 30.2667 10.7667 28.55 14.3 25.85C14.7667 25.4833 15.25 25.1 15.75 24.7C16.25 24.2 16.65 23.7 16.95 23.2C16.2833 22.0667 16.2833 20.95 16.95 19.85V19.8C17.55 18.7 18.1667 18.45 18.8 19.05L30.75 31C30.0167 27.0333 28.2833 23.3 25.55 19.8C25.1833 19.3 24.8167 18.8333 24.45 18.4C23.95 17.8667 23.45 17.4667 22.95 17.2C23.45 16.9 23.9667 16.4833 24.5 15.95C24.9667 15.3833 25.4166 14.8167 25.85 14.25C28.3833 10.8167 30.0333 7.18334 30.8 3.35001L18.2 15.95Z" fill="#2ECC71"/>
    </symbol>
    <symbol id="tree2@svg" width="60" height="60" viewBox="0 0 60 60" fill="none" xmlns="http://www.w3.org/2000/svg">
        <path d="M30.6 0.075C30.2 -0.025 29.7833 -0.025 29.35 0.075C28.9166 0.208333 28.5833 0.474988 28.35 0.874988C25.55 5.04165 23.6 9.79165 22.5 15.125C20.0667 13.925 17.5833 13.075 15.05 12.575C14.5833 12.475 14.1666 12.525 13.8 12.725C13.3666 12.925 13.05 13.225 12.85 13.625C12.65 14.025 12.6 14.4583 12.7 14.925C13.2 17.4917 14.0666 20.0083 15.3 22.475C9.89998 23.5417 5.08333 25.5083 0.85 28.375C0.483333 28.6083 0.233333 28.9417 0.1 29.375C-0.0333333 29.8083 -0.0333333 30.225 0.1 30.625C0.233333 31.0583 0.483333 31.3917 0.85 31.625C4.98333 34.4583 9.71665 36.425 15.05 37.525C13.95 39.7916 13.1667 42.1417 12.7 44.575C12.6 44.975 12.65 45.375 12.85 45.775C13.05 46.175 13.3666 46.475 13.8 46.675C14.1666 46.875 14.5833 46.9417 15.05 46.875C17.5166 46.3417 19.9667 45.5083 22.4 44.375C23.4667 49.9083 25.45 54.8417 28.35 59.175C28.5833 59.5417 28.9166 59.7917 29.35 59.925C29.7833 60.025 30.2 60.025 30.6 59.925C31.0333 59.7917 31.3666 59.5417 31.6 59.175C34.5333 54.875 36.5333 49.975 37.6 44.475C39.8666 45.5417 42.2167 46.325 44.65 46.825C45.0834 46.925 45.5 46.875 45.9 46.675C46.3 46.475 46.6 46.175 46.8 45.775C47 45.375 47.0667 44.975 47 44.575C46.5 42.1417 45.7333 39.8083 44.7 37.575C50.1 36.475 54.9167 34.4917 59.15 31.625C59.5167 31.3917 59.7667 31.0583 59.9 30.625C60.0334 30.225 60.0334 29.8083 59.9 29.375C59.7667 28.9417 59.5167 28.6083 59.15 28.375C54.8167 25.5083 49.9167 23.525 44.45 22.425C45.6167 19.9583 46.4667 17.4583 47 14.925C47.0667 14.4917 47 14.075 46.8 13.675C46.6 13.2417 46.3 12.925 45.9 12.725C45.5334 12.525 45.1333 12.475 44.7 12.575C42.2 13.0417 39.8 13.8583 37.5 15.025C36.3667 9.72498 34.4 5.00832 31.6 0.874988C31.3666 0.474988 31.0333 0.208333 30.6 0.075ZM14.65 14.525C17.85 15.125 20.95 16.3417 23.95 18.175C24.8167 12.0417 26.8333 6.64166 30 1.97499C33.1 6.60833 35.1166 11.9583 36.05 18.025C38.8833 16.2583 41.8833 15.0916 45.05 14.525C44.4166 17.7583 43.2 20.8917 41.4 23.925C47.7 24.7583 53.2333 26.7916 58 30.025C53.3333 33.1583 47.9 35.175 41.7 36.075C43.3333 38.875 44.45 41.825 45.05 44.925C41.9166 44.2917 38.9333 43.1417 36.1 41.475C35.2333 47.775 33.2 53.2916 30 58.025C26.7667 53.2583 24.7334 47.6917 23.9 41.325C20.9 43.0917 17.8167 44.2917 14.65 44.925C15.25 41.825 16.3833 38.8583 18.05 36.025C11.95 35.125 6.58334 33.125 1.95001 30.025C6.68334 26.825 12.15 24.8083 18.35 23.975C16.4833 20.9083 15.25 17.7583 14.65 14.525Z" fill="#1C8348"/>
        <path d="M36.1 36.075C36.3333 36.875 36.4334 37.8083 36.4 38.875C36.3334 39.7417 36.2333 40.6083 36.1 41.475C38.9333 43.1417 41.9167 44.2917 45.05 44.925C44.45 41.825 43.3333 38.875 41.7 36.075C40.7667 36.2083 39.8166 36.3083 38.85 36.375C37.7833 36.4083 36.8666 36.3083 36.1 36.075ZM38.85 23.625C39.6833 23.6917 40.5334 23.7917 41.4 23.925C43.2 20.8917 44.4167 17.7583 45.05 14.525C41.8833 15.0917 38.8833 16.2583 36.05 18.025C36.1833 19.025 36.3 20.0583 36.4 21.125C36.4334 22.1917 36.3333 23.125 36.1 23.925C36.8666 23.6917 37.7833 23.5917 38.85 23.625ZM23.9 41.325C23.7667 40.4917 23.6666 39.675 23.6 38.875C23.5666 37.8083 23.6667 36.875 23.9 36.075C23.1 36.3083 22.1834 36.4083 21.15 36.375C20.0834 36.275 19.05 36.1583 18.05 36.025C16.3833 38.8583 15.25 41.825 14.65 44.925C17.8167 44.2917 20.9 43.0917 23.9 41.325ZM18.35 23.975C19.25 23.8083 20.1834 23.6917 21.15 23.625C22.1834 23.5917 23.1 23.6917 23.9 23.925C23.6667 23.125 23.5666 22.1917 23.6 21.125C23.7 20.125 23.8167 19.1417 23.95 18.175C20.95 16.3417 17.85 15.125 14.65 14.525C15.25 17.7583 16.4833 20.9083 18.35 23.975Z" fill="#25A65C"/>
        <path d="M33.75 30.025C32.5167 30.025 32.15 30.9084 32.65 32.675V32.725H32.7C33.1667 34.4917 34.3 35.6083 36.1 36.075C36.8666 36.3083 37.7833 36.4083 38.85 36.375C39.8166 36.3083 40.7667 36.2083 41.7 36.075C47.9 35.175 53.3333 33.1583 58 30.025H33.75ZM23.6 38.875C23.6666 39.675 23.7667 40.4917 23.9 41.325C24.7334 47.6917 26.7667 53.2583 30 58.025V33.775C29.8333 31.1417 28.5667 29.8917 26.2 30.025H1.95001C6.58335 33.125 11.95 35.125 18.05 36.025C19.05 36.1583 20.0834 36.275 21.15 36.375C22.1834 36.4083 23.1 36.3083 23.9 36.075C23.6667 36.875 23.5666 37.8083 23.6 38.875ZM23.9 23.925C25.2 26.425 27.2333 27.6083 30 27.475V1.97501C26.8333 6.64167 24.8167 12.0417 23.95 18.175C23.8167 19.1417 23.7 20.125 23.6 21.125C23.5666 22.1917 23.6667 23.125 23.9 23.925Z" fill="#29B866"/>
        <path d="M21.15 23.625C20.1834 23.6917 19.25 23.8083 18.35 23.975C12.15 24.8083 6.68335 26.825 1.95001 30.025H26.2C28.5667 29.8917 29.8333 31.1417 30 33.775V58.025C33.2 53.2917 35.2333 47.775 36.1 41.475C36.2333 40.6083 36.3334 39.7417 36.4 38.875C36.4334 37.8083 36.3333 36.875 36.1 36.075C34.3 35.6083 33.1667 34.4917 32.7 32.725H32.65V32.675C32.15 30.9084 32.5167 30.025 33.75 30.025H58C53.2333 26.7917 47.7 24.7584 41.4 23.925C40.5334 23.7917 39.6833 23.6917 38.85 23.625C37.7833 23.5917 36.8666 23.6917 36.1 23.925C36.3333 23.125 36.4334 22.1917 36.4 21.125C36.3 20.0583 36.1833 19.025 36.05 18.025C35.1167 11.9583 33.1 6.60834 30 1.97501V27.475C27.2333 27.6083 25.2 26.425 23.9 23.925C23.1 23.6917 22.1834 23.5917 21.15 23.625Z" fill="#2ECC71"/>
    </symbol>
    <symbol id="water@svg" width="65" height="64" viewBox="0 0 65 64" fill="none" xmlns="http://www.w3.org/2000/svg">
        <path d="M2.75 19C4.78333 15.5 6.35001 11.6 7.45001 7.29999C8.25001 4.73332 9.18333 2.3 10.25 0H0V23.15C1 21.8167 1.91667 20.4333 2.75 19ZM56.8 56.5C56.1333 59.1667 55.2833 61.6667 54.25 64H64.05V41.25C61.05 45.5833 58.6333 50.6667 56.8 56.5ZM64.05 0H54.25C53.6167 1.46667 52.9 2.86668 52.1 4.20001C46.5333 13.8333 37.3666 20.6167 24.6 24.55L24.65 24.6C14.15 27.2 5.93333 32.75 0 41.25V64H10.25C16.2167 50.8667 26 42.6167 39.6 39.25L39.55 39.2C50.3167 35.8667 58.4833 30.5167 64.05 23.15V0Z" fill="#ABE3F5"/>
        <path d="M39.55 39.2L39.6 39.25C26 42.6167 16.2167 50.8667 10.25 64H54.25C55.2833 61.6667 56.1333 59.1667 56.8 56.5C58.6333 50.6667 61.05 45.5833 64.05 41.25V23.15C58.4833 30.5167 50.3167 35.8667 39.55 39.2ZM52.1 4.20001C52.9 2.86668 53.6167 1.46667 54.25 0H10.25C9.18333 2.3 8.25001 4.73332 7.45001 7.29999C6.35001 11.6 4.78333 15.5 2.75 19C1.91667 20.4333 1 21.8167 0 23.15V41.25C5.93333 32.75 14.15 27.2 24.65 24.6L24.6 24.55C37.3666 20.6167 46.5333 13.8333 52.1 4.20001Z" fill="#B0E9FC"/>
    </symbol>
</svg>