<svg width="63" height="63" viewBox="0 0 63 63" fill="none" xmlns="http://www.w3.org/2000/svg">
<path d="M63 0H22.45C24.65 11.6 27.9333 21.7333 32.3 30.4C36.2 38.1333 46.4333 41.5167 63 40.55V0Z" fill="#FAE8C2"/>
<path d="M2.45 0H0.449997C3.85 18 8.91666 33.7167 15.65 47.15C21.65 59.1833 37.4333 64.3167 63 62.55V60.55C38.6 61.9833 23.4833 56.85 17.65 45.15C11.1833 32.2167 6.11666 17.1667 2.45 0Z" fill="#BBAE91"/>
<path d="M22.45 0H2.45C6.11666 17.1667 11.1833 32.2167 17.65 45.15C23.4833 56.85 38.6 61.9833 63 60.55V40.55C46.4333 41.5167 36.2 38.1333 32.3 30.4C27.9333 21.7333 24.65 11.6 22.45 0Z" fill="#EEDDB9"/>
</svg>
