<svg width="63" height="63" viewBox="0 0 63 63" fill="none" xmlns="http://www.w3.org/2000/svg">
<path d="M32.6 32.3C41.2667 27.9333 51.4 24.65 63 22.45V2.45001C45.8333 6.11668 30.7833 11.1833 17.85 17.65C6.15 23.4833 1.01667 38.6 2.45 63H22.45C21.4833 46.4333 24.8667 36.2 32.6 32.3Z" fill="#EEDDB9"/>
<path d="M63 22.45C51.4 24.65 41.2667 27.9334 32.6 32.3C24.8667 36.2 21.4833 46.4333 22.45 63H63V22.45Z" fill="#FAE8C2"/>
<path d="M63 2.45001V0.450012C45 3.85001 29.2833 8.91668 15.85 15.65C3.81666 21.65 -1.31667 37.4333 0.45 63H2.45C1.01667 38.6 6.15 23.4833 17.85 17.65C30.7833 11.1833 45.8333 6.11668 63 2.45001Z" fill="#BBAE91"/>
</svg>
