<svg width="63" height="63" viewBox="0 0 63 63" fill="none" xmlns="http://www.w3.org/2000/svg">
<path d="M0 22.45C16.5667 21.4833 26.8 24.8667 30.7 32.6C35.0667 41.2667 38.35 51.4 40.55 63H60.55C56.8833 45.8333 51.8167 30.7833 45.35 17.85C39.5167 6.15001 24.4 1.01667 0 2.45001V22.45Z" fill="#EEDDB9"/>
<path d="M30.7 32.6C26.8 24.8667 16.5667 21.4833 0 22.45V63H40.55C38.35 51.4 35.0667 41.2667 30.7 32.6Z" fill="#FAE8C2"/>
<path d="M0 0.45V2.45C24.4 1.01667 39.5167 6.15 45.35 17.85C51.8167 30.7833 56.8833 45.8333 60.55 63H62.55C59.15 45 54.0833 29.2833 47.35 15.85C41.35 3.81666 25.5667 -1.31667 0 0.45Z" fill="#BBAE91"/>
</svg>
