<svg width="64" height="64" viewBox="0 0 64 64" fill="none" xmlns="http://www.w3.org/2000/svg">
<path d="M64 23.45C62.3667 23.75 60.7167 23.9833 59.05 24.15C50.05 25.3167 41.0333 25.0833 32 23.45C27 22.55 22 22.0667 17 22H15C10 22.0667 5 22.55 0 23.45V64H64V23.45Z" fill="#FAE8C2"/>
<path d="M64 3.45C62.3667 3.75 60.7167 3.98333 59.05 4.15C50.05 5.31667 41.0333 5.08333 32 3.45C27 2.55 22 2.06667 17 2H15C10 2.06667 5 2.55 0 3.45V23.45C5 22.55 10 22.0667 15 22H17C22 22.0667 27 22.55 32 23.45C41.0333 25.0833 50.05 25.3167 59.05 24.15C60.7167 23.9833 62.3667 23.75 64 23.45V3.45Z" fill="#EEDDB9"/>
<path d="M64 1.45C62.3667 1.75 60.7167 1.98333 59.05 2.15C50.05 3.31667 41.0333 3.08333 32 1.45C27 0.550001 22 0.0666667 17 0H15C10 0.0666667 5 0.550001 0 1.45V3.45C5 2.55 10 2.06667 15 2H17C22 2.06667 27 2.55 32 3.45C41.0333 5.08333 50.05 5.31667 59.05 4.15C60.7167 3.98333 62.3667 3.75 64 3.45V1.45Z" fill="#BBAE91"/>
</svg>
