<svg width="63" height="63" viewBox="0 0 63 63" fill="none" xmlns="http://www.w3.org/2000/svg">
<path d="M60.55 0H40.55C41.5167 16.5667 38.1333 26.8 30.4 30.7C21.7333 35.0667 11.6 38.35 0 40.55V60.55C17.1667 56.8833 32.2167 51.8167 45.15 45.35C56.85 39.5167 61.9833 24.4 60.55 0Z" fill="#EEDDB9"/>
<path d="M62.55 0H60.55C61.9833 24.4 56.85 39.5167 45.15 45.35C32.2167 51.8167 17.1667 56.8833 0 60.55V62.55C18 59.15 33.7167 54.0833 47.15 47.35C59.1833 41.35 64.3167 25.5667 62.55 0Z" fill="#BBAE91"/>
<path d="M40.55 0H0V40.55C11.6 38.35 21.7333 35.0667 30.4 30.7C38.1333 26.8 41.5167 16.5667 40.55 0Z" fill="#FAE8C2"/>
</svg>
