<svg width="64" height="64" viewBox="0 0 64 64" fill="none" xmlns="http://www.w3.org/2000/svg">
<path d="M1.45 0C1.75 1.63333 1.98333 3.28333 2.15 4.95C3.31667 13.95 3.08333 22.9667 1.45 32C0.550001 37 0.0666667 42 0 47V49C0.0666667 54 0.550001 59 1.45 64H3.45C2.55 59 2.06667 54 2 49V47C2.06667 42 2.55 37 3.45 32C5.08333 22.9667 5.31667 13.95 4.15 4.95C3.98333 3.28333 3.75 1.63333 3.45 0H1.45Z" fill="#BBAE91"/>
<path d="M23.45 0C23.75 1.63333 23.9833 3.28333 24.15 4.95C25.3167 13.95 25.0833 22.9667 23.45 32C22.55 37 22.0667 42 22 47V49C22.0667 54 22.55 59 23.45 64H64V0H23.45Z" fill="#FAE8C2"/>
<path d="M23.45 0H3.45C3.75 1.63333 3.98333 3.28333 4.15 4.95C5.31667 13.95 5.08333 22.9667 3.45 32C2.55 37 2.06667 42 2 47V49C2.06667 54 2.55 59 3.45 64H23.45C22.55 59 22.0667 54 22 49V47C22.0667 42 22.55 37 23.45 32C25.0833 22.9667 25.3167 13.95 24.15 4.95C23.9833 3.28333 23.75 1.63333 23.45 0Z" fill="#EEDDB9"/>
</svg>
