<svg width="64" height="64" viewBox="0 0 64 64" fill="none" xmlns="http://www.w3.org/2000/svg">
<path d="M60.55 0C61.45 5 61.9333 10 62 15V17C61.9333 22 61.45 27 60.55 32C58.9167 41.0333 58.6833 50.05 59.85 59.05C60.0167 60.7167 60.25 62.3667 60.55 64H62.55C62.25 62.3667 62.0167 60.7167 61.85 59.05C60.6833 50.05 60.9167 41.0333 62.55 32C63.45 27 63.9333 22 64 17V15C63.9333 10 63.45 5 62.55 0H60.55Z" fill="#BBAE91"/>
<path d="M42 15C41.9333 10 41.45 5 40.55 0H0V64H40.55C40.25 62.3667 40.0167 60.7167 39.85 59.05C38.6833 50.05 38.9167 41.0333 40.55 32C41.45 27 41.9333 22 42 17V15Z" fill="#FAE8C2"/>
<path d="M40.55 0C41.45 5 41.9333 10 42 15V17C41.9333 22 41.45 27 40.55 32C38.9167 41.0333 38.6833 50.05 39.85 59.05C40.0167 60.7167 40.25 62.3667 40.55 64H60.55C60.25 62.3667 60.0167 60.7167 59.85 59.05C58.6833 50.05 58.9167 41.0333 60.55 32C61.45 27 61.9333 22 62 17V15C61.9333 10 61.45 5 60.55 0H40.55Z" fill="#EEDDB9"/>
</svg>
