<svg width="64" height="64" viewBox="0 0 64 64" fill="none" xmlns="http://www.w3.org/2000/svg">
<path d="M32 60.55C22.9667 58.9167 13.95 58.6833 4.95 59.85C3.28333 60.0167 1.63333 60.25 0 60.55V62.55C1.63333 62.25 3.28333 62.0167 4.95 61.85C13.95 60.6833 22.9667 60.9167 32 62.55C34.3667 62.9833 36.75 63.3167 39.15 63.55C41.75 63.8167 44.3667 63.9667 47 64H49C51.6333 63.9667 54.2667 63.8167 56.9 63.55C59.2667 63.3167 61.6333 62.9833 64 62.55V60.55C59 61.45 54 61.9333 49 62H47C42 61.9333 37 61.45 32 60.55Z" fill="#BBAE91"/>
<path d="M4.95 39.85C13.95 38.6833 22.9667 38.9167 32 40.55C37 41.45 42 41.9333 47 42H49C54 41.9333 59 41.45 64 40.55V0H0V40.55C1.63333 40.25 3.28333 40.0167 4.95 39.85Z" fill="#FAE8C2"/>
<path d="M32 40.55C22.9667 38.9167 13.95 38.6833 4.95 39.85C3.28333 40.0167 1.63333 40.25 0 40.55V60.55C1.63333 60.25 3.28333 60.0167 4.95 59.85C13.95 58.6833 22.9667 58.9167 32 60.55C37 61.45 42 61.9333 47 62H49C54 61.9333 59 61.45 64 60.55V40.55C59 41.45 54 41.9333 49 42H47C42 41.9333 37 41.45 32 40.55Z" fill="#EEDDB9"/>
</svg>
