<svg width="34" height="34" viewBox="0 0 34 34" fill="none" xmlns="http://www.w3.org/2000/svg">
<path d="M33.55 15.75L21.9 0.75C21.7333 0.516667 21.5167 0.333346 21.25 0.200012C20.95 0.0666789 20.6667 0 20.4 0H9.7C9.33333 0 9.01667 0.0999878 8.75 0.299988C8.41667 0.466654 8.16667 0.716654 8 1.04999L0.25 16.05C0.0833333 16.35 0 16.6667 0 17V27C0 27.4667 0.133335 27.8833 0.400002 28.25C0.666668 28.5833 1.01666 28.8167 1.45 28.95L19.9 33.95C20.0667 33.9833 20.2333 34 20.4 34H31.05C31.5833 34 32.05 33.8167 32.45 33.45C32.7833 33.0833 32.9667 32.65 33 32.15L34 17.15C34.0333 16.6167 33.8833 16.15 33.55 15.75ZM1.95 27V17L9.7 2H20.4L32.05 17L31.05 32H20.4L1.95 27Z" fill="#6C8587"/>
<path d="M24.25 20V24L31.05 32L32.05 17L20.4 2L16.5 10L24.25 20ZM1.95 17V27L9.7 21V19L1.95 17Z" fill="#90ADAF"/>
<path d="M9.7 21L1.95 27L20.4 32H31.05L24.25 24L9.7 21Z" fill="#89A4A6"/>
<path d="M16.5 10H14.55L9.7 19V21L24.25 24V20L16.5 10Z" fill="#A7C9CB"/>
<path d="M14.55 10H16.5L20.4 2H9.7L1.95 17L9.7 19L14.55 10Z" fill="#9BBBBD"/>
</svg>
