<svg width="40" height="41" viewBox="0 0 40 41" fill="none" xmlns="http://www.w3.org/2000/svg">
<path d="M40 18.6C39.9667 18.1667 39.8167 17.7834 39.55 17.45L26 0.750014C25.7 0.383348 25.3333 0.150002 24.9 0.0500022C24.4333 -0.0499978 23.9833 0.0166811 23.55 0.250014L1.05 12.15C0.716671 12.3167 0.450002 12.5834 0.250002 12.95C0.0500018 13.2834 -0.0333316 13.6333 1.74437e-06 14L1.15 32.25C1.18333 32.6167 1.31667 32.9834 1.55 33.35C1.81667 33.65 2.16667 33.8667 2.60001 34L25.1 39.95C25.4667 40.05 25.8667 40.0333 26.3 39.9C26.7 39.7667 27.0167 39.5167 27.25 39.15L39.7 19.75C39.9333 19.3833 40.0333 19 40 18.6ZM1.95 13.85L24.5 1.95003L38.05 18.7L25.55 38.05L3.10001 32.1L1.95 13.85Z" fill="#6C8587"/>
<path d="M3.10001 32.1L12.2 25L12.55 19.1L1.95 13.85L3.10001 32.1ZM24.5 1.95001L21.15 14.2L25.85 19L21.25 27.4L25.55 38.05L38.05 18.7L24.5 1.95001Z" fill="#90ADAF"/>
<path d="M21.25 27.4L25.85 19L21.15 14.2L12.55 19.1L12.2 25L21.25 27.4Z" fill="#A7C9CB"/>
<path d="M25.55 38.05L21.25 27.4L12.2 25L3.10001 32.1L25.55 38.05Z" fill="#89A4A6"/>
<path d="M24.5 1.95001L1.95 13.85L12.55 19.1L21.15 14.2L24.5 1.95001Z" fill="#9BBBBD"/>
</svg>
