<svg width="54" height="46" viewBox="0 0 54 46" fill="none" xmlns="http://www.w3.org/2000/svg">
<path d="M0.350001 11.2L7.55001 20.95L4.4 32.3C4.3 32.7 4.35001 33.1333 4.55001 33.6C4.71667 33.9667 5.01667 34.2667 5.45 34.5L18.45 41.15C18.5833 41.2167 18.7167 41.2667 18.85 41.3L36.5 45.9C36.8 46 37.1 46.0167 37.4 45.95C37.7 45.8833 37.9833 45.7833 38.25 45.65L51.65 35.55C51.8833 35.3833 52.0667 35.1667 52.2 34.9C52.3333 34.7 52.4167 34.4667 52.45 34.2L54 19.95C54.0333 19.45 53.9333 19 53.7 18.6L46.2 8.39999C46.0333 8.16666 45.8 7.98334 45.5 7.85001C45.1667 7.68334 44.85 7.61666 44.55 7.64999L33.75 7.79999L18.25 0.200013C17.95 0.0333467 17.65 -0.0333322 17.35 1.13156e-06C17.0167 -0.0333322 16.7333 0.0500011 16.5 0.250001L1 8.35001C0.666669 8.55001 0.399999 8.81666 0.199999 9.14999C0.0333325 9.41666 -0.0333311 9.76668 2.26125e-06 10.2C0.0333356 10.6 0.150001 10.9333 0.350001 11.2ZM9.65 20.6L2 10.05L17.35 1.95001L33.3 9.70001L44.55 9.5L52.05 19.75L50.45 33.95L37.05 44L19.4 39.45L6.30001 32.8L9.65 20.6Z" fill="#6C8587"/>
<path d="M52.05 19.75L44.55 9.5L38.5 16.65L41.85 21.25L41.15 27.7L50.45 33.95L52.05 19.75ZM22.75 21.6L9.64999 20.6L6.3 32.8L19.4 39.45L27.1 30.15L21.3 27.1L22.75 21.6Z" fill="#90ADAF"/>
<path d="M27.1 30.15L19.4 39.45L37.05 44L50.45 33.95L41.15 27.7L35.1 32.25L27.1 30.15Z" fill="#87A6A8"/>
<path d="M33.4 16.7L26.25 13.25L19.3 16.9L22.75 21.6L21.3 27.1L27.1 30.15L35.1 32.25L41.15 27.7L41.85 21.25L38.5 16.65L33.4 16.7Z" fill="#A7C9CB"/>
<path d="M2 10.05L9.64999 20.6L22.75 21.6L19.3 16.9L26.25 13.25L33.4 16.7L38.5 16.65L44.55 9.5L33.3 9.70001L17.35 1.95001L2 10.05Z" fill="#9AB9BB"/>
</svg>
