<svg width="60" height="60" viewBox="0 0 60 60" fill="none" xmlns="http://www.w3.org/2000/svg">
<path d="M30.6 0.075C30.2 -0.025 29.7833 -0.025 29.35 0.075C28.9166 0.208333 28.5833 0.474988 28.35 0.874988C25.55 5.04165 23.6 9.79165 22.5 15.125C20.0667 13.925 17.5833 13.075 15.05 12.575C14.5833 12.475 14.1666 12.525 13.8 12.725C13.3666 12.925 13.05 13.225 12.85 13.625C12.65 14.025 12.6 14.4583 12.7 14.925C13.2 17.4917 14.0666 20.0083 15.3 22.475C9.89998 23.5417 5.08333 25.5083 0.85 28.375C0.483333 28.6083 0.233333 28.9417 0.1 29.375C-0.0333333 29.8083 -0.0333333 30.225 0.1 30.625C0.233333 31.0583 0.483333 31.3917 0.85 31.625C4.98333 34.4583 9.71665 36.425 15.05 37.525C13.95 39.7916 13.1667 42.1417 12.7 44.575C12.6 44.975 12.65 45.375 12.85 45.775C13.05 46.175 13.3666 46.475 13.8 46.675C14.1666 46.875 14.5833 46.9417 15.05 46.875C17.5166 46.3417 19.9667 45.5083 22.4 44.375C23.4667 49.9083 25.45 54.8417 28.35 59.175C28.5833 59.5417 28.9166 59.7917 29.35 59.925C29.7833 60.025 30.2 60.025 30.6 59.925C31.0333 59.7917 31.3666 59.5417 31.6 59.175C34.5333 54.875 36.5333 49.975 37.6 44.475C39.8666 45.5417 42.2167 46.325 44.65 46.825C45.0834 46.925 45.5 46.875 45.9 46.675C46.3 46.475 46.6 46.175 46.8 45.775C47 45.375 47.0667 44.975 47 44.575C46.5 42.1417 45.7333 39.8083 44.7 37.575C50.1 36.475 54.9167 34.4917 59.15 31.625C59.5167 31.3917 59.7667 31.0583 59.9 30.625C60.0334 30.225 60.0334 29.8083 59.9 29.375C59.7667 28.9417 59.5167 28.6083 59.15 28.375C54.8167 25.5083 49.9167 23.525 44.45 22.425C45.6167 19.9583 46.4667 17.4583 47 14.925C47.0667 14.4917 47 14.075 46.8 13.675C46.6 13.2417 46.3 12.925 45.9 12.725C45.5334 12.525 45.1333 12.475 44.7 12.575C42.2 13.0417 39.8 13.8583 37.5 15.025C36.3667 9.72498 34.4 5.00832 31.6 0.874988C31.3666 0.474988 31.0333 0.208333 30.6 0.075ZM14.65 14.525C17.85 15.125 20.95 16.3417 23.95 18.175C24.8167 12.0417 26.8333 6.64166 30 1.97499C33.1 6.60833 35.1166 11.9583 36.05 18.025C38.8833 16.2583 41.8833 15.0916 45.05 14.525C44.4166 17.7583 43.2 20.8917 41.4 23.925C47.7 24.7583 53.2333 26.7916 58 30.025C53.3333 33.1583 47.9 35.175 41.7 36.075C43.3333 38.875 44.45 41.825 45.05 44.925C41.9166 44.2917 38.9333 43.1417 36.1 41.475C35.2333 47.775 33.2 53.2916 30 58.025C26.7667 53.2583 24.7334 47.6917 23.9 41.325C20.9 43.0917 17.8167 44.2917 14.65 44.925C15.25 41.825 16.3833 38.8583 18.05 36.025C11.95 35.125 6.58334 33.125 1.95001 30.025C6.68334 26.825 12.15 24.8083 18.35 23.975C16.4833 20.9083 15.25 17.7583 14.65 14.525Z" fill="#1C8348"/>
<path d="M36.1 36.075C36.3333 36.875 36.4334 37.8083 36.4 38.875C36.3334 39.7417 36.2333 40.6083 36.1 41.475C38.9333 43.1417 41.9167 44.2917 45.05 44.925C44.45 41.825 43.3333 38.875 41.7 36.075C40.7667 36.2083 39.8166 36.3083 38.85 36.375C37.7833 36.4083 36.8666 36.3083 36.1 36.075ZM38.85 23.625C39.6833 23.6917 40.5334 23.7917 41.4 23.925C43.2 20.8917 44.4167 17.7583 45.05 14.525C41.8833 15.0917 38.8833 16.2583 36.05 18.025C36.1833 19.025 36.3 20.0583 36.4 21.125C36.4334 22.1917 36.3333 23.125 36.1 23.925C36.8666 23.6917 37.7833 23.5917 38.85 23.625ZM23.9 41.325C23.7667 40.4917 23.6666 39.675 23.6 38.875C23.5666 37.8083 23.6667 36.875 23.9 36.075C23.1 36.3083 22.1834 36.4083 21.15 36.375C20.0834 36.275 19.05 36.1583 18.05 36.025C16.3833 38.8583 15.25 41.825 14.65 44.925C17.8167 44.2917 20.9 43.0917 23.9 41.325ZM18.35 23.975C19.25 23.8083 20.1834 23.6917 21.15 23.625C22.1834 23.5917 23.1 23.6917 23.9 23.925C23.6667 23.125 23.5666 22.1917 23.6 21.125C23.7 20.125 23.8167 19.1417 23.95 18.175C20.95 16.3417 17.85 15.125 14.65 14.525C15.25 17.7583 16.4833 20.9083 18.35 23.975Z" fill="#25A65C"/>
<path d="M33.75 30.025C32.5167 30.025 32.15 30.9084 32.65 32.675V32.725H32.7C33.1667 34.4917 34.3 35.6083 36.1 36.075C36.8666 36.3083 37.7833 36.4083 38.85 36.375C39.8166 36.3083 40.7667 36.2083 41.7 36.075C47.9 35.175 53.3333 33.1583 58 30.025H33.75ZM23.6 38.875C23.6666 39.675 23.7667 40.4917 23.9 41.325C24.7334 47.6917 26.7667 53.2583 30 58.025V33.775C29.8333 31.1417 28.5667 29.8917 26.2 30.025H1.95001C6.58335 33.125 11.95 35.125 18.05 36.025C19.05 36.1583 20.0834 36.275 21.15 36.375C22.1834 36.4083 23.1 36.3083 23.9 36.075C23.6667 36.875 23.5666 37.8083 23.6 38.875ZM23.9 23.925C25.2 26.425 27.2333 27.6083 30 27.475V1.97501C26.8333 6.64167 24.8167 12.0417 23.95 18.175C23.8167 19.1417 23.7 20.125 23.6 21.125C23.5666 22.1917 23.6667 23.125 23.9 23.925Z" fill="#29B866"/>
<path d="M21.15 23.625C20.1834 23.6917 19.25 23.8083 18.35 23.975C12.15 24.8083 6.68335 26.825 1.95001 30.025H26.2C28.5667 29.8917 29.8333 31.1417 30 33.775V58.025C33.2 53.2917 35.2333 47.775 36.1 41.475C36.2333 40.6083 36.3334 39.7417 36.4 38.875C36.4334 37.8083 36.3333 36.875 36.1 36.075C34.3 35.6083 33.1667 34.4917 32.7 32.725H32.65V32.675C32.15 30.9084 32.5167 30.025 33.75 30.025H58C53.2333 26.7917 47.7 24.7584 41.4 23.925C40.5334 23.7917 39.6833 23.6917 38.85 23.625C37.7833 23.5917 36.8666 23.6917 36.1 23.925C36.3333 23.125 36.4334 22.1917 36.4 21.125C36.3 20.0583 36.1833 19.025 36.05 18.025C35.1167 11.9583 33.1 6.60834 30 1.97501V27.475C27.2333 27.6083 25.2 26.425 23.9 23.925C23.1 23.6917 22.1834 23.5917 21.15 23.625Z" fill="#2ECC71"/>
</svg>
