<svg width="34" height="34" viewBox="0 0 34 34" fill="none" xmlns="http://www.w3.org/2000/svg">
<path d="M18.65 0.899988C18.3834 0.499988 18.05 0.233333 17.65 0.1C17.2167 -0.0333333 16.8 -0.0333333 16.4 0.1C15.9667 0.233333 15.6167 0.499988 15.35 0.899988C14.45 2.19999 13.7 3.66665 13.1 5.29998C10.0667 3.33331 6.86669 2.03332 3.50002 1.39999C3.03336 1.29999 2.61669 1.34998 2.25002 1.54998C1.81669 1.74998 1.50001 2.06666 1.30001 2.49999C1.10001 2.89999 1.05005 3.31666 1.15005 3.74999C1.81672 7.04999 3.08337 10.2 4.95004 13.2C3.5167 13.7667 2.16672 14.4833 0.900049 15.35C0.500049 15.6167 0.233333 15.9667 0.1 16.4C-0.0333333 16.8 -0.0333333 17.2167 0.1 17.65C0.266667 18.0833 0.533382 18.4333 0.900049 18.7C2.23338 19.5333 3.65005 20.25 5.15005 20.85C3.11672 23.95 1.78338 27.2167 1.15005 30.65C1.05005 31.0833 1.10001 31.5 1.30001 31.9C1.50001 32.3 1.80004 32.6 2.20004 32.8C2.60004 33 3.03336 33.0667 3.50002 33C6.86669 32.3667 10.1167 31.05 13.25 29.05C13.8167 30.45 14.5167 31.8 15.35 33.1C15.5833 33.4667 15.9167 33.7333 16.35 33.9C16.7833 34.0333 17.2167 34.0333 17.65 33.9C18.0834 33.7333 18.4334 33.4667 18.7 33.1C19.5334 31.8333 20.2167 30.5 20.75 29.1C23.85 31.0667 27.0667 32.3667 30.4 33C30.8 33.0667 31.2167 33 31.65 32.8C32.05 32.6 32.35 32.3 32.55 31.9C32.75 31.5 32.8167 31.0833 32.75 30.65C32.1167 27.2167 30.7834 23.95 28.75 20.85C30.3167 20.25 31.7667 19.5333 33.1 18.7C33.4667 18.4333 33.7334 18.1 33.9 17.7C34.0334 17.2667 34.0334 16.8333 33.9 16.4C33.7667 15.9667 33.5167 15.6333 33.15 15.4C31.85 14.4667 30.4667 13.7167 29 13.15C30.8667 10.15 32.1167 7.01666 32.75 3.74999C32.85 3.31666 32.8 2.89999 32.6 2.49999C32.4 2.06666 32.1 1.76667 31.7 1.6C31.3 1.36667 30.8834 1.29999 30.45 1.39999C27.1167 1.99999 23.9334 3.26667 20.9 5.20001C20.3 3.63334 19.55 2.19999 18.65 0.899988ZM17 1.99999C18.2667 3.86666 19.2 5.98333 19.8 8.35C23.2667 5.75 26.9333 4.08333 30.8 3.35C30.0333 7.18333 28.3833 10.8167 25.85 14.25C28.1167 14.7833 30.1667 15.7 32 17C30.1 18.2333 27.95 19.1666 25.55 19.8C28.2833 23.3 30.0167 27.0333 30.75 31C26.9167 30.2667 23.2334 28.5833 19.7 25.95C19.1334 28.1167 18.2334 30.1333 17 32C15.7667 30.1 14.8667 28.05 14.3 25.85C10.7667 28.55 7.03333 30.2667 3.1 31C3.86667 27.0333 5.61667 23.2833 8.35 19.75C6.01667 19.15 3.90002 18.2333 2.00002 17C3.83336 15.7667 5.85001 14.85 8.05001 14.25C5.51668 10.8167 3.86667 7.18333 3.1 3.35C7.03333 4.11667 10.7167 5.81667 14.15 8.45001C14.7834 6.01667 15.7334 3.86666 17 1.99999Z" fill="#1C8348"/>
<path d="M16.95 23.2C16.65 23.7 16.25 24.2 15.75 24.7C15.25 25.1 14.7667 25.4833 14.3 25.85C14.8667 28.05 15.7667 30.1 17 32C18.2333 30.1333 19.1333 28.1167 19.7 25.95C19.2 25.55 18.6834 25.1333 18.15 24.7C17.65 24.2 17.25 23.7 16.95 23.2ZM22.95 17.2C23.45 17.4667 23.95 17.8667 24.45 18.4C24.8167 18.8333 25.1833 19.3 25.55 19.8C27.95 19.1667 30.1 18.2333 32 17C30.1667 15.7 28.1166 14.7833 25.85 14.25C25.4166 14.8167 24.9667 15.3833 24.5 15.95C23.9667 16.4833 23.45 16.9 22.95 17.2ZM16.95 11.2C17.2167 10.6667 17.6333 10.1333 18.2 9.60001C18.7333 9.20001 19.2667 8.78334 19.8 8.35001C19.2 5.98334 18.2667 3.86667 17 2C15.7333 3.86667 14.7834 6.01668 14.15 8.45001C14.6834 8.81668 15.2167 9.23335 15.75 9.70001C16.25 10.1667 16.65 10.6667 16.95 11.2ZM9.45001 15.95C8.95001 15.3833 8.48332 14.8167 8.04999 14.25C5.84999 14.85 3.83333 15.7667 2 17C3.9 18.2333 6.01664 19.15 8.34998 19.75C8.68331 19.2833 9.05001 18.8167 9.45001 18.35C9.91668 17.85 10.4167 17.4667 10.95 17.2C10.45 16.9 9.95001 16.4833 9.45001 15.95Z" fill="#25A65C"/>
<path d="M16.95 19.85C16.2833 20.95 16.2833 22.0667 16.95 23.2C17.25 23.7 17.65 24.2 18.15 24.7C18.6834 25.1333 19.2 25.55 19.7 25.95C23.2333 28.5833 26.9167 30.2667 30.75 31L18.8 19.05C18.1667 18.45 17.55 18.7 16.95 19.8V19.85ZM16.95 11.2C16.3167 13.0667 16.7333 14.65 18.2 15.95L30.8 3.35001C26.9333 4.08334 23.2667 5.75001 19.8 8.35001C19.2667 8.78334 18.7333 9.20001 18.2 9.60001C17.6333 10.1333 17.2167 10.6667 16.95 11.2ZM8.04999 14.25C8.48332 14.8167 8.95001 15.3833 9.45001 15.95C9.95001 16.4833 10.45 16.9 10.95 17.2C10.4167 17.4667 9.91668 17.85 9.45001 18.35C9.05001 18.8167 8.68331 19.2833 8.34998 19.75C5.61664 23.2833 3.86664 27.0333 3.09998 31L15.1 19.05C16.3 17.65 16.2833 16.4 15.05 15.3L3.09998 3.35001C3.86664 7.18334 5.51665 10.8167 8.04999 14.25Z" fill="#29B866"/>
<path d="M18.2 15.95C16.7333 14.65 16.3167 13.0667 16.95 11.2C16.65 10.6667 16.25 10.1667 15.75 9.70001C15.2167 9.23335 14.6834 8.81668 14.15 8.45001C10.7167 5.81668 7.03331 4.11667 3.09998 3.35001L15.05 15.3C16.2833 16.4 16.3 17.65 15.1 19.05L3.09998 31C7.03331 30.2667 10.7667 28.55 14.3 25.85C14.7667 25.4833 15.25 25.1 15.75 24.7C16.25 24.2 16.65 23.7 16.95 23.2C16.2833 22.0667 16.2833 20.95 16.95 19.85V19.8C17.55 18.7 18.1667 18.45 18.8 19.05L30.75 31C30.0167 27.0333 28.2833 23.3 25.55 19.8C25.1833 19.3 24.8167 18.8333 24.45 18.4C23.95 17.8667 23.45 17.4667 22.95 17.2C23.45 16.9 23.9667 16.4833 24.5 15.95C24.9667 15.3833 25.4166 14.8167 25.85 14.25C28.3833 10.8167 30.0333 7.18334 30.8 3.35001L18.2 15.95Z" fill="#2ECC71"/>
</svg>
