<svg width="65" height="64" viewBox="0 0 65 64" fill="none" xmlns="http://www.w3.org/2000/svg">
<path d="M2.75 19C4.78333 15.5 6.35001 11.6 7.45001 7.29999C8.25001 4.73332 9.18333 2.3 10.25 0H0V23.15C1 21.8167 1.91667 20.4333 2.75 19ZM56.8 56.5C56.1333 59.1667 55.2833 61.6667 54.25 64H64.05V41.25C61.05 45.5833 58.6333 50.6667 56.8 56.5ZM64.05 0H54.25C53.6167 1.46667 52.9 2.86668 52.1 4.20001C46.5333 13.8333 37.3666 20.6167 24.6 24.55L24.65 24.6C14.15 27.2 5.93333 32.75 0 41.25V64H10.25C16.2167 50.8667 26 42.6167 39.6 39.25L39.55 39.2C50.3167 35.8667 58.4833 30.5167 64.05 23.15V0Z" fill="#ABE3F5"/>
<path d="M39.55 39.2L39.6 39.25C26 42.6167 16.2167 50.8667 10.25 64H54.25C55.2833 61.6667 56.1333 59.1667 56.8 56.5C58.6333 50.6667 61.05 45.5833 64.05 41.25V23.15C58.4833 30.5167 50.3167 35.8667 39.55 39.2ZM52.1 4.20001C52.9 2.86668 53.6167 1.46667 54.25 0H10.25C9.18333 2.3 8.25001 4.73332 7.45001 7.29999C6.35001 11.6 4.78333 15.5 2.75 19C1.91667 20.4333 1 21.8167 0 23.15V41.25C5.93333 32.75 14.15 27.2 24.65 24.6L24.6 24.55C37.3666 20.6167 46.5333 13.8333 52.1 4.20001Z" fill="#B0E9FC"/>
</svg>
